<svg width="287" height="150" viewBox="0 0 287 150" fill="none" xmlns="http://www.w3.org/2000/svg">
<g clip-path="url(#clip0_1_760)">
<path d="M278.563 80.4443C278.123 80.19 277.744 79.8424 277.453 79.4259C277.162 79.0093 276.966 78.5341 276.878 78.0335C276.791 77.533 276.814 77.0193 276.947 76.5287C277.079 76.0381 277.317 75.5825 277.645 75.194L274.021 48.7012L281.571 49.0718L282.756 74.9128C283.372 75.5063 283.75 76.3054 283.816 77.1585C283.883 78.0116 283.634 78.8595 283.117 79.5415C282.6 80.2234 281.851 80.692 281.012 80.8584C280.172 81.0248 279.301 80.8775 278.563 80.4443Z" fill="#A0616A"/>
<path d="M282.607 49.423C282.452 49.6053 282.254 49.7455 282.03 49.8307L275.245 52.4201C274.905 52.5503 274.527 52.5448 274.19 52.4048C273.853 52.2649 273.583 52.0011 273.435 51.6679L267.424 38.1605C266.847 36.9075 266.749 35.4866 267.148 34.1662C267.443 33.2238 267.987 32.3784 268.722 31.7192C269.458 31.06 270.357 30.6113 271.326 30.4205C272.071 30.2671 272.841 30.278 273.582 30.4524C274.469 30.6502 275.293 31.0662 275.979 31.6627C276.666 32.2591 277.192 33.0173 277.512 33.8686L282.855 47.9955C282.945 48.234 282.969 48.4921 282.926 48.7431C282.882 48.9941 282.772 49.2288 282.607 49.423Z" fill="#CCCCCC"/>
<path d="M247.25 145.107H242.555L240.852 126.915L247.25 127.001V145.107Z" fill="#A0616A"/>
<path d="M239.202 143.766H248.254V149.467H233.501C233.501 147.955 234.101 146.505 235.17 145.436C236.239 144.367 237.689 143.766 239.201 143.766H239.202Z" fill="#2F2E41"/>
<path d="M269.076 145.108H264.381L262.148 127H269.077L269.076 145.108Z" fill="#A0616A"/>
<path d="M261.028 143.766H270.081V149.467H255.327C255.327 147.955 255.927 146.505 256.996 145.436C258.065 144.367 259.515 143.766 261.027 143.766H261.028Z" fill="#2F2E41"/>
<path d="M269.666 138.665L262.294 138.119C261.875 138.088 261.481 137.905 261.187 137.604C260.893 137.303 260.719 136.905 260.698 136.484L259.054 102.508C259.038 102.182 258.904 101.873 258.677 101.639C258.45 101.405 258.145 101.262 257.819 101.237C257.494 101.212 257.17 101.306 256.91 101.502C256.649 101.698 256.469 101.983 256.403 102.303L249.545 135.772C249.46 136.184 249.228 136.551 248.892 136.803C248.555 137.056 248.139 137.177 247.719 137.144L241.054 136.611C240.829 136.593 240.609 136.53 240.408 136.427C240.206 136.324 240.027 136.183 239.88 136.011C239.733 135.838 239.622 135.639 239.552 135.424C239.483 135.208 239.456 134.981 239.474 134.756C239.475 134.745 239.476 134.733 239.477 134.722L245.66 72.8905C245.685 72.6488 245.76 72.415 245.88 72.2043C246.001 71.9937 246.165 71.811 246.362 71.6682C246.558 71.5254 246.783 71.4258 247.02 71.3758C247.258 71.3259 247.504 71.3267 247.741 71.3784L271.254 76.4898C271.643 76.5752 271.991 76.7926 272.238 77.105C272.486 77.4175 272.617 77.8058 272.611 78.2042L271.516 136.979C271.508 137.43 271.323 137.859 271.002 138.175C270.68 138.491 270.248 138.669 269.797 138.67C269.754 138.67 269.71 138.668 269.666 138.665Z" fill="#2F2E41"/>
<path d="M263.216 21.1924C268.41 21.1924 272.621 16.9817 272.621 11.7876C272.621 6.59357 268.41 2.38293 263.216 2.38293C258.022 2.38293 253.811 6.59357 253.811 11.7876C253.811 16.9817 258.022 21.1924 263.216 21.1924Z" fill="#A0616A"/>
<path d="M248.624 77.6593C247.72 76.8484 247.002 75.8512 246.52 74.7363C246.038 73.6214 245.803 72.4153 245.831 71.201C245.831 57.6837 257.532 27.4829 257.898 26.5423C257.932 26.3154 258.241 26.2173 259.862 25.1231C261.483 24.029 263.82 23.8599 266.808 24.6232C267.112 24.701 267.388 24.8605 267.608 25.0846C267.827 25.3086 267.981 25.5886 268.052 25.8939L268.608 26.697C268.657 26.9008 268.752 27.0904 268.888 27.2504C269.023 27.4104 269.194 27.5364 269.387 27.6183C271.796 28.6336 279.456 33.3154 276.846 50.9347C274.421 67.3017 273.437 76.9255 273.127 80.3061C273.091 80.707 272.914 81.0824 272.63 81.3669C272.345 81.6514 271.969 81.8268 271.568 81.8628C270.386 81.9684 268.359 82.1093 265.945 82.1093C260.344 82.1076 252.664 81.3532 248.624 77.6593Z" fill="#CCCCCC"/>
<path d="M237.386 72.6515C237.162 72.1952 237.041 71.6954 237.032 71.1873C237.022 70.6792 237.124 70.1751 237.33 69.7107C237.536 69.2462 237.842 68.8327 238.225 68.4991C238.609 68.1655 239.061 67.9201 239.549 67.7801L251.302 43.7618L257.365 48.2766L243.95 70.3946C244.132 71.231 244 72.1048 243.58 72.8504C243.16 73.596 242.481 74.1615 241.671 74.4397C240.862 74.718 239.979 74.6896 239.189 74.36C238.399 74.0304 237.758 73.4225 237.387 72.6515H237.386Z" fill="#A0616A"/>
<path d="M258.028 49.1469C257.798 49.2121 257.556 49.2181 257.323 49.1644L250.246 47.5339C249.89 47.4521 249.579 47.2372 249.378 46.9333C249.176 46.6294 249.098 46.2598 249.161 45.9004L251.698 31.3353C251.917 29.9733 252.627 28.7386 253.695 27.8645C254.465 27.2465 255.387 26.8476 256.365 26.71C257.343 26.5723 258.34 26.701 259.251 27.0824C259.955 27.3703 260.588 27.8081 261.106 28.3655C261.733 29.0242 262.185 29.8288 262.423 30.7065C262.66 31.5841 262.675 32.5071 262.466 33.3919L259.031 48.099C258.973 48.3473 258.849 48.5754 258.673 48.7596C258.496 48.9439 258.274 49.0776 258.028 49.1469H258.028Z" fill="#CCCCCC"/>
<path d="M261.014 20.285C260.556 19.8181 260.218 19.2473 260.029 18.6215C259.84 17.9956 259.804 17.3333 259.927 16.6909C260.254 14.9765 260.447 13.8535 260.484 13.4451C260.609 12.0485 259.197 10.9177 257.8 10.7363C257.745 10.7291 257.7 10.7247 257.662 10.7216C257.697 10.7559 257.736 10.7922 257.77 10.8244C258.035 11.0737 258.365 11.384 258.287 11.7043C258.24 11.897 258.063 12.0338 257.748 12.1219C255.563 12.7333 253.88 12.172 252.452 10.3543C252.051 9.83782 251.775 9.23505 251.646 8.59361C251.135 6.08368 252.498 3.94406 253.731 2.59137C254.749 1.47596 256.398 0.122581 258.477 0.00599897C260.094 -0.0841804 262.017 0.846414 262.592 2.52348C262.863 2.12159 263.225 1.78844 263.647 1.55038C264.07 1.31232 264.542 1.1759 265.026 1.15193C266.13 1.12799 267.217 1.43022 268.15 2.02081C272.711 4.63292 274.67 10.8556 272.43 15.6094C271.021 18.5997 267.967 20.8258 264.462 21.419C264.242 21.4562 264.02 21.475 263.797 21.4752C263.277 21.4743 262.762 21.3686 262.283 21.1643C261.805 20.9601 261.372 20.6615 261.011 20.2864L261.014 20.285Z" fill="#2F2E41"/>
<path d="M124.694 67.0583C124.496 66.5886 124.165 66.1873 123.742 65.9039C123.318 65.6205 122.821 65.4675 122.311 65.4639H74.7441C74.0603 65.4642 73.4047 65.736 72.9212 66.2195C72.4377 66.703 72.166 67.3586 72.1656 68.0424V128.219C72.166 128.903 72.4377 129.558 72.9212 130.042C73.4047 130.525 74.0603 130.797 74.7441 130.798H122.313C122.996 130.797 123.652 130.525 124.135 130.041C124.619 129.558 124.89 128.903 124.891 128.219V68.0424C124.893 67.7046 124.826 67.37 124.696 67.0583H124.694ZM124.317 128.219C124.316 128.751 124.105 129.261 123.729 129.637C123.353 130.013 122.843 130.224 122.311 130.225H74.7441C74.2122 130.225 73.7021 130.014 73.3259 129.637C72.9498 129.261 72.7384 128.751 72.7382 128.219V68.0427C72.7389 67.5109 72.9505 67.0012 73.3265 66.6251C73.7025 66.2491 74.2123 66.0376 74.7441 66.0368H122.313C122.713 66.0383 123.105 66.1592 123.436 66.3839C123.768 66.6087 124.025 66.9271 124.175 67.2987C124.204 67.3727 124.229 67.4482 124.25 67.525C124.296 67.6938 124.319 67.8679 124.319 68.0427L124.317 128.219Z" fill="#3F3D56"/>
<path d="M114.768 79.6715H100.44C100.136 79.6715 99.8442 79.5507 99.6292 79.3357C99.4142 79.1208 99.2935 78.8292 99.2935 78.5252C99.2935 78.2212 99.4142 77.9296 99.6292 77.7146C99.8442 77.4997 100.136 77.3789 100.44 77.3789H114.768C115.072 77.3789 115.363 77.4997 115.578 77.7146C115.793 77.9296 115.914 78.2212 115.914 78.5252C115.914 78.8292 115.793 79.1208 115.578 79.3357C115.363 79.5507 115.072 79.6715 114.768 79.6715Z" fill="#3F3D56"/>
<path d="M114.768 85.6892H100.44C100.136 85.6892 99.8442 85.5684 99.6292 85.3534C99.4142 85.1385 99.2935 84.8469 99.2935 84.5429C99.2935 84.2389 99.4142 83.9473 99.6292 83.7323C99.8442 83.5174 100.136 83.3966 100.44 83.3966H114.768C115.072 83.3966 115.363 83.5174 115.578 83.7323C115.793 83.9473 115.914 84.2389 115.914 84.5429C115.914 84.8469 115.793 85.1385 115.578 85.3534C115.363 85.5684 115.072 85.6892 114.768 85.6892Z" fill="#3F3D56"/>
<path d="M93.0882 89.1155H82.6175C82.2756 89.1152 81.9478 88.9792 81.706 88.7374C81.4642 88.4957 81.3282 88.1679 81.3279 87.826V75.4696C81.3282 75.1277 81.4642 74.7999 81.706 74.5582C81.9478 74.3164 82.2756 74.1804 82.6175 74.1801H93.0882C93.4301 74.1804 93.7579 74.3164 93.9997 74.5582C94.2415 74.7999 94.3775 75.1277 94.3778 75.4696V87.826C94.3775 88.1679 94.2415 88.4957 93.9997 88.7374C93.7579 88.9792 93.4301 89.1152 93.0882 89.1155Z" fill="#5A66DF"/>
<path d="M114.668 98.011H82.2873C81.9833 98.011 81.6917 97.8903 81.4768 97.6753C81.2618 97.4603 81.141 97.1688 81.141 96.8648C81.141 96.5608 81.2618 96.2692 81.4768 96.0542C81.6917 95.8393 81.9833 95.7185 82.2873 95.7185H114.668C114.819 95.7185 114.968 95.7482 115.107 95.8058C115.246 95.8634 115.372 95.9478 115.479 96.0542C115.585 96.1607 115.67 96.2871 115.727 96.4261C115.785 96.5652 115.814 96.7143 115.814 96.8648C115.814 97.0153 115.785 97.1644 115.727 97.3034C115.67 97.4425 115.585 97.5689 115.479 97.6753C115.372 97.7818 115.246 97.8662 115.107 97.9238C114.968 97.9814 114.819 98.011 114.668 98.011Z" fill="#CCCCCC"/>
<path d="M114.668 104.029H82.2873C81.9833 104.029 81.6917 103.908 81.4768 103.693C81.2618 103.478 81.141 103.186 81.141 102.882C81.141 102.578 81.2618 102.287 81.4768 102.072C81.6917 101.857 81.9833 101.736 82.2873 101.736H114.668C114.972 101.736 115.264 101.857 115.479 102.072C115.694 102.287 115.814 102.578 115.814 102.882C115.814 103.186 115.694 103.478 115.479 103.693C115.264 103.908 114.972 104.029 114.668 104.029Z" fill="#CCCCCC"/>
<path d="M114.668 110.046H82.2873C81.9833 110.046 81.6917 109.926 81.4768 109.711C81.2618 109.496 81.141 109.204 81.141 108.9C81.141 108.596 81.2618 108.305 81.4768 108.09C81.6917 107.875 81.9833 107.754 82.2873 107.754H114.668C114.972 107.754 115.264 107.875 115.479 108.09C115.694 108.305 115.814 108.596 115.814 108.9C115.814 109.204 115.694 109.496 115.479 109.711C115.264 109.926 114.972 110.046 114.668 110.046Z" fill="#CCCCCC"/>
<path d="M114.668 116.064H82.2873C81.9833 116.064 81.6917 115.943 81.4768 115.728C81.2618 115.513 81.141 115.222 81.141 114.918C81.141 114.614 81.2618 114.322 81.4768 114.107C81.6917 113.892 81.9833 113.772 82.2873 113.772H114.668C114.972 113.772 115.264 113.892 115.479 114.107C115.694 114.322 115.814 114.614 115.814 114.918C115.814 115.222 115.694 115.513 115.479 115.728C115.264 115.943 114.972 116.064 114.668 116.064Z" fill="#CCCCCC"/>
<path d="M114.668 122.082H82.2873C81.9833 122.082 81.6917 121.961 81.4768 121.746C81.2618 121.531 81.141 121.24 81.141 120.936C81.141 120.632 81.2618 120.34 81.4768 120.125C81.6917 119.91 81.9833 119.789 82.2873 119.789H114.668C114.972 119.789 115.264 119.91 115.479 120.125C115.694 120.34 115.814 120.632 115.814 120.936C115.814 121.24 115.694 121.531 115.479 121.746C115.264 121.961 114.972 122.082 114.668 122.082Z" fill="#CCCCCC"/>
<path d="M219.449 150H286.312C286.403 150 286.491 149.964 286.555 149.9C286.619 149.835 286.655 149.748 286.655 149.657C286.655 149.566 286.619 149.479 286.555 149.415C286.491 149.35 286.403 149.314 286.312 149.314H219.449C219.358 149.314 219.271 149.35 219.207 149.415C219.143 149.479 219.107 149.566 219.107 149.657C219.107 149.748 219.143 149.835 219.207 149.9C219.271 149.964 219.358 150 219.449 150Z" fill="#3F3D56"/>
<path d="M99.3333 50.9649C105.443 50.9649 110.395 46.0122 110.395 39.9027C110.395 33.7932 105.443 28.8405 99.3333 28.8405C93.2237 28.8405 88.271 33.7932 88.271 39.9027C88.271 46.0122 93.2237 50.9649 99.3333 50.9649Z" fill="#5A66DF"/>
<path d="M98.2371 44.1226C97.9882 44.123 97.7459 44.0425 97.5468 43.8932L97.5345 43.8839L94.9347 41.8952C94.8141 41.803 94.7129 41.6878 94.6368 41.5565C94.5608 41.4251 94.5113 41.28 94.4914 41.1295C94.4714 40.979 94.4813 40.826 94.5205 40.6793C94.5597 40.5327 94.6274 40.3951 94.7198 40.2747C94.8121 40.1542 94.9273 40.0531 95.0588 39.9771C95.1903 39.9012 95.3354 39.8519 95.486 39.8321C95.6365 39.8123 95.7894 39.8224 95.9361 39.8617C96.0827 39.9011 96.2202 39.9689 96.3405 40.0614L98.0245 41.3528L102.004 36.1614C102.19 35.9184 102.465 35.7593 102.769 35.7192C103.073 35.6791 103.38 35.7612 103.623 35.9476L103.623 35.9478L103.598 35.9821L103.624 35.9478C103.867 36.1344 104.025 36.4098 104.066 36.7134C104.106 37.017 104.024 37.3241 103.837 37.5673L99.157 43.6707C99.0487 43.8113 98.9095 43.9251 98.7501 44.0032C98.5908 44.0814 98.4156 44.1217 98.2381 44.1212L98.2371 44.1226Z" fill="white"/>
<path d="M26.504 34.8492C30.644 34.8492 34.0002 31.493 34.0002 27.353C34.0002 23.213 30.644 19.8568 26.504 19.8568C22.3639 19.8568 19.0078 23.213 19.0078 27.353C19.0078 31.493 22.3639 34.8492 26.504 34.8492Z" fill="#CCCCCC"/>
<path d="M25.761 30.2124C25.5923 30.2127 25.4282 30.1581 25.2933 30.057L25.285 30.0509L23.5233 28.7019C23.3633 28.5741 23.2597 28.3886 23.2349 28.1853C23.2101 27.9819 23.266 27.777 23.3905 27.6144C23.5151 27.4518 23.6984 27.3445 23.9012 27.3155C24.1039 27.2865 24.31 27.3381 24.4751 27.4593L25.6163 28.3344L28.3127 24.8177C28.439 24.653 28.6255 24.5453 28.8313 24.5181C29.037 24.4909 29.2451 24.5466 29.4098 24.6729L29.41 24.673L29.3932 24.6957L29.4103 24.6734C29.5748 24.7998 29.6824 24.9864 29.7095 25.1921C29.7367 25.3978 29.6811 25.6058 29.555 25.7706L26.3833 29.9072C26.31 30.0025 26.2156 30.0797 26.1076 30.1327C25.9997 30.1857 25.8809 30.213 25.7606 30.2127L25.761 30.2124Z" fill="white"/>
<path d="M47.5693 44.9294C47.4136 44.5599 47.153 44.2442 46.8198 44.0212C46.4866 43.7982 46.0953 43.6778 45.6944 43.6748H8.26443C7.72643 43.6751 7.21054 43.8889 6.83011 44.2693C6.44968 44.6498 6.23584 45.1657 6.23557 45.7037V93.054C6.23584 93.592 6.44968 94.1079 6.83011 94.4883C7.21054 94.8688 7.72643 95.0826 8.26443 95.0829H45.6944C46.2322 95.0821 46.7479 94.8682 47.1282 94.4878C47.5085 94.1075 47.7225 93.5919 47.7232 93.054V45.7037C47.7241 45.4379 47.6717 45.1747 47.5693 44.9294ZM47.2727 93.0543C47.2719 93.4724 47.1054 93.8731 46.8098 94.1688C46.5142 94.4644 46.1135 94.6308 45.6954 94.6316H8.26443C7.84611 94.6316 7.44493 94.4655 7.14913 94.1697C6.85333 93.8739 6.68715 93.4727 6.68715 93.0543V45.7037C6.68796 45.2856 6.85441 44.8849 7.15003 44.5893C7.44565 44.2936 7.84636 44.1272 8.26443 44.1264H45.6944C46.0098 44.1277 46.3176 44.223 46.5786 44.4001C46.8396 44.5772 47.0418 44.8281 47.1595 45.1208C47.1824 45.179 47.2023 45.2384 47.2188 45.2987C47.2547 45.4315 47.273 45.5685 47.273 45.7061L47.2727 93.0543Z" fill="#CCCCCC"/>
<path d="M39.7573 54.8542H28.4831C28.2439 54.8542 28.0145 54.7592 27.8454 54.59C27.6762 54.4209 27.5812 54.1915 27.5812 53.9523C27.5812 53.713 27.6762 53.4836 27.8454 53.3145C28.0145 53.1453 28.2439 53.0503 28.4831 53.0503H39.7569C39.9962 53.0503 40.2256 53.1453 40.3947 53.3145C40.5639 53.4836 40.6589 53.713 40.6589 53.9523C40.6589 54.1915 40.5639 54.4209 40.3947 54.59C40.2256 54.7592 39.9962 54.8542 39.7569 54.8542H39.7573Z" fill="#CCCCCC"/>
<path d="M39.7573 59.5896H28.4831C28.2439 59.5896 28.0145 59.4945 27.8454 59.3254C27.6762 59.1562 27.5812 58.9268 27.5812 58.6876C27.5812 58.4484 27.6762 58.219 27.8454 58.0498C28.0145 57.8807 28.2439 57.7856 28.4831 57.7856H39.7569C39.9962 57.7856 40.2256 57.8807 40.3947 58.0498C40.5639 58.219 40.6589 58.4484 40.6589 58.6876C40.6589 58.9268 40.5639 59.1562 40.3947 59.3254C40.2256 59.4945 39.9962 59.5896 39.7569 59.5896H39.7573Z" fill="#CCCCCC"/>
<path d="M22.6983 62.2857H14.4594C14.1904 62.2854 13.9325 62.1785 13.7423 61.9882C13.552 61.798 13.4451 61.5401 13.4448 61.2711V51.5485C13.4451 51.2795 13.552 51.0216 13.7423 50.8314C13.9325 50.6412 14.1904 50.5342 14.4594 50.5339H22.6983C22.9673 50.5343 23.2251 50.6413 23.4153 50.8315C23.6055 51.0217 23.7125 51.2796 23.7129 51.5485V61.2711C23.7126 61.5401 23.6056 61.798 23.4154 61.9882C23.2252 62.1785 22.9673 62.2854 22.6983 62.2857Z" fill="#CCCCCC"/>
<path d="M39.6787 69.285H14.1998C13.9606 69.285 13.7312 69.19 13.562 69.0208C13.3929 68.8517 13.2979 68.6223 13.2979 68.3831C13.2979 68.1438 13.3929 67.9144 13.562 67.7453C13.7312 67.5761 13.9606 67.4811 14.1998 67.4811H39.6787C39.918 67.4811 40.1474 67.5761 40.3165 67.7453C40.4857 67.9144 40.5807 68.1438 40.5807 68.3831C40.5807 68.6223 40.4857 68.8517 40.3165 69.0208C40.1474 69.19 39.918 69.285 39.6787 69.285Z" fill="#CCCCCC"/>
<path d="M39.6787 74.0217H14.1998C13.9606 74.0217 13.7312 73.9267 13.562 73.7575C13.3929 73.5884 13.2979 73.3589 13.2979 73.1197C13.2979 72.8805 13.3929 72.6511 13.562 72.482C13.7312 72.3128 13.9606 72.2178 14.1998 72.2178H39.6787C39.918 72.2178 40.1474 72.3128 40.3165 72.482C40.4857 72.6511 40.5807 72.8805 40.5807 73.1197C40.5807 73.3589 40.4857 73.5884 40.3165 73.7575C40.1474 73.9267 39.918 74.0217 39.6787 74.0217Z" fill="#CCCCCC"/>
<path d="M39.6787 78.7552H14.1998C13.9606 78.7552 13.7312 78.6602 13.562 78.491C13.3929 78.3219 13.2979 78.0925 13.2979 77.8533C13.2979 77.614 13.3929 77.3846 13.562 77.2155C13.7312 77.0463 13.9606 76.9513 14.1998 76.9513H39.6787C39.918 76.9513 40.1474 77.0463 40.3165 77.2155C40.4857 77.3846 40.5807 77.614 40.5807 77.8533C40.5807 78.0925 40.4857 78.3219 40.3165 78.491C40.1474 78.6602 39.918 78.7552 39.6787 78.7552Z" fill="#CCCCCC"/>
<path d="M39.6787 83.4916H14.1998C13.9606 83.4916 13.7312 83.3965 13.562 83.2274C13.3929 83.0582 13.2979 82.8288 13.2979 82.5896C13.2979 82.3504 13.3929 82.121 13.562 81.9518C13.7312 81.7826 13.9606 81.6876 14.1998 81.6876H39.6787C39.918 81.6876 40.1474 81.7826 40.3165 81.9518C40.4857 82.121 40.5807 82.3504 40.5807 82.5896C40.5807 82.8288 40.4857 83.0582 40.3165 83.2274C40.1474 83.3965 39.918 83.4916 39.6787 83.4916Z" fill="#CCCCCC"/>
<path d="M39.6787 88.2254H14.1998C13.9606 88.2254 13.7312 88.1304 13.562 87.9613C13.3929 87.7921 13.2979 87.5627 13.2979 87.3235C13.2979 87.0843 13.3929 86.8548 13.562 86.6857C13.7312 86.5165 13.9606 86.4215 14.1998 86.4215H39.6787C39.918 86.4215 40.1474 86.5165 40.3165 86.6857C40.4857 86.8548 40.5807 87.0843 40.5807 87.3235C40.5807 87.5627 40.4857 87.7921 40.3165 87.9613C40.1474 88.1304 39.918 88.2254 39.6787 88.2254Z" fill="#CCCCCC"/>
<path d="M0.271391 95.2807H52.882C52.9535 95.2807 53.0222 95.2522 53.0728 95.2016C53.1234 95.151 53.1518 95.0824 53.1518 95.0108C53.1518 94.9393 53.1234 94.8706 53.0728 94.82C53.0222 94.7694 52.9535 94.741 52.882 94.741H0.271391C0.235953 94.7408 0.200822 94.7476 0.168005 94.7609C0.135188 94.7743 0.105328 94.794 0.0801279 94.8189C0.0549275 94.8438 0.0348839 94.8735 0.0211366 94.9061C0.00738928 94.9388 0.000205631 94.9739 4.3529e-06 95.0093C-0.000196925 95.0447 0.00658398 95.0799 0.0199594 95.1127C0.0333348 95.1455 0.053046 95.1753 0.0779618 95.2005C0.102878 95.2257 0.132512 95.2458 0.165175 95.2595C0.197838 95.2733 0.232887 95.2805 0.268325 95.2807H0.271391Z" fill="#CCCCCC"/>
<path d="M170.517 34.8492C174.657 34.8492 178.013 31.493 178.013 27.353C178.013 23.213 174.657 19.8568 170.517 19.8568C166.377 19.8568 163.02 23.213 163.02 27.353C163.02 31.493 166.377 34.8492 170.517 34.8492Z" fill="#CCCCCC"/>
<path d="M169.774 30.2124C169.605 30.2127 169.441 30.1581 169.306 30.057L169.298 30.0509L167.536 28.7019C167.376 28.5741 167.272 28.3886 167.248 28.1853C167.223 27.9819 167.279 27.777 167.403 27.6144C167.528 27.4518 167.711 27.3445 167.914 27.3155C168.117 27.2865 168.323 27.3381 168.488 27.4593L169.629 28.3344L172.325 24.8177C172.452 24.653 172.638 24.5453 172.844 24.5181C173.05 24.4909 173.258 24.5466 173.422 24.6729L173.423 24.673L173.406 24.6957L173.423 24.6734C173.587 24.7998 173.695 24.9864 173.722 25.1921C173.749 25.3978 173.694 25.6058 173.568 25.7706L170.396 29.9072C170.323 30.0025 170.228 30.0797 170.12 30.1327C170.012 30.1857 169.894 30.213 169.773 30.2127L169.774 30.2124Z" fill="white"/>
<path d="M191.582 44.9294C191.426 44.5599 191.166 44.2442 190.832 44.0212C190.499 43.7982 190.108 43.6778 189.707 43.6748H152.277C151.739 43.6751 151.223 43.8889 150.843 44.2693C150.462 44.6498 150.249 45.1657 150.248 45.7037V93.054C150.249 93.592 150.462 94.1079 150.843 94.4883C151.223 94.8688 151.739 95.0826 152.277 95.0829H189.707C190.245 95.0821 190.761 94.8682 191.141 94.4878C191.521 94.1075 191.735 93.5919 191.736 93.054V45.7037C191.737 45.4379 191.684 45.1747 191.582 44.9294ZM191.285 93.0543C191.285 93.4724 191.118 93.8731 190.822 94.1688C190.527 94.4644 190.126 94.6308 189.708 94.6316H152.277C152.07 94.6316 151.865 94.5908 151.674 94.5116C151.482 94.4323 151.308 94.3161 151.162 94.1697C151.015 94.0232 150.899 93.8493 150.82 93.6579C150.741 93.4666 150.7 93.2615 150.7 93.0543V45.7037C150.701 45.2856 150.867 44.8849 151.163 44.5893C151.458 44.2936 151.859 44.1272 152.277 44.1264H189.707C190.022 44.1277 190.33 44.223 190.591 44.4001C190.852 44.5772 191.054 44.8281 191.172 45.1208C191.195 45.179 191.215 45.2384 191.231 45.2987C191.267 45.4315 191.286 45.5685 191.286 45.7061L191.285 93.0543Z" fill="#CCCCCC"/>
<path d="M183.77 54.8542H172.496C172.257 54.8542 172.027 54.7592 171.858 54.59C171.689 54.4209 171.594 54.1915 171.594 53.9523C171.594 53.713 171.689 53.4836 171.858 53.3145C172.027 53.1453 172.257 53.0503 172.496 53.0503H183.77C184.009 53.0503 184.238 53.1453 184.407 53.3145C184.577 53.4836 184.672 53.713 184.672 53.9523C184.672 54.1915 184.577 54.4209 184.407 54.59C184.238 54.7592 184.009 54.8542 183.77 54.8542H183.77Z" fill="#CCCCCC"/>
<path d="M183.77 59.5896H172.496C172.257 59.5896 172.027 59.4945 171.858 59.3254C171.689 59.1562 171.594 58.9268 171.594 58.6876C171.594 58.4484 171.689 58.219 171.858 58.0498C172.027 57.8807 172.257 57.7856 172.496 57.7856H183.77C184.009 57.7856 184.238 57.8807 184.407 58.0498C184.577 58.219 184.672 58.4484 184.672 58.6876C184.672 58.9268 184.577 59.1562 184.407 59.3254C184.238 59.4945 184.009 59.5896 183.77 59.5896H183.77Z" fill="#CCCCCC"/>
<path d="M166.711 62.2857H158.472C158.203 62.2854 157.945 62.1785 157.755 61.9882C157.565 61.798 157.458 61.5401 157.457 61.2711V51.5485C157.458 51.2795 157.565 51.0216 157.755 50.8314C157.945 50.6412 158.203 50.5342 158.472 50.5339H166.711C166.98 50.5343 167.238 50.6413 167.428 50.8315C167.618 51.0217 167.725 51.2796 167.726 51.5485V61.2711C167.725 61.5401 167.618 61.798 167.428 61.9882C167.238 62.1785 166.98 62.2854 166.711 62.2857Z" fill="#CCCCCC"/>
<path d="M183.691 69.285H158.213C157.973 69.285 157.744 69.19 157.575 69.0208C157.406 68.8517 157.311 68.6223 157.311 68.3831C157.311 68.1438 157.406 67.9144 157.575 67.7453C157.744 67.5761 157.973 67.4811 158.213 67.4811H183.691C183.931 67.4811 184.16 67.5761 184.329 67.7453C184.498 67.9144 184.593 68.1438 184.593 68.3831C184.593 68.6223 184.498 68.8517 184.329 69.0208C184.16 69.19 183.931 69.285 183.691 69.285Z" fill="#CCCCCC"/>
<path d="M183.691 74.0217H158.213C157.973 74.0217 157.744 73.9267 157.575 73.7575C157.406 73.5884 157.311 73.3589 157.311 73.1197C157.311 72.8805 157.406 72.6511 157.575 72.482C157.744 72.3128 157.973 72.2178 158.213 72.2178H183.691C183.931 72.2178 184.16 72.3128 184.329 72.482C184.498 72.6511 184.593 72.8805 184.593 73.1197C184.593 73.3589 184.498 73.5884 184.329 73.7575C184.16 73.9267 183.931 74.0217 183.691 74.0217Z" fill="#CCCCCC"/>
<path d="M183.691 78.7552H158.213C157.973 78.7552 157.744 78.6602 157.575 78.491C157.406 78.3219 157.311 78.0925 157.311 77.8533C157.311 77.614 157.406 77.3846 157.575 77.2155C157.744 77.0463 157.973 76.9513 158.213 76.9513H183.691C183.931 76.9513 184.16 77.0463 184.329 77.2155C184.498 77.3846 184.593 77.614 184.593 77.8533C184.593 78.0925 184.498 78.3219 184.329 78.491C184.16 78.6602 183.931 78.7552 183.691 78.7552Z" fill="#CCCCCC"/>
<path d="M183.691 83.4916H158.213C157.973 83.4916 157.744 83.3965 157.575 83.2274C157.406 83.0582 157.311 82.8288 157.311 82.5896C157.311 82.3504 157.406 82.121 157.575 81.9518C157.744 81.7826 157.973 81.6876 158.213 81.6876H183.691C183.931 81.6876 184.16 81.7826 184.329 81.9518C184.498 82.121 184.593 82.3504 184.593 82.5896C184.593 82.8288 184.498 83.0582 184.329 83.2274C184.16 83.3965 183.931 83.4916 183.691 83.4916Z" fill="#CCCCCC"/>
<path d="M183.691 88.2254H158.213C157.973 88.2254 157.744 88.1304 157.575 87.9613C157.406 87.7921 157.311 87.5627 157.311 87.3235C157.311 87.0843 157.406 86.8548 157.575 86.6857C157.744 86.5165 157.973 86.4215 158.213 86.4215H183.691C183.931 86.4215 184.16 86.5165 184.329 86.6857C184.498 86.8548 184.593 87.0843 184.593 87.3235C184.593 87.5627 184.498 87.7921 184.329 87.9613C184.16 88.1304 183.931 88.2254 183.691 88.2254Z" fill="#CCCCCC"/>
<path d="M144.284 95.2807H196.895C196.966 95.2807 197.035 95.2522 197.085 95.2016C197.136 95.151 197.165 95.0824 197.165 95.0108C197.165 94.9393 197.136 94.8706 197.085 94.82C197.035 94.7694 196.966 94.741 196.895 94.741H144.284C144.249 94.7408 144.213 94.7476 144.181 94.7609C144.148 94.7743 144.118 94.794 144.093 94.8189C144.068 94.8438 144.048 94.8735 144.034 94.9061C144.02 94.9388 144.013 94.9739 144.013 95.0093C144.012 95.0447 144.019 95.0799 144.033 95.1127C144.046 95.1455 144.066 95.1753 144.091 95.2005C144.116 95.2257 144.145 95.2458 144.178 95.2595C144.21 95.2733 144.246 95.2805 144.281 95.2807H144.284Z" fill="#CCCCCC"/>
<path d="M64.8072 131.003H131.67C131.761 131.003 131.848 130.967 131.913 130.903C131.977 130.838 132.013 130.751 132.013 130.66C132.013 130.569 131.977 130.482 131.913 130.418C131.848 130.353 131.761 130.317 131.67 130.317H64.8072C64.7163 130.317 64.6291 130.353 64.5648 130.418C64.5005 130.482 64.4644 130.569 64.4644 130.66C64.4644 130.751 64.5005 130.838 64.5648 130.903C64.6291 130.967 64.7163 131.003 64.8072 131.003Z" fill="#3F3D56"/>
</g>
<defs>
<clipPath id="clip0_1_760">
<rect width="286.655" height="150" fill="white"/>
</clipPath>
</defs>
</svg>
