<svg width="324" height="189" viewBox="0 0 324 189" fill="none" xmlns="http://www.w3.org/2000/svg">
<g clip-path="url(#clip0_1_851)">
<path d="M260.499 188.659H137.306V116.369L136.74 116.005L156.737 96.5286C166.844 86.6491 180.387 81.0715 194.521 80.9673L231.281 80.6313L231.334 80.6941L260.584 115.492L260.498 116.456L260.499 188.659Z" fill="#5A66DF"/>
<path d="M234.186 94.272H160.508V94.9688H234.186V94.272Z" fill="#E8EAF5"/>
<path d="M226.87 101.589H153.192V102.285H226.87V101.589Z" fill="#E8EAF5"/>
<path d="M252.474 81.8033H240.465V123.368H252.474V81.8033Z" fill="#5A66DF"/>
<path d="M259.999 188.158H195.072L195.072 140.753C195.072 140.753 195.072 140.753 195.072 140.753C195.075 129.794 198.982 119.195 206.091 110.855C206.091 110.855 206.091 110.855 206.091 110.854L231.228 81.3842L259.999 115.635V188.158Z" fill="#5A66DF" stroke="#E8EAF5"/>
<path d="M238.916 152.632H225.523V164.47H238.916V152.632Z" fill="#E8EAF5"/>
<path d="M238.916 132.142H225.523V143.792H238.916V132.142Z" fill="#E8EAF5"/>
<path d="M174.944 149.491H161.551V161.329H174.944V149.491Z" fill="#E8EAF5"/>
<path d="M174.944 129.001H161.551V140.651H174.944V129.001Z" fill="#E8EAF5"/>
<path d="M156.422 59.0001H141.848V109.449H156.422V59.0001Z" fill="#5A66DF"/>
<path d="M165.624 101.056L165.625 188.158H17.175V100.936V100.663L16.9457 100.516L16.8093 100.428L43.8133 74.1251L43.814 74.1245C53.9207 64.2453 67.4631 58.6677 81.5959 58.5637L81.5968 58.5637L130.45 58.1174L165.71 100.065L165.626 101.012L165.624 101.034V101.056Z" fill="#5A66DF" stroke="#B1B6CF"/>
<path d="M165.625 188.158H86.6804L86.6804 124.246C86.6804 124.246 86.6804 124.246 86.6804 124.245C86.6834 114.997 89.9802 106.052 95.9799 99.0132L130.635 58.3839L165.625 100.037V188.158Z" fill="#5A66DF" stroke="#E8EAF5"/>
<path d="M139.736 144.968H126.808V156.395H139.736V144.968Z" fill="#E8EAF5"/>
<path d="M139.736 125.109H126.808V136.536H139.736V125.109Z" fill="#E8EAF5"/>
<path d="M62.3208 141.155H46.0652V155.523H62.3208V141.155Z" fill="#E8EAF5"/>
<path d="M62.3208 116.286H46.0652V130.426H62.3208V116.286Z" fill="#E8EAF5"/>
<path d="M323.26 188.129H0V188.925H323.26V188.129Z" fill="#3F3D56"/>
<path d="M48.5208 173.488C54.9191 173.488 60.106 162.905 60.106 149.85C60.106 136.794 54.9191 126.211 48.5208 126.211C42.1224 126.211 36.9355 136.794 36.9355 149.85C36.9355 162.905 42.1224 173.488 48.5208 173.488Z" fill="#B1B6CF"/>
<path d="M49.5907 188.542C44.9507 160.705 49.5441 132.964 49.5907 132.688L50.4935 132.841C50.4468 133.116 45.8799 160.709 50.4935 188.392L49.5907 188.542Z" fill="#363947"/>
<path d="M58.7193 144.765L48.2432 150.369L48.675 151.176L59.1512 145.573L58.7193 144.765Z" fill="#363947"/>
<path d="M37.6193 147.572L37.1873 148.38L47.6621 153.986L48.0942 153.179L37.6193 147.572Z" fill="#363947"/>
<path d="M20.4679 167.327C29.7017 167.327 37.1872 152.054 37.1872 133.213C37.1872 114.372 29.7017 99.0989 20.4679 99.0989C11.234 99.0989 3.74854 114.372 3.74854 133.213C3.74854 152.054 11.234 167.327 20.4679 167.327Z" fill="#B1B6CF"/>
<path d="M22.33 189C15.6427 148.877 22.2624 108.9 22.33 108.5L22.9958 108.613C22.9282 109.011 16.328 148.881 22.9958 188.889L22.33 189Z" fill="#363947"/>
<path d="M35.3394 126.161L20.2202 134.248L20.5388 134.844L35.658 126.757L35.3394 126.161Z" fill="#363947"/>
<path d="M4.58296 130.214L4.26416 130.81L19.381 138.901L19.6998 138.306L4.58296 130.214Z" fill="#363947"/>
<path d="M230.583 64.5496L234.248 61.6181C231.401 61.3045 230.231 62.8567 229.754 64.0858C227.529 63.1622 225.108 64.3726 225.108 64.3726L232.441 67.0348C232.071 66.0466 231.427 65.1844 230.584 64.5492L230.583 64.5496Z" fill="#363947"/>
<path opacity="0.7" d="M195.356 41.9724L199.02 39.0409C196.173 38.7274 195.003 40.2795 194.526 41.5087C192.302 40.5851 189.88 41.7954 189.88 41.7954L197.213 44.4576C196.843 43.4695 196.198 42.6074 195.356 41.9724V41.9724Z" fill="#363947"/>
<path opacity="0.7" d="M256.597 47.4306L260.262 44.4991C257.415 44.1855 256.245 45.7376 255.768 46.9668C253.543 46.0432 251.122 47.2536 251.122 47.2536L258.455 49.9157C258.085 48.9276 257.441 48.0654 256.598 47.4302L256.597 47.4306Z" fill="#363947"/>
<path d="M100.802 183.523C99.8278 183.523 98.8705 183.78 98.0269 184.268C97.1704 183.494 96.1075 182.985 94.9673 182.803C93.8271 182.621 92.6586 182.774 91.6036 183.243C90.5486 183.712 89.6524 184.477 89.0239 185.446C88.3953 186.414 88.0613 187.544 88.0625 188.699H106.356C106.257 187.294 105.628 185.979 104.598 185.019C103.567 184.058 102.211 183.524 100.803 183.523L100.802 183.523Z" fill="#363947"/>
<path d="M195.955 183.523C194.981 183.523 194.023 183.78 193.18 184.268C192.323 183.494 191.26 182.985 190.12 182.803C188.98 182.621 187.811 182.774 186.756 183.243C185.701 183.712 184.805 184.477 184.177 185.446C183.548 186.414 183.214 187.544 183.215 188.699H201.509C201.409 187.294 200.781 185.979 199.75 185.018C198.72 184.058 197.364 183.524 195.955 183.523V183.523Z" fill="#363947"/>
<path d="M149.084 179.53H123.098V180.368H127.15V188.331H127.989V180.368H143.773V188.331H144.612V180.368H149.084L149.084 179.53Z" fill="#363947"/>
<path d="M149.135 177.022H123.149V177.86H149.135V177.022Z" fill="#363947"/>
<path d="M149.135 174.926H123.149V175.764H149.135V174.926Z" fill="#363947"/>
<path d="M304.444 175.85C310.047 175.85 314.589 166.582 314.589 155.15C314.589 143.718 310.047 134.45 304.444 134.45C298.841 134.45 294.299 143.718 294.299 155.15C294.299 166.582 298.841 175.85 304.444 175.85Z" fill="#B1B6CF"/>
<path d="M303.314 189C307.372 164.654 303.355 140.397 303.314 140.153L302.91 140.223C302.951 140.465 306.956 164.657 302.91 188.933L303.314 189Z" fill="#363947"/>
<path d="M295.418 150.867L295.225 151.229L304.401 156.139L304.594 155.778L295.418 150.867Z" fill="#363947"/>
<path d="M314.086 153.329L304.91 158.24L305.103 158.601L314.279 153.691L314.086 153.329Z" fill="#363947"/>
<path d="M292.215 179.97C292.122 180.013 292.021 180.034 291.919 180.028C291.817 180.023 291.718 179.993 291.63 179.94C291.586 179.913 291.549 179.985 291.595 180.012C291.692 180.071 291.802 180.104 291.914 180.11C292.027 180.116 292.139 180.095 292.242 180.047C292.252 180.044 292.26 180.036 292.265 180.027C292.269 180.017 292.27 180.006 292.268 179.996C292.266 179.991 292.263 179.986 292.26 179.982C292.257 179.978 292.252 179.974 292.248 179.972C292.243 179.969 292.238 179.968 292.233 179.967C292.227 179.967 292.222 179.967 292.217 179.969L292.215 179.97Z" fill="white"/>
<path d="M279.396 172.292C279.516 172.224 279.619 172.13 279.699 172.017C279.779 171.904 279.834 171.775 279.859 171.639C279.883 171.503 279.878 171.364 279.843 171.23C279.808 171.096 279.744 170.972 279.656 170.865L280.755 162.322L278.699 162.408L278.266 170.779C278.097 170.939 277.993 171.156 277.973 171.388C277.953 171.62 278.019 171.851 278.158 172.038C278.298 172.224 278.501 172.353 278.729 172.4C278.957 172.447 279.194 172.409 279.396 172.292H279.396Z" fill="#FFB6B6"/>
<path d="M288.959 162.321L289.223 166.689L287.44 171.397L286.588 170.138L287.4 165.557L287.175 162.627L288.959 162.321Z" fill="#FFB6B6"/>
<path d="M286.406 175.789L286.625 187.019L285.665 187.167L283.59 175.674L286.406 175.789Z" fill="#FFB6B6"/>
<path d="M280.181 176.332L281.683 187.462H282.655L282.946 175.787L280.181 176.332Z" fill="#FFB6B6"/>
<path d="M283.008 156.611C284.111 156.611 285.005 155.716 285.005 154.613C285.005 153.51 284.111 152.616 283.008 152.616C281.905 152.616 281.01 153.51 281.01 154.613C281.01 155.716 281.905 156.611 283.008 156.611Z" fill="#FFB6B6"/>
<path d="M286.65 169.526L287.489 171.486L286.65 174.123V176.852L283.441 176.871L283.371 173.515L282.939 176.871H279.67L279.066 170.143L279.934 168.551L286.65 169.526Z" fill="#2F2E41"/>
<path d="M282.366 157.265L282.13 157.702C282.13 157.702 280.093 158.099 279.064 159.22L280.446 162.042L279.166 170.211L286.709 169.708L286.976 163.419L288.111 159.02C288.111 159.02 286.144 157.671 285.295 157.813L284.998 157.266L282.366 157.265Z" fill="#6C63FF"/>
<path d="M281.002 159.514L279.064 159.221C279.064 159.221 278.533 162.334 278.537 163.044L280.877 163.417L281.002 159.514Z" fill="#6C63FF"/>
<path d="M287.185 159.217L288.111 159.018C288.111 159.018 288.469 160.152 289.058 162.823L286.65 163.663L287.185 159.217Z" fill="#6C63FF"/>
<path d="M282.843 188.193H279.355V188.148C279.355 187.788 279.498 187.442 279.753 187.188C280.008 186.933 280.353 186.79 280.714 186.79H282.843V188.193Z" fill="#2F2E41"/>
<path d="M287.047 187.659L283.6 188.193L283.593 188.149C283.538 187.793 283.627 187.43 283.84 187.14C284.052 186.849 284.372 186.655 284.727 186.6V186.6L286.833 186.274L287.047 187.659Z" fill="#2F2E41"/>
<path d="M283.791 155.425C283.638 155.371 283.481 155.33 283.321 155.303C283.059 155.243 282.828 155.085 282.677 154.862C282.525 154.639 282.464 154.366 282.505 154.1C282.527 154.036 282.537 153.969 282.534 153.901C282.513 153.753 282.34 153.658 282.173 153.623C282.004 153.606 281.836 153.578 281.67 153.539C281.555 153.498 281.453 153.427 281.374 153.333C281.296 153.239 281.245 153.126 281.225 153.005C281.201 152.771 281.261 152.535 281.394 152.341L281.454 152.492C281.544 152.427 281.612 152.338 281.651 152.235C281.716 152.243 281.779 152.266 281.832 152.304C281.886 152.342 281.93 152.393 281.96 152.451C282.056 152.501 282.07 152.297 282.177 152.267C282.223 152.261 282.27 152.272 282.31 152.295C282.541 152.352 282.783 152.34 283.007 152.26C283.408 152.177 283.822 152.177 284.222 152.26C284.486 152.304 284.733 152.415 284.941 152.583C285.086 152.726 285.2 152.898 285.276 153.087C285.498 153.522 285.592 154.012 285.547 154.498C285.486 154.9 285.297 155.271 285.008 155.557C284.854 155.712 284.352 156.254 284.076 156.16C283.731 156.043 284.199 155.613 283.791 155.425Z" fill="#2F2E41"/>
<path d="M258.311 171.515C258.396 171.463 258.469 171.394 258.524 171.311C258.58 171.229 258.617 171.135 258.632 171.037C258.648 170.939 258.641 170.838 258.614 170.743C258.586 170.647 258.538 170.559 258.473 170.484L259.357 161.608L257.88 161.706L257.471 170.446C257.352 170.564 257.281 170.722 257.271 170.889C257.261 171.056 257.312 171.222 257.416 171.354C257.519 171.486 257.668 171.575 257.833 171.604C257.998 171.634 258.168 171.602 258.311 171.515H258.311Z" fill="#FEB8B8"/>
<path d="M257.282 161.278L257.669 164.221L257.615 166.025L259.24 166.174L259.565 164.673L259.745 160.701C259.758 160.402 259.658 160.108 259.464 159.88C259.269 159.651 258.995 159.505 258.697 159.471C258.388 159.434 258.078 159.521 257.832 159.713C257.587 159.904 257.426 160.184 257.386 160.492L257.282 161.278Z" fill="#2F2E41"/>
<path d="M263.503 187.173H264.487L264.956 183.372H263.502L263.503 187.173Z" fill="#FEB8B8"/>
<path d="M263.252 188.129H266.429V188.089C266.429 187.761 266.299 187.446 266.067 187.214C265.835 186.982 265.521 186.852 265.193 186.852H263.252L263.252 188.129Z" fill="#2F2E41"/>
<path d="M255.366 187.173H256.352L256.821 183.372H255.366V187.173Z" fill="#FEB8B8"/>
<path d="M255.115 188.129H258.292V188.089C258.292 187.761 258.162 187.446 257.93 187.214C257.698 186.982 257.384 186.852 257.056 186.852H255.115L255.115 188.129Z" fill="#2F2E41"/>
<path d="M259.198 158.072C260.378 158.072 261.335 157.115 261.335 155.935C261.335 154.756 260.378 153.799 259.198 153.799C258.018 153.799 257.062 154.756 257.062 155.935C257.062 157.115 258.018 158.072 259.198 158.072Z" fill="#FEB8B8"/>
<path d="M259.474 158.939L257.992 159.109C257.631 159.62 257.398 160.209 257.31 160.829C257.222 161.448 257.283 162.08 257.487 162.671L258.606 165.907C258.606 165.907 257.053 169.021 257.053 171.911C257.053 174.801 254.096 185.119 254.096 185.119L258.259 185.553L260.075 174.562L262.579 185.509L265.436 185.044L263.862 170.69L262.822 165.966L262.778 163.665C262.778 163.665 263.22 161.936 262.114 160.83L260.762 158.948L259.474 158.939Z" fill="#2F2E41"/>
<path d="M261.689 155.173H258.548V153.804C259.237 153.53 259.911 153.297 260.319 153.804C260.682 153.804 261.03 153.948 261.287 154.205C261.543 154.462 261.687 154.81 261.687 155.173H261.689Z" fill="#2F2E41"/>
<path d="M258.377 153.563C256.5 153.563 255.975 155.915 255.975 157.242C255.975 157.982 256.309 158.247 256.835 158.336L257.021 157.346L257.456 158.379C257.604 158.379 257.759 158.377 257.92 158.374L258.067 158.07L258.396 158.369C259.713 158.371 260.778 158.563 260.778 157.242C260.777 155.915 260.317 153.563 258.377 153.563Z" fill="#2F2E41"/>
<path opacity="0.2" d="M261.151 166.556L261.23 163.11L261.439 161.58L261.96 163.096L261.151 166.556Z" fill="black"/>
<path d="M257.551 165.923H257.551C257.053 165.921 256.576 165.723 256.225 165.371C255.873 165.019 255.675 164.542 255.674 164.044V160.518C255.676 160.02 255.874 159.544 256.225 159.192C256.577 158.841 257.053 158.642 257.551 158.641C258.222 158.642 258.866 158.909 259.341 159.384C259.816 159.859 260.083 160.503 260.084 161.174V163.39C260.083 164.061 259.816 164.705 259.341 165.18C258.866 165.655 258.222 165.922 257.551 165.923V165.923Z" fill="#6C63FF"/>
<path d="M261.731 163.443C262.202 162.845 262.451 162.102 262.434 161.342C262.434 159.812 261.523 158.568 260.404 158.568C260.082 158.584 259.769 158.684 259.497 158.856C259.225 159.029 259.002 159.269 258.85 159.554L259.018 159.658C259.153 159.403 259.351 159.187 259.594 159.03C259.837 158.874 260.115 158.783 260.404 158.767C261.414 158.767 262.236 159.922 262.236 161.342C262.253 162.056 262.021 162.753 261.58 163.315L261.731 163.443Z" fill="#6C63FF"/>
<path d="M260.769 171.873C260.859 171.812 260.935 171.731 260.991 171.638C261.046 171.544 261.081 171.439 261.092 171.331C261.103 171.223 261.09 171.113 261.055 171.01C261.019 170.907 260.961 170.813 260.885 170.735L261.325 160.971L259.715 161.167L259.787 170.753C259.664 170.89 259.595 171.067 259.594 171.25C259.593 171.434 259.659 171.612 259.78 171.75C259.901 171.888 260.069 171.976 260.251 171.999C260.433 172.022 260.617 171.977 260.769 171.873V171.873Z" fill="#FEB8B8"/>
<path d="M259.034 160.735L259.633 163.932L259.681 165.909L261.467 165.975L261.734 164.314L261.694 159.959C261.691 159.631 261.564 159.315 261.338 159.077C261.111 158.839 260.803 158.695 260.475 158.675C260.135 158.654 259.8 158.768 259.543 158.992C259.286 159.215 259.127 159.531 259.101 159.871L259.034 160.735Z" fill="#2F2E41"/>
<path d="M244.236 179.53H218.25V180.368H222.303V188.331H223.141V180.368H238.926V188.331H239.764V180.368H244.236L244.236 179.53Z" fill="#363947"/>
<path d="M244.287 177.022H218.301V177.86H244.287V177.022Z" fill="#363947"/>
<path d="M244.287 174.926H218.301V175.764H244.287V174.926Z" fill="#363947"/>
<path d="M144.991 170.192C146.015 170.192 146.844 169.363 146.844 168.34C146.844 167.316 146.015 166.487 144.991 166.487C143.968 166.487 143.138 167.316 143.138 168.34C143.138 169.363 143.968 170.192 144.991 170.192Z" fill="#A0616A"/>
<path d="M148.662 187.208H149.611L150.064 183.55H148.662V187.208Z" fill="#A0616A"/>
<path d="M148.421 186.899H150.288C150.604 186.899 150.907 187.025 151.13 187.248C151.353 187.471 151.479 187.774 151.479 188.089V188.128H148.421V186.899Z" fill="#2F2E41"/>
<path d="M144.991 185.264L144.223 185.821L141.714 183.122L142.848 182.302L144.991 185.264Z" fill="#A0616A"/>
<path d="M145.726 185.869L143.248 187.662L143.225 187.631C143.04 187.375 142.964 187.056 143.014 186.744C143.064 186.433 143.236 186.154 143.492 185.968L145.005 184.873L145.726 185.869Z" fill="#2F2E41"/>
<path d="M146.029 171.045C145.725 170.833 145.364 170.719 144.993 170.719C144.623 170.719 144.262 170.833 143.958 171.045L143.213 177.256H145.449L145.781 175.27L146.526 172.289L146.029 171.045Z" fill="#6C63FF"/>
<path d="M148.269 180.638L144.256 179.328L142.343 180.846L144.375 183.953L143.312 185.346L143.282 185.311C143.15 185.161 140.052 181.621 140.061 180.617C140.084 179.935 140.199 179.26 140.403 178.61L141.41 177.181L142.838 176.761L147.567 177.423H147.575L149.485 178.586C149.674 178.708 149.834 178.871 149.952 179.063C150.069 179.255 150.142 179.471 150.165 179.695C150.247 180.433 150.412 186.347 150.414 186.407V186.445H148.354L148.269 180.638Z" fill="#2F2E41"/>
<path d="M145.725 179.154C145.028 178.844 144.137 177.633 143.99 177.429C143.703 177.585 141.61 178.704 141.02 178.416C140.764 178.546 140.569 178.771 140.477 179.044L140.46 179.131L140.409 179.057C140.4 179.044 139.491 177.692 140.667 176.852C141.282 176.459 141.766 175.893 142.058 175.224L141.476 172.149L141.491 172.135C141.539 172.09 142.671 171.048 143.705 170.924L144.342 170.812L144.37 173.239V176.346C144.885 176.281 145.7 170.852 145.7 170.852L146.126 171.008C146.236 171.03 147.472 171.277 147.801 171.769L147.811 171.785L146.687 174.825L146.358 175.321V175.954L148.28 177.627L148.253 177.655C148.187 177.725 146.77 179.198 145.945 179.197C145.869 179.198 145.794 179.183 145.725 179.154V179.154Z" fill="#3F3D56"/>
<path d="M144.525 179.706C144.538 179.601 144.574 179.5 144.631 179.41C144.688 179.32 144.763 179.244 144.852 179.187C144.941 179.129 145.042 179.092 145.147 179.078C145.252 179.064 145.359 179.073 145.46 179.104L146.522 177.831L147.453 178.288L145.928 180.065C145.864 180.232 145.741 180.369 145.582 180.451C145.424 180.533 145.24 180.554 145.067 180.51C144.894 180.465 144.743 180.359 144.643 180.211C144.543 180.063 144.501 179.883 144.525 179.706V179.706Z" fill="#A0616A"/>
<path d="M145.275 178.627L146.941 176.378L146.529 174.148L147.199 171.637L147.215 171.63C147.398 171.551 147.602 171.537 147.793 171.59C147.843 171.611 147.888 171.641 147.925 171.68C147.963 171.719 147.992 171.765 148.01 171.816C148.176 172.23 148.576 176.45 148.593 176.637C148.558 177.037 148.473 177.431 148.34 177.81C148.174 178.142 146.66 179.817 146.596 179.889L146.569 179.918L145.275 178.627Z" fill="#3F3D56"/>
<path d="M146.583 167.863C145.966 168.638 144.911 168.496 144.064 168.211C144.113 168.832 143.944 169.451 143.587 169.961C143.696 169.521 143.236 169.433 142.967 169.27C142.863 169.139 142.95 168.944 142.907 168.782C142.425 168.217 142.106 167.79 142.725 167.127C143.087 166.642 143.522 166.037 144.212 166.164C144.758 165.527 145.653 165.693 146.264 166.138C146.539 166.341 146.788 166.576 147.008 166.838C146.938 167.181 146.807 167.51 146.622 167.808" fill="#2F2E41"/>
<path d="M145.167 180.247C145.153 180.142 145.117 180.041 145.061 179.951C145.004 179.862 144.929 179.785 144.84 179.728C144.75 179.671 144.65 179.634 144.545 179.619C144.439 179.605 144.333 179.614 144.231 179.646L143.169 178.373L142.238 178.829L143.763 180.606C143.828 180.773 143.951 180.91 144.109 180.992C144.268 181.074 144.451 181.095 144.624 181.051C144.798 181.007 144.948 180.901 145.048 180.752C145.148 180.604 145.19 180.425 145.167 180.248V180.247Z" fill="#A0616A"/>
<path d="M143.108 180.019C143.013 179.95 140.779 178.269 140.529 177.77C140.28 177.271 140.341 175.79 140.345 175.722C140.515 174.654 140.756 173.599 141.067 172.563C141.11 172.451 141.174 172.348 141.257 172.261C141.339 172.173 141.438 172.103 141.548 172.054C141.658 172.005 141.776 171.978 141.896 171.974C142.016 171.971 142.136 171.991 142.248 172.034C142.257 172.037 142.266 172.041 142.275 172.045L142.301 172.055L141.927 176.417L143.967 179.122L143.136 180.04L143.108 180.019Z" fill="#3F3D56"/>
<path d="M139.873 85.5978L136.748 78.349L130.476 78.4608L126.672 85.6875L126.748 85.7839H126.721V100.816H139.864V85.7839L139.873 85.5978Z" fill="#E8EAF5"/>
<path d="M237.553 103.742L235.028 98.4432L229.96 98.5249L226.886 103.807L226.948 103.878H226.926V114.865H237.547V103.878L237.553 103.742Z" fill="#F2F2F2"/>
<path d="M115.58 75.1833H41.9023V75.8802H115.58V75.1833Z" fill="#E8EAF5"/>
<path d="M108.264 82.4999H34.5857V83.1967H108.264V82.4999Z" fill="#E8EAF5"/>
<path d="M252.474 83.8207H240.465V84.5175H252.474V83.8207Z" fill="#E8EAF5"/>
<path d="M252.474 91.1372H240.465V91.834H252.474V91.1372Z" fill="#E8EAF5"/>
<path d="M156.422 61.5226H141.848V62.2194H156.422V61.5226Z" fill="#E8EAF5"/>
<path d="M156.422 68.8391H141.848V69.5359H156.422V68.8391Z" fill="#E8EAF5"/>
</g>
<g clip-path="url(#clip1_1_851)">
<path d="M189.615 19.123C182.372 11.879 172.725 7.89001 162.454 7.89001C152.183 7.89001 142.537 11.878 135.293 19.123C134.902 19.514 134.902 20.146 135.293 20.537C135.684 20.928 136.316 20.928 136.707 20.537C143.573 13.67 152.717 9.88901 162.454 9.88901C172.191 9.88901 181.335 13.67 188.201 20.536C188.396 20.731 188.652 20.829 188.908 20.829C189.164 20.829 189.42 20.731 189.615 20.536C190.006 20.146 190.006 19.513 189.615 19.123Z" fill="#5A66DF"/>
<path d="M141.171 25C140.78 25.391 140.78 26.023 141.171 26.414C141.366 26.609 141.622 26.707 141.878 26.707C142.134 26.707 142.39 26.609 142.585 26.414C153.54 15.458 171.366 15.458 182.322 26.414C182.713 26.805 183.345 26.805 183.736 26.414C184.127 26.023 184.127 25.391 183.736 25C172.002 13.266 152.907 13.264 141.171 25Z" fill="#5A66DF"/>
<path d="M162.454 24.5081C156.629 24.5081 151.159 26.7711 147.05 30.8791C146.659 31.2701 146.659 31.9021 147.05 32.2931C147.441 32.6841 148.073 32.6841 148.464 32.2931C152.195 28.5631 157.163 26.5081 162.454 26.5081C167.745 26.5081 172.713 28.5631 176.444 32.2931C176.639 32.4881 176.895 32.5861 177.151 32.5861C177.407 32.5861 177.663 32.4881 177.858 32.2931C178.249 31.9021 178.249 31.2701 177.858 30.8791C173.75 26.7711 168.279 24.5081 162.454 24.5081Z" fill="#5A66DF"/>
<path d="M162.454 33.916C158.842 33.916 155.903 36.855 155.903 40.468C155.903 44.081 158.842 47.02 162.454 47.02C166.067 47.02 169.006 44.081 169.006 40.468C169.006 36.855 166.067 33.916 162.454 33.916ZM162.454 45.019C159.944 45.019 157.903 42.977 157.903 40.467C157.903 37.957 159.945 35.915 162.454 35.915C164.963 35.915 167.006 37.957 167.006 40.467C167.006 42.977 164.964 45.019 162.454 45.019Z" fill="#5A66DF"/>
</g>
<defs>
<clipPath id="clip0_1_851">
<rect width="323.26" height="150" fill="white" transform="translate(0 39)"/>
</clipPath>
<clipPath id="clip1_1_851">
<rect width="54.908" height="54.908" fill="white" transform="translate(135)"/>
</clipPath>
</defs>
</svg>
