<svg width="301" height="180" viewBox="0 0 301 180" fill="none" xmlns="http://www.w3.org/2000/svg">
<g clip-path="url(#clip0_764_2)">
<path d="M116.63 161.276C115.013 161.844 113.278 161.986 111.591 161.689C109.903 161.392 108.321 160.665 106.996 159.579C103.622 156.747 102.564 152.081 101.703 147.761L99.157 134.982L104.487 138.652C108.321 141.292 112.24 144.016 114.895 147.839C117.549 151.662 118.707 156.881 116.575 161.018" fill="#E6E6E6"/>
<path d="M116.174 176.747C116.713 172.817 117.268 168.837 116.89 164.865C116.554 161.338 115.478 157.892 113.287 155.067C112.124 153.57 110.708 152.288 109.105 151.278C108.687 151.014 108.302 151.677 108.718 151.939C111.493 153.693 113.639 156.283 114.847 159.335C116.182 162.729 116.396 166.428 116.166 170.034C116.027 172.214 115.732 174.38 115.435 176.543C115.412 176.641 115.426 176.744 115.476 176.832C115.526 176.919 115.607 176.985 115.703 177.015C115.801 177.041 115.905 177.028 115.993 176.978C116.082 176.928 116.146 176.845 116.174 176.747Z" fill="#F2F2F2"/>
<path d="M110.977 169.793C110.284 170.847 109.331 171.704 108.211 172.283C107.09 172.861 105.839 173.141 104.579 173.096C101.34 172.942 98.6391 170.681 96.2082 168.535L89.0181 162.187L93.7767 161.959C97.1989 161.795 100.709 161.642 103.969 162.698C107.228 163.753 110.234 166.293 110.83 169.667" fill="#E6E6E6"/>
<path d="M117.699 179.006C115.102 174.411 112.09 169.305 106.708 167.673C105.211 167.22 103.642 167.058 102.085 167.195C101.594 167.238 101.717 167.994 102.207 167.952C104.817 167.735 107.422 168.425 109.584 169.904C111.664 171.32 113.284 173.288 114.655 175.376C115.494 176.654 116.246 177.987 116.999 179.318C117.239 179.744 117.942 179.437 117.699 179.006V179.006Z" fill="#F2F2F2"/>
<path d="M187.299 86.9603L130.686 133.882C129.973 134.471 129.056 134.754 128.136 134.667C127.216 134.581 126.367 134.134 125.777 133.423L101.911 104.628C101.322 103.915 101.04 102.998 101.126 102.078C101.212 101.158 101.66 100.309 102.371 99.7186L158.985 52.7968C159.697 52.2078 160.614 51.9254 161.534 52.0115C162.454 52.0977 163.303 52.5454 163.894 53.2564L187.759 82.0513C188.348 82.7637 188.63 83.6806 188.544 84.6009C188.458 85.5212 188.01 86.3697 187.299 86.9603Z" fill="#CCCCCC"/>
<path d="M185.031 85.5475L129.718 131.391C129.352 131.694 128.879 131.839 128.405 131.795C127.931 131.751 127.494 131.52 127.19 131.154L104.403 103.66C104.099 103.293 103.954 102.821 103.998 102.347C104.043 101.873 104.273 101.436 104.64 101.131L159.952 55.2884C160.319 54.9849 160.791 54.8394 161.265 54.8838C161.739 54.9282 162.177 55.1588 162.481 55.5251L185.268 83.0186C185.571 83.3855 185.716 83.8579 185.672 84.332C185.628 84.8061 185.397 85.2432 185.031 85.5475Z" fill="white"/>
<path d="M187.581 95.1439L176.204 94.079L184.347 87.6707L188.733 92.9629C188.904 93.1649 189.01 93.4138 189.037 93.6771C189.064 93.9404 189.012 94.2057 188.885 94.4384C188.803 94.5964 188.69 94.7365 188.553 94.8506C188.418 94.9614 188.263 95.0444 188.096 95.0947C187.929 95.145 187.754 95.1618 187.581 95.1439Z" fill="#CCCCCC"/>
<path d="M164.735 74.7667L136.753 97.958C136.582 98.0996 136.385 98.2062 136.173 98.2717C135.961 98.3371 135.738 98.3602 135.517 98.3395C135.296 98.3188 135.081 98.2548 134.885 98.1511C134.689 98.0474 134.515 97.9061 134.373 97.7352C134.232 97.5642 134.125 97.3671 134.06 97.155C133.994 96.9429 133.971 96.72 133.992 96.4989C134.012 96.2779 134.076 96.0632 134.18 95.8669C134.284 95.6706 134.425 95.4967 134.596 95.355L162.578 72.1638C162.749 72.0221 162.946 71.9155 163.158 71.8501C163.37 71.7846 163.593 71.7616 163.814 71.7823C164.035 71.8029 164.25 71.867 164.446 71.9707C164.642 72.0744 164.816 72.2157 164.958 72.3866C165.099 72.5575 165.206 72.7547 165.271 72.9668C165.337 73.1789 165.36 73.4018 165.339 73.6228C165.319 73.8438 165.255 74.0586 165.151 74.2549C165.047 74.4512 164.906 74.6251 164.735 74.7667Z" fill="#CCCCCC"/>
<path d="M151.04 76.786L132.169 92.4266C131.824 92.7127 131.379 92.8499 130.933 92.8081C130.486 92.7664 130.075 92.549 129.789 92.2038C129.503 91.8586 129.366 91.414 129.407 90.9676C129.449 90.5212 129.667 90.1098 130.012 89.8237L148.883 74.1831C149.228 73.897 149.673 73.7598 150.119 73.8016C150.566 73.8433 150.977 74.0607 151.263 74.4059C151.549 74.7511 151.686 75.1957 151.645 75.6421C151.603 76.0885 151.385 76.4999 151.04 76.786Z" fill="#CCCCCC"/>
<path d="M121.799 108.773C124.717 108.773 127.082 106.408 127.082 103.491C127.082 100.574 124.717 98.2085 121.799 98.2085C118.882 98.2085 116.517 100.574 116.517 103.491C116.517 106.408 118.882 108.773 121.799 108.773Z" fill="#5A66DF"/>
<path d="M163.819 92.9025C164.752 92.9025 165.509 92.1457 165.509 91.2121C165.509 90.2785 164.752 89.5217 163.819 89.5217C162.885 89.5217 162.128 90.2785 162.128 91.2121C162.128 92.1457 162.885 92.9025 163.819 92.9025Z" fill="#E6E6E6"/>
<path d="M168.374 89.1271C169.307 89.1271 170.064 88.3703 170.064 87.4367C170.064 86.5031 169.307 85.7463 168.374 85.7463C167.44 85.7463 166.683 86.5031 166.683 87.4367C166.683 88.3703 167.44 89.1271 168.374 89.1271Z" fill="#E6E6E6"/>
<path d="M172.929 85.3519C173.862 85.3519 174.619 84.5951 174.619 83.6615C174.619 82.728 173.862 81.9712 172.929 81.9712C171.995 81.9712 171.238 82.728 171.238 83.6615C171.238 84.5951 171.995 85.3519 172.929 85.3519Z" fill="#E6E6E6"/>
<path d="M145.986 176.063L149.867 176.062L151.713 161.094L145.986 161.094L145.986 176.063Z" fill="#FFB8B8"/>
<path d="M144.997 174.796L152.639 174.795H152.639C153.279 174.795 153.912 174.921 154.503 175.166C155.094 175.411 155.631 175.77 156.083 176.222C156.536 176.674 156.894 177.211 157.139 177.802C157.384 178.393 157.51 179.026 157.51 179.666V179.824L144.997 179.824L144.997 174.796Z" fill="#2F2E41"/>
<path d="M132.059 176.063L135.94 176.062L137.786 161.094L132.058 161.094L132.059 176.063Z" fill="#FFB8B8"/>
<path d="M131.069 174.796L138.712 174.795H138.712C139.351 174.795 139.985 174.921 140.576 175.166C141.167 175.411 141.703 175.77 142.156 176.222C142.608 176.674 142.967 177.211 143.212 177.802C143.456 178.393 143.582 179.026 143.582 179.666V179.824L131.069 179.824L131.069 174.796Z" fill="#2F2E41"/>
<path d="M135.953 171.483H135.953L132.652 171.482C132.283 171.483 131.928 171.34 131.662 171.084C131.397 170.827 131.242 170.478 131.23 170.109L131.126 167.221C130.291 144.133 129.429 120.259 134.771 109.528L134.813 109.443L152.501 108.803L156.053 141.378C156.204 142.768 156.149 144.172 155.888 145.545L151.194 170.282C151.13 170.618 150.948 170.919 150.681 171.132C150.414 171.344 150.079 171.454 149.738 171.44L146.032 171.32C145.837 171.312 145.647 171.265 145.472 171.181C145.297 171.097 145.14 170.978 145.013 170.832C144.885 170.685 144.789 170.514 144.73 170.329C144.671 170.144 144.651 169.949 144.67 169.755L147.582 146.876C147.681 145.889 147.591 144.891 147.318 143.937L143.696 131.278C143.666 131.173 143.601 131.082 143.512 131.019C143.423 130.957 143.315 130.927 143.206 130.935C143.098 130.942 142.995 130.987 142.915 131.061C142.836 131.136 142.784 131.235 142.769 131.343L137.364 170.254C137.315 170.594 137.146 170.905 136.887 171.131C136.628 171.357 136.297 171.481 135.953 171.483Z" fill="#2F2E41"/>
<path d="M138.068 76.2355C142.362 76.2355 145.843 72.7547 145.843 68.461C145.843 64.1673 142.362 60.6865 138.068 60.6865C133.775 60.6865 130.294 64.1673 130.294 68.461C130.294 72.7547 133.775 76.2355 138.068 76.2355Z" fill="#FFB8B8"/>
<path d="M151.672 111.208H135.585C135.38 111.208 135.178 111.164 134.992 111.079C134.807 110.994 134.641 110.87 134.507 110.715C134.374 110.561 134.275 110.379 134.217 110.183C134.16 109.986 134.146 109.78 134.175 109.578L134.97 104.134L130.303 91.2977C129.821 89.9725 129.642 88.5563 129.779 87.1528C129.916 85.7494 130.365 84.3945 131.094 83.1873C131.823 81.9802 132.813 80.9516 133.991 80.1768C135.169 79.4021 136.506 78.9009 137.903 78.7101C139.893 78.4325 141.92 78.7994 143.687 79.7572C145.454 80.715 146.868 82.2134 147.722 84.0328L148.747 86.2139L153.073 109.524C153.111 109.73 153.103 109.941 153.051 110.143C152.998 110.346 152.901 110.534 152.768 110.694C152.634 110.855 152.466 110.985 152.277 111.073C152.088 111.162 151.881 111.208 151.672 111.208H151.672Z" fill="#5A66DF"/>
<path d="M117.712 124.862C118.196 124.75 118.65 124.532 119.041 124.226C119.432 123.919 119.752 123.53 119.976 123.087C120.201 122.643 120.326 122.156 120.341 121.659C120.357 121.162 120.264 120.668 120.069 120.211L132.604 91.8894L125.433 90.0833L115.366 118.49C114.62 118.87 114.039 119.51 113.734 120.289C113.429 121.068 113.42 121.933 113.709 122.718C113.998 123.504 114.565 124.156 115.303 124.551C116.041 124.946 116.898 125.057 117.712 124.862H117.712Z" fill="#FFB8B8"/>
<path d="M130.907 96.9547L123.933 93.6901C123.734 93.5972 123.558 93.4626 123.417 93.2955C123.275 93.1285 123.171 92.9328 123.111 92.7219C123.052 92.5109 123.039 92.2897 123.073 92.0732C123.107 91.8568 123.187 91.6501 123.308 91.4675L127.547 85.0662C128.028 84.0543 128.891 83.2744 129.946 82.8976C131.001 82.5207 132.163 82.5775 133.177 83.0555C134.19 83.5336 134.973 84.3939 135.353 85.4479C135.734 86.502 135.681 87.6639 135.206 88.679L133.014 96.0109C132.952 96.2208 132.844 96.4147 132.7 96.5794C132.555 96.7441 132.377 96.8757 132.177 96.9653C131.977 97.0548 131.76 97.1003 131.541 97.0984C131.322 97.0966 131.106 97.0476 130.907 96.9547H130.907Z" fill="#5A66DF"/>
<path d="M170.004 51.9831C170.156 52.4566 170.202 52.9575 170.138 53.4506C170.075 53.9437 169.905 54.417 169.639 54.8371C169.373 55.2571 169.018 55.6138 168.6 55.882C168.181 56.1501 167.709 56.3232 167.216 56.3891L149.31 81.6597L144.086 76.4253L163.33 53.231C163.274 52.3959 163.527 51.5694 164.04 50.908C164.553 50.2466 165.29 49.7963 166.113 49.6425C166.936 49.4886 167.786 49.642 168.503 50.0733C169.221 50.5047 169.755 51.1842 170.004 51.9831Z" fill="#FFB8B8"/>
<path d="M153.451 78.6935C153.476 78.9111 153.455 79.1317 153.387 79.3401C153.32 79.5486 153.208 79.7401 153.06 79.9014L147.885 85.5387C147.256 86.467 146.285 87.1082 145.185 87.3217C144.084 87.5352 142.944 87.3035 142.014 86.6775C141.084 86.0516 140.44 85.0823 140.224 83.9824C140.007 82.8825 140.236 81.7416 140.859 80.8099L144.187 73.8911C144.282 73.6937 144.418 73.519 144.587 73.379C144.755 73.2391 144.952 73.1371 145.164 73.08C145.375 73.0229 145.596 73.0121 145.813 73.0483C146.029 73.0845 146.234 73.1668 146.416 73.2897L152.791 77.6083C152.973 77.7311 153.126 77.8916 153.24 78.0789C153.353 78.2662 153.425 78.4758 153.451 78.6935Z" fill="#5A66DF"/>
<path d="M148.284 65.2067C148.279 64.5031 148.181 63.8032 147.993 63.1252C146.74 58.4966 142.116 55.7186 137.476 56.4157C136.573 56.157 135.639 56.0262 134.7 56.0271C132.312 56.0271 130.002 56.8811 128.188 58.4349C126.375 59.9887 125.176 62.1398 124.81 64.4999L121.061 88.6305H141.32L144.591 67.5726C144.712 66.7901 144.741 65.9959 144.676 65.2067H148.284Z" fill="#2F2E41"/>
<path d="M173.463 180H106.673C106.589 180 106.509 179.967 106.449 179.907C106.39 179.848 106.357 179.767 106.357 179.683C106.357 179.6 106.39 179.519 106.449 179.46C106.509 179.4 106.589 179.367 106.673 179.367H173.463C173.547 179.367 173.627 179.4 173.686 179.46C173.746 179.519 173.779 179.6 173.779 179.683C173.779 179.767 173.746 179.848 173.686 179.907C173.627 179.967 173.547 180 173.463 180Z" fill="#CCCCCC"/>
<path d="M240.749 24.5847C241.212 24.5401 241.68 24.5977 242.118 24.7532C242.557 24.9088 242.956 25.1587 243.287 25.4852C243.619 25.8117 243.875 26.2069 244.037 26.6431C244.199 27.0792 244.264 27.5456 244.227 28.0094L254.58 32.566L249.641 35.7538L240.567 30.9381C239.792 30.8235 239.086 30.4286 238.582 29.8282C238.079 29.2278 237.814 28.4636 237.836 27.6805C237.858 26.8973 238.167 26.1496 238.704 25.5791C239.241 25.0085 239.969 24.6547 240.749 24.5847V24.5847Z" fill="#A0616A"/>
<path d="M282.51 18.9008C286.804 18.9008 290.285 15.42 290.285 11.1263C290.285 6.83257 286.804 3.35181 282.51 3.35181C278.217 3.35181 274.736 6.83257 274.736 11.1263C274.736 15.42 278.217 18.9008 282.51 18.9008Z" fill="#A0616A"/>
<path d="M268.44 121.982L264.559 121.982L262.713 107.013L268.44 107.014L268.44 121.982Z" fill="#A0616A"/>
<path d="M269.429 125.744L256.917 125.743V125.585C256.916 124.946 257.042 124.312 257.287 123.721C257.532 123.13 257.891 122.594 258.343 122.141C258.795 121.689 259.332 121.33 259.923 121.086C260.514 120.841 261.147 120.715 261.787 120.715H261.787L269.43 120.715L269.429 125.744Z" fill="#2F2E41"/>
<path d="M284.583 121.982L280.702 121.982L278.856 107.013L284.584 107.014L284.583 121.982Z" fill="#A0616A"/>
<path d="M285.573 125.744L273.06 125.743V125.585C273.06 124.946 273.186 124.312 273.431 123.721C273.675 123.13 274.034 122.594 274.486 122.141C274.939 121.689 275.475 121.33 276.066 121.086C276.657 120.841 277.291 120.715 277.93 120.715H277.931L285.573 120.715L285.573 125.744Z" fill="#2F2E41"/>
<path d="M284.399 118.794C284.341 118.794 284.283 118.79 284.225 118.783L278.545 118.084C278.212 118.043 277.904 117.887 277.676 117.641C277.448 117.396 277.313 117.078 277.296 116.743L275.641 79.4666C275.635 79.3608 275.595 79.26 275.525 79.1801C275.455 79.1002 275.361 79.0459 275.257 79.0257C275.153 79.0056 275.046 79.0208 274.951 79.0689C274.857 79.117 274.781 79.1953 274.737 79.2913L270.484 93.4672L269.608 116.238C269.601 116.434 269.553 116.627 269.467 116.804C269.382 116.981 269.26 117.138 269.111 117.265C268.962 117.393 268.787 117.489 268.599 117.546C268.411 117.603 268.214 117.62 268.018 117.597L263.099 117.018C262.748 116.978 262.424 116.808 262.191 116.541C261.958 116.274 261.834 115.93 261.842 115.576L262.259 94.142L265.592 60.4966L265.741 60.5021L286.006 61.2833L285.824 117.374C285.822 117.751 285.672 118.112 285.405 118.378C285.138 118.644 284.776 118.794 284.399 118.794H284.399Z" fill="#2F2E41"/>
<path d="M285.238 64.358C285.226 64.358 285.214 64.358 285.201 64.3576L264.791 63.8229C264.591 63.8176 264.394 63.7703 264.214 63.684C264.033 63.5976 263.873 63.4742 263.743 63.3218C263.614 63.1693 263.518 62.9913 263.461 62.7992C263.405 62.6072 263.39 62.4054 263.417 62.2071L267.339 33.3416C267.584 31.3925 268.237 29.5171 269.256 27.8376C270.275 26.1581 271.636 24.7124 273.252 23.5948C274.673 22.6165 276.287 21.9537 277.985 21.6509C279.684 21.348 281.427 21.4122 283.099 21.839C290.223 23.6442 294.497 31.294 292.626 38.8915L286.622 63.2742C286.544 63.5828 286.366 63.8568 286.116 64.053C285.865 64.2493 285.557 64.3566 285.238 64.358Z" fill="#3F3D56"/>
<path d="M258.462 41.4361C257.117 41.4377 255.801 41.0466 254.675 40.3109L242.773 32.5019C242.599 32.3876 242.451 32.2365 242.342 32.0592C242.233 31.8819 242.163 31.6828 242.139 31.4758C242.115 31.2689 242.137 31.0591 242.202 30.8614C242.268 30.6637 242.377 30.4828 242.52 30.3316L244.313 28.4385C244.508 28.231 244.762 28.0872 245.04 28.0258C245.319 27.9645 245.609 27.9884 245.874 28.0945L259.169 33.3888L271.485 24.5934C272.061 24.1822 272.716 23.8949 273.409 23.7499C274.101 23.6049 274.817 23.6052 275.509 23.7508C276.202 23.8964 276.856 24.1842 277.432 24.596C278.007 25.0077 278.491 25.5344 278.853 26.1427C279.214 26.7511 279.446 27.4279 279.532 28.1302C279.618 28.8326 279.558 29.5453 279.355 30.2231C279.152 30.901 278.81 31.5293 278.352 32.0683C277.893 32.6073 277.328 33.0452 276.691 33.3545L261.469 40.748C260.532 41.2019 259.504 41.4372 258.462 41.4361Z" fill="#3F3D56"/>
<path d="M285.204 18.5611C286.531 18.8742 288.131 19.1146 289.079 18.1354C289.247 17.9505 289.397 17.7502 289.527 17.5371L290.766 15.645C291.716 14.1956 292.682 12.7084 293.083 11.023C293.314 10.0545 293.35 9.04984 293.19 8.06729C293.029 7.08474 292.675 6.14391 292.147 5.29946C291.62 4.45501 290.93 3.72376 290.118 3.1482C289.305 2.57264 288.387 2.16423 287.415 1.9467C285.565 1.53241 283.754 0.819586 281.862 0.949613C279.971 1.07964 277.752 1.03695 276.165 0C276.264 0.462291 276.799 2.50489 276.799 2.50489C276.799 2.50489 274.412 4.69491 273.933 5.24099C274.559 4.96317 275.241 4.83273 275.926 4.85968C276.611 4.88664 277.281 5.07028 277.884 5.39648C278.487 5.72268 279.007 6.18277 279.404 6.74139C279.802 7.3 280.066 7.94227 280.176 8.61883C280.311 9.45001 280.232 10.3718 280.726 11.054C281.195 11.7028 282.038 11.9302 282.746 12.3048C283.766 12.8863 284.546 13.8133 284.943 14.9186C285.34 16.024 285.33 17.235 284.913 18.3332L285.204 18.5611Z" fill="#2F2E41"/>
<path d="M275.87 67.1424H211.426C210.616 67.1415 209.839 66.8192 209.267 66.2464C208.694 65.6736 208.372 64.8969 208.371 64.0868V31.3094C208.372 30.4993 208.694 29.7227 209.267 29.1499C209.839 28.577 210.616 28.2548 211.426 28.2539H275.87C276.68 28.2548 277.457 28.577 278.029 29.1499C278.602 29.7227 278.924 30.4993 278.925 31.3094V64.0868C278.924 64.8969 278.602 65.6736 278.029 66.2464C277.457 66.8192 276.68 67.1415 275.87 67.1424Z" fill="#CCCCCC"/>
<path d="M275.129 64.9201H212.167C211.75 64.9197 211.349 64.7537 211.054 64.4586C210.759 64.1635 210.593 63.7634 210.593 63.3461V32.0501C210.593 31.6328 210.759 31.2327 211.054 30.9376C211.349 30.6425 211.75 30.4765 212.167 30.4761H275.129C275.546 30.4765 275.947 30.6425 276.242 30.9376C276.537 31.2327 276.703 31.6328 276.703 32.0501V63.3461C276.703 63.7634 276.537 64.1635 276.242 64.4586C275.947 64.7537 275.546 64.9197 275.129 64.9201Z" fill="white"/>
<path d="M271.483 72.8217L264.402 65.7407L273.48 65.9702V71.9945C273.482 72.2264 273.415 72.4537 273.286 72.6465C273.157 72.8394 272.973 72.9889 272.758 73.0754C272.614 73.1357 272.459 73.167 272.303 73.1674C272.15 73.1669 271.999 73.1361 271.858 73.0768C271.717 73.0174 271.59 72.9307 271.483 72.8217Z" fill="#CCCCCC"/>
<path d="M267.463 46.2947H235.612C235.219 46.2947 234.842 46.1386 234.564 45.8608C234.286 45.583 234.13 45.2062 234.13 44.8132C234.13 44.4203 234.286 44.0435 234.564 43.7657C234.842 43.4879 235.219 43.3318 235.612 43.3318H267.463C267.856 43.3318 268.233 43.4879 268.511 43.7657C268.789 44.0435 268.945 44.4203 268.945 44.8132C268.945 45.2062 268.789 45.583 268.511 45.8608C268.233 46.1386 267.856 46.2947 267.463 46.2947Z" fill="#CCCCCC"/>
<path d="M257.093 39.9983H235.612C235.417 39.9986 235.224 39.9605 235.044 39.8862C234.864 39.8119 234.7 39.7028 234.563 39.5652C234.425 39.4276 234.315 39.2642 234.241 39.0843C234.166 38.9044 234.128 38.7116 234.128 38.5169C234.128 38.3221 234.166 38.1293 234.241 37.9494C234.315 37.7696 234.425 37.6061 234.563 37.4685C234.7 37.331 234.864 37.2219 235.044 37.1476C235.224 37.0732 235.417 37.0351 235.612 37.0354H257.093C257.486 37.0354 257.862 37.1915 258.14 37.4693C258.418 37.7471 258.574 38.124 258.574 38.5169C258.574 38.9098 258.418 39.2866 258.14 39.5644C257.862 39.8422 257.486 39.9983 257.093 39.9983Z" fill="#CCCCCC"/>
<path d="M222.426 46.2946C224.983 46.2946 227.056 44.2218 227.056 41.665C227.056 39.1081 224.983 37.0354 222.426 37.0354C219.87 37.0354 217.797 39.1081 217.797 41.665C217.797 44.2218 219.87 46.2946 222.426 46.2946Z" fill="#5A66DF"/>
<path d="M257.647 58.3606C258.466 58.3606 259.129 57.6974 259.129 56.8792C259.129 56.061 258.466 55.3977 257.647 55.3977C256.829 55.3977 256.166 56.061 256.166 56.8792C256.166 57.6974 256.829 58.3606 257.647 58.3606Z" fill="#E6E6E6"/>
<path d="M262.833 58.3606C263.651 58.3606 264.314 57.6974 264.314 56.8792C264.314 56.061 263.651 55.3977 262.833 55.3977C262.014 55.3977 261.351 56.061 261.351 56.8792C261.351 57.6974 262.014 58.3606 262.833 58.3606Z" fill="#E6E6E6"/>
<path d="M268.018 58.3606C268.836 58.3606 269.499 57.6974 269.499 56.8792C269.499 56.061 268.836 55.3977 268.018 55.3977C267.199 55.3977 266.536 56.061 266.536 56.8792C266.536 57.6974 267.199 58.3606 268.018 58.3606Z" fill="#E6E6E6"/>
<path d="M274.872 63.2443C274.923 62.7818 275.075 62.3361 275.317 61.9387C275.559 61.5413 275.885 61.2017 276.273 60.944C276.66 60.6863 277.1 60.5166 277.56 60.447C278.02 60.3774 278.49 60.4096 278.936 60.5412L285.515 51.3396L287.624 56.8259L281.054 64.7228C280.783 65.458 280.252 66.0683 279.561 66.4381C278.87 66.8079 278.068 66.9115 277.306 66.7292C276.544 66.547 275.875 66.0916 275.427 65.4493C274.978 64.807 274.781 64.0225 274.872 63.2443H274.872Z" fill="#A0616A"/>
<path d="M282.408 62.7479C282.304 62.7566 282.2 62.7539 282.097 62.7401C281.891 62.7125 281.693 62.6397 281.517 62.5271C281.342 62.4144 281.194 62.2645 281.083 62.088L279.693 59.8823C279.54 59.6415 279.463 59.3602 279.472 59.0751C279.482 58.79 279.577 58.5144 279.746 58.2843L288.166 46.7138L282.693 32.6039C282.204 31.3624 282.223 29.9785 282.745 28.7505C283.266 27.5225 284.25 26.5487 285.483 26.039C286.18 25.7468 286.933 25.6126 287.687 25.6461C288.442 25.6796 289.18 25.88 289.848 26.2328C290.516 26.5856 291.098 27.0821 291.551 27.6865C292.005 28.2909 292.318 28.9883 292.47 29.7285L295.866 46.3067C296.102 47.4758 296.032 48.6861 295.663 49.8204C295.295 50.9547 294.639 51.9746 293.761 52.7813L283.248 62.3804C283.017 62.5925 282.721 62.7217 282.408 62.7479Z" fill="#3F3D56"/>
<path d="M300.078 126.505H233.288C233.204 126.505 233.124 126.472 233.064 126.412C233.005 126.353 232.972 126.273 232.972 126.189C232.972 126.105 233.005 126.024 233.064 125.965C233.124 125.905 233.204 125.872 233.288 125.872H300.078C300.162 125.872 300.242 125.905 300.302 125.965C300.361 126.024 300.394 126.105 300.394 126.189C300.394 126.273 300.361 126.353 300.302 126.412C300.242 126.472 300.162 126.505 300.078 126.505Z" fill="#CCCCCC"/>
<path d="M81.229 47.7264H16.7853C15.9752 47.7255 15.1985 47.4032 14.6257 46.8304C14.0529 46.2576 13.7306 45.4809 13.7297 44.6708V11.8934C13.7306 11.0833 14.0529 10.3067 14.6257 9.73384C15.1985 9.16102 15.9752 8.8388 16.7853 8.83789H81.229C82.0391 8.83881 82.8158 9.16102 83.3886 9.73385C83.9614 10.3067 84.2836 11.0833 84.2845 11.8934V44.6708C84.2836 45.4809 83.9614 46.2576 83.3886 46.8304C82.8158 47.4032 82.0391 47.7254 81.229 47.7264Z" fill="#CCCCCC"/>
<path d="M80.4885 45.5041H17.5262C17.1089 45.5037 16.7088 45.3377 16.4137 45.0426C16.1186 44.7475 15.9526 44.3474 15.9521 43.9301V12.6341C15.9526 12.2168 16.1186 11.8167 16.4137 11.5216C16.7088 11.2265 17.1089 11.0605 17.5262 11.0601H80.4885C80.9058 11.0605 81.3059 11.2265 81.601 11.5216C81.8961 11.8167 82.062 12.2168 82.0625 12.6341V43.9301C82.062 44.3474 81.8961 44.7475 81.601 45.0426C81.3059 45.3377 80.9058 45.5037 80.4885 45.5041Z" fill="white"/>
<path d="M76.8421 53.4057L69.761 46.3247L78.8393 46.5542V52.5784C78.8417 52.8104 78.7741 53.0377 78.6452 53.2305C78.5164 53.4234 78.3323 53.5728 78.1171 53.6593C77.9729 53.7197 77.8182 53.751 77.6619 53.7514C77.5092 53.7509 77.3581 53.7201 77.2173 53.6607C77.0766 53.6014 76.9491 53.5147 76.8421 53.4057Z" fill="#CCCCCC"/>
<path d="M72.8222 26.8787H40.9707C40.5778 26.8787 40.201 26.7226 39.9232 26.4448C39.6453 26.167 39.4893 25.7901 39.4893 25.3972C39.4893 25.0043 39.6453 24.6275 39.9232 24.3497C40.201 24.0719 40.5778 23.9158 40.9707 23.9158H72.8222C73.2151 23.9158 73.5919 24.0719 73.8698 24.3497C74.1476 24.6275 74.3037 25.0043 74.3037 25.3972C74.3037 25.7901 74.1476 26.167 73.8698 26.4448C73.5919 26.7226 73.2151 26.8787 72.8222 26.8787Z" fill="#CCCCCC"/>
<path d="M62.452 20.5826H40.9707C40.5778 20.5826 40.201 20.4265 39.9232 20.1487C39.6453 19.8708 39.4893 19.494 39.4893 19.1011C39.4893 18.7082 39.6453 18.3314 39.9232 18.0535C40.201 17.7757 40.5778 17.6196 40.9707 17.6196H62.452C62.8449 17.6196 63.2217 17.7757 63.4995 18.0535C63.7773 18.3314 63.9334 18.7082 63.9334 19.1011C63.9334 19.494 63.7773 19.8708 63.4995 20.1487C63.2217 20.4265 62.8449 20.5826 62.452 20.5826Z" fill="#CCCCCC"/>
<path d="M27.7858 26.8788C30.3427 26.8788 32.4154 24.8061 32.4154 22.2492C32.4154 19.6924 30.3427 17.6196 27.7858 17.6196C25.229 17.6196 23.1562 19.6924 23.1562 22.2492C23.1562 24.8061 25.229 26.8788 27.7858 26.8788Z" fill="#5A66DF"/>
<path d="M63.0066 38.9446C63.8248 38.9446 64.4881 38.2813 64.4881 37.4632C64.4881 36.645 63.8248 35.9817 63.0066 35.9817C62.1884 35.9817 61.5251 36.645 61.5251 37.4632C61.5251 38.2813 62.1884 38.9446 63.0066 38.9446Z" fill="#E6E6E6"/>
<path d="M68.1918 38.9446C69.01 38.9446 69.6733 38.2813 69.6733 37.4632C69.6733 36.645 69.01 35.9817 68.1918 35.9817C67.3736 35.9817 66.7103 36.645 66.7103 37.4632C66.7103 38.2813 67.3736 38.9446 68.1918 38.9446Z" fill="#E6E6E6"/>
<path d="M73.3769 38.9446C74.195 38.9446 74.8583 38.2813 74.8583 37.4632C74.8583 36.645 74.195 35.9817 73.3769 35.9817C72.5587 35.9817 71.8954 36.645 71.8954 37.4632C71.8954 38.2813 72.5587 38.9446 73.3769 38.9446Z" fill="#E6E6E6"/>
<path d="M78.5565 5.68867C78.1187 5.84629 77.7207 6.09799 77.3907 6.42604C77.0607 6.7541 76.8066 7.15052 76.6463 7.5874C76.4861 8.02427 76.4235 8.49097 76.4632 8.95462C76.5028 9.41827 76.6436 9.86759 76.8757 10.2709L69.4623 18.8143L75.2894 19.5863L81.4359 11.355C82.0876 10.9202 82.5572 10.2615 82.7558 9.5036C82.9543 8.74571 82.8679 7.94134 82.5129 7.2429C82.158 6.54446 81.5592 6.00048 80.83 5.71402C80.1008 5.42757 79.2919 5.41855 78.5565 5.68867Z" fill="#FFB8B8"/>
<path d="M29.0576 9.10888C29.2157 9.54653 29.2759 10.0135 29.2341 10.477C29.1922 10.9404 29.0492 11.3891 28.8152 11.7913C28.5812 12.1935 28.2618 12.5395 27.8796 12.8049C27.4974 13.0704 27.0616 13.2488 26.603 13.3276L24.7582 24.4875L20.4446 20.4946L22.8578 10.509C22.7764 9.72981 22.9838 8.94782 23.4405 8.31126C23.8972 7.67469 24.5715 7.22777 25.3358 7.05519C26.1 6.8826 26.9009 6.99633 27.5869 7.37484C28.2728 7.75335 28.7961 8.37033 29.0576 9.10887V9.10888Z" fill="#FFB8B8"/>
<path d="M40.6432 121.982L44.524 121.982L46.37 107.013L40.6426 107.014L40.6432 121.982Z" fill="#FFB8B8"/>
<path d="M39.6531 120.715L47.2955 120.715H47.2958C47.9354 120.715 48.5687 120.841 49.1596 121.086C49.7505 121.33 50.2875 121.689 50.7397 122.141C51.192 122.594 51.5507 123.13 51.7955 123.721C52.0402 124.312 52.1662 124.946 52.1662 125.585V125.743L39.6533 125.744L39.6531 120.715Z" fill="#2F2E41"/>
<path d="M20.7013 121.982L24.5821 121.982L26.4281 107.013L20.7007 107.014L20.7013 121.982Z" fill="#FFB8B8"/>
<path d="M19.7114 120.715L27.3538 120.715H27.3542C27.9938 120.715 28.6271 120.841 29.218 121.086C29.8089 121.33 30.3458 121.689 30.7981 122.141C31.2503 122.594 31.6091 123.13 31.8538 123.721C32.0986 124.312 32.2246 124.946 32.2246 125.585V125.743L19.7117 125.744L19.7114 120.715Z" fill="#2F2E41"/>
<path d="M39.8331 19.7863C44.1268 19.7863 47.6076 16.3055 47.6076 12.0118C47.6076 7.71806 44.1268 4.2373 39.8331 4.2373C35.5394 4.2373 32.0586 7.71806 32.0586 12.0118C32.0586 16.3055 35.5394 19.7863 39.8331 19.7863Z" fill="#FFB8B8"/>
<path d="M38.9011 117.01L38.2582 76.0476C38.2566 75.9318 38.2127 75.8206 38.1348 75.7349C38.0569 75.6492 37.9504 75.595 37.8352 75.5823C37.7201 75.5697 37.6044 75.5996 37.5098 75.6664C37.4151 75.7332 37.3482 75.8323 37.3215 75.9449L26.7837 116.011C26.7044 116.332 26.5174 116.615 26.2541 116.815C25.9907 117.014 25.6669 117.117 25.3368 117.106L19.5473 116.858C19.3505 116.85 19.1576 116.801 18.9807 116.714C18.8039 116.627 18.647 116.505 18.5199 116.354C18.3928 116.203 18.2983 116.028 18.2424 115.839C18.1865 115.65 18.1704 115.452 18.1951 115.257L27.1369 63.7691L27.1552 63.6238L52.061 64.8021L52.2235 64.8096L46.8827 117.095C46.8547 117.453 46.6931 117.787 46.4299 118.032C46.1668 118.276 45.8214 118.412 45.4623 118.414H40.3253C39.9515 118.412 39.5931 118.265 39.3269 118.002C39.0607 117.74 38.9078 117.383 38.9011 117.01Z" fill="#2F2E41"/>
<path d="M58.5722 68.2721L22.4307 65.3061C22.2125 65.2882 22.0014 65.2203 21.8138 65.1076C21.6262 64.995 21.467 64.8405 21.3487 64.6564C21.2304 64.4722 21.1562 64.2633 21.1317 64.0458C21.1073 63.8283 21.1333 63.6081 21.2077 63.4022L26.8993 47.6665L27.2268 28.9899C27.2387 28.3119 27.3851 27.643 27.6575 27.0221C27.9299 26.4011 28.3228 25.8404 28.8136 25.3725C29.3044 24.9046 29.8832 24.5388 30.5164 24.2963C31.1497 24.0538 31.8248 23.9395 32.5025 23.9599L34.906 21.7812H43.712L44.4787 22.7865L50.606 23.7281C51.6974 23.9004 52.7044 24.419 53.4785 25.2075C54.2525 25.9959 54.7525 27.0124 54.9046 28.1067L60.1004 66.6625C60.1274 66.8637 60.1112 67.0682 60.0527 67.2626C59.9943 67.457 59.895 67.6366 59.7615 67.7895C59.6281 67.9423 59.4634 68.0649 59.2787 68.149C59.094 68.2331 58.8935 68.2767 58.6905 68.277C58.6513 68.277 58.6118 68.2755 58.5722 68.2721Z" fill="#2F2E41"/>
<path d="M51.5305 25.5386L66.9407 21.0236L73.9149 11.8415C74.1069 11.5886 74.3779 11.4071 74.6849 11.3259C74.9918 11.2447 75.3172 11.2684 75.6091 11.3933L79.9635 13.2545C80.1491 13.3338 80.3158 13.4518 80.4524 13.6004C80.589 13.749 80.6925 13.925 80.7559 14.1167C80.8194 14.3084 80.8413 14.5113 80.8203 14.7121C80.7994 14.9129 80.7359 15.107 80.6343 15.2814L75.4223 24.2254C74.5736 25.6885 73.2818 26.8439 71.7334 27.5247L53.6081 35.537L51.5305 25.5386Z" fill="#2F2E41"/>
<path d="M21.9654 32.2926C21.0445 31.6291 20.3101 30.7396 19.8331 29.7097C19.356 28.6798 19.1525 27.5443 19.242 26.4128L19.9183 17.4524C19.9462 17.0945 20.1078 16.7603 20.3711 16.5162C20.6343 16.2721 20.9798 16.1361 21.3388 16.1353H21.3514L26.4577 16.1807C26.6669 16.1826 26.8731 16.2306 27.0617 16.3212C27.2502 16.4117 27.4165 16.5427 27.5487 16.7049C27.681 16.867 27.7759 17.0562 27.8267 17.2591C27.8775 17.4621 27.8831 17.6737 27.8429 17.879L26.8954 22.713L33.6567 25.5699L27.9631 36.6465L21.9654 32.2926Z" fill="#2F2E41"/>
<path d="M44.3558 2.68942C44.3558 2.68942 36.2255 -1.68836 31.794 3.47836C27.3625 8.64508 33.4824 16.7247 33.4824 16.7247L42.2023 17.8245C42.2023 17.8245 42.5189 11.8968 44.5951 12.0119C46.6712 12.127 53.1191 4.64721 44.3558 2.68942Z" fill="#2F2E41"/>
<path d="M67.106 126.188H0.316538C0.232587 126.188 0.152074 126.155 0.0927115 126.096C0.0333492 126.036 0 125.956 0 125.872C0 125.788 0.0333492 125.707 0.0927115 125.648C0.152074 125.589 0.232587 125.555 0.316538 125.555H67.106C67.1899 125.555 67.2704 125.589 67.3298 125.648C67.3892 125.707 67.4225 125.788 67.4225 125.872C67.4225 125.956 67.3892 126.036 67.3298 126.096C67.2704 126.155 67.1899 126.188 67.106 126.188Z" fill="#CCCCCC"/>
</g>
<defs>
<clipPath id="clip0_764_2">
<rect width="300.394" height="180" fill="white"/>
</clipPath>
</defs>
</svg>
