<svg width="22" height="22" viewBox="0 0 22 22" fill="none" xmlns="http://www.w3.org/2000/svg">
<path d="M18.3333 10.9999V5.2694C18.3333 5.12354 18.2754 4.98364 18.1722 4.88049L15.286 1.99435C15.1829 1.89119 15.043 1.83325 14.8972 1.83325H4.21663C3.91287 1.83325 3.66663 2.0795 3.66663 2.38325V19.6166C3.66663 19.9204 3.91287 20.1666 4.21663 20.1666H10.0833" stroke="#5A66DF" stroke-width="1.5" stroke-linecap="round" stroke-linejoin="round"/>
<path d="M7.33337 12.8333H10.0834M7.33337 9.16667H14.6667H7.33337ZM7.33337 5.5H11H7.33337Z" stroke="#5A66DF" stroke-width="1.5" stroke-linecap="round" stroke-linejoin="round"/>
<path d="M14.6666 4.94992V2.15734C14.6666 1.97835 14.8117 1.83325 14.9908 1.83325C15.0767 1.83325 15.1591 1.8674 15.2199 1.92817L18.2383 4.94666C18.2992 5.00744 18.3333 5.08988 18.3333 5.17583C18.3333 5.35482 18.1882 5.49992 18.0092 5.49992H15.2166C14.9128 5.49992 14.6666 5.25367 14.6666 4.94992Z" fill="#5A66DF" stroke="#5A66DF" stroke-width="1.5" stroke-linecap="round" stroke-linejoin="round"/>
<path d="M14.9468 15.6872L15.7802 13.9202C15.8871 13.6933 16.1962 13.6933 16.3032 13.9202L17.1366 15.6872L19.0002 15.9723C19.2394 16.0089 19.3346 16.3165 19.1616 16.493L17.8132 17.8674L18.1314 19.8092C18.1723 20.0585 17.9222 20.2487 17.7083 20.1309L16.0417 19.2136L14.3751 20.1309C14.1612 20.2487 13.9111 20.0585 13.952 19.8092L14.2701 17.8674L12.9218 16.493C12.7488 16.3165 12.844 16.0089 13.0832 15.9723L14.9468 15.6872Z" stroke="#5A66DF" stroke-width="1.5" stroke-linecap="round" stroke-linejoin="round"/>
</svg>
