<svg width="221" height="170" viewBox="0 0 221 170" fill="none" xmlns="http://www.w3.org/2000/svg">
<path d="M94.7143 158.986C136.14 158.986 169.722 123.396 169.722 79.493C169.722 35.5902 136.14 0 94.7143 0C53.2889 0 19.707 35.5902 19.707 79.493C19.707 123.396 53.2889 158.986 94.7143 158.986Z" fill="#F2F2F2"/>
<path d="M29.7616 170C46.1985 170 59.5232 167.741 59.5232 164.953C59.5232 162.166 46.1985 159.907 29.7616 159.907C13.3247 159.907 0 162.166 0 164.953C0 167.741 13.3247 170 29.7616 170Z" fill="#F2F2F2"/>
<path d="M174.95 164.87C200.383 164.87 221 161.374 221 157.061C221 152.749 200.383 149.252 174.95 149.252C149.517 149.252 128.9 152.749 128.9 157.061C128.9 161.374 149.517 164.87 174.95 164.87Z" fill="#F2F2F2"/>
<path d="M164.718 82.0044C164.718 82.0044 165.11 83.3894 162.889 84.6359C160.667 85.8824 160.014 90.5915 162.627 91.9765C165.241 93.3615 166.025 95.162 164.718 96.4085C163.412 97.655 161.059 100.979 164.196 101.81C167.332 102.641 167.724 104.303 166.809 104.996C165.895 105.688 168.9 103.749 168.9 103.749C168.9 103.749 169.423 107.073 172.167 106.242C174.912 105.411 182.622 89.622 178.702 87.4059C174.781 85.1899 164.718 82.0044 164.718 82.0044Z" fill="#2F2E41"/>
<path d="M169.455 95.378C169.455 95.378 170.811 100.406 168.438 100.766C166.966 101.009 165.571 101.625 164.372 102.561L168.777 108.667H176.911L181.994 103.28C181.994 103.28 175.216 97.8922 176.572 94.6597C177.928 91.4272 169.455 95.378 169.455 95.378Z" fill="#FFB9B9"/>
<path opacity="0.1" d="M169.455 95.378C169.455 95.378 170.811 100.406 168.438 100.766C166.966 101.009 165.571 101.625 164.372 102.561L168.777 108.667H176.911L181.994 103.28C181.994 103.28 175.216 97.8922 176.572 94.6597C177.928 91.4272 169.455 95.378 169.455 95.378Z" fill="black"/>
<path d="M171.489 157.873L179.283 160.747L184.705 161.106L184.367 156.077L173.183 152.572L171.489 157.873Z" fill="#FFB9B9"/>
<path d="M181.486 156.796C181.486 156.796 181.486 161.824 182.164 161.824C182.842 161.824 191.992 160.747 194.703 161.824C197.414 162.902 201.481 158.951 199.448 156.796C197.414 154.641 194.098 151.408 192.028 152.127C189.959 152.845 181.486 154.641 181.486 154.641V156.796Z" fill="#575A89"/>
<path d="M156.577 152.126C156.577 152.126 152.51 160.746 155.221 161.465C157.932 162.183 160.983 161.105 161.321 160.746C161.66 160.387 166.405 158.951 167.083 159.669C167.761 160.387 167.761 156.796 167.761 156.796L156.577 152.126Z" fill="#575A89"/>
<path d="M159.966 140.274C159.966 140.274 153.527 149.612 158.271 152.127C163.016 154.641 185.722 154.641 187.417 152.127C189.111 149.612 189.789 141.711 187.417 140.992C185.045 140.274 159.966 140.274 159.966 140.274Z" fill="#2F2E41"/>
<path opacity="0.2" d="M159.966 140.274C159.966 140.274 153.527 149.612 158.271 152.127C163.016 154.641 185.722 154.641 187.417 152.127C189.111 149.612 189.789 141.711 187.417 140.992C185.045 140.274 159.966 140.274 159.966 140.274Z" fill="black"/>
<path d="M172.166 97.8923C176.471 97.8923 179.961 94.1938 179.961 89.6315C179.961 85.0691 176.471 81.3706 172.166 81.3706C167.861 81.3706 164.372 85.0691 164.372 89.6315C164.372 94.1938 167.861 97.8923 172.166 97.8923Z" fill="#FFB9B9"/>
<path d="M159.966 102.562L166.744 101.125C166.744 101.125 168.438 106.872 173.861 105.794C179.283 104.717 180.639 101.125 180.639 101.125C180.639 101.125 184.706 102.921 185.044 102.921C185.383 102.921 189.789 104.717 189.789 105.794C189.789 106.872 184.706 117.647 184.706 117.647L185.383 137.042L160.305 136.323L161.999 117.287L159.966 102.562Z" fill="#5A66DF"/>
<path d="M156.238 111.9C156.238 111.9 154.205 130.936 155.56 132.372C156.916 133.809 162.338 137.76 162.338 137.76V133.45L159.627 128.062L162.338 115.492L156.238 111.9Z" fill="#FFB9B9"/>
<path d="M191.314 111.361C191.314 111.361 190.128 130.936 190.128 131.654C190.128 132.373 187.078 134.887 186.061 134.887C185.045 134.887 184.367 133.091 184.367 133.091L186.739 130.218L185.044 115.492L191.314 111.361Z" fill="#FFB9B9"/>
<path d="M188.095 138.837C188.095 138.837 203.345 129.858 203.684 138.837C204.023 147.816 195.889 151.408 195.889 151.408C195.889 151.408 174.878 158.085 174.03 155.645C173.183 153.204 171.489 149.253 172.844 148.894C174.2 148.535 175.894 147.816 176.572 148.535C177.25 149.253 185.722 143.147 185.722 143.147L188.095 138.837Z" fill="#2F2E41"/>
<path opacity="0.2" d="M195.212 137.76C195.212 137.76 192.161 139.196 191.145 140.274C190.128 141.351 185.722 143.147 185.722 143.147" stroke="black" stroke-width="2" stroke-miterlimit="10"/>
<path d="M161.999 103.28L159.966 102.562C159.966 102.562 152.51 110.822 154.882 112.977C157.255 115.132 158.61 115.851 159.288 116.569C159.966 117.287 163.355 117.647 163.355 117.647L161.999 103.28Z" fill="#5A66DF"/>
<path d="M186.739 105.076L189.789 105.794C189.789 105.794 192.161 111.182 192.839 111.9C193.517 112.618 191.822 112.259 190.806 113.696C189.789 115.132 188.772 117.646 186.739 117.646C184.706 117.646 181.995 114.055 181.995 114.055L186.739 105.076Z" fill="#5A66DF"/>
<path d="M160.644 142.07C160.644 142.07 147.766 132.372 143.36 139.556C138.954 146.739 162.338 156.436 165.727 157.873C169.116 159.31 172.166 160.746 172.166 160.746C172.166 160.746 175.216 152.845 175.216 151.408C175.216 149.971 172.844 149.971 172.166 149.971C171.489 149.971 168.438 149.253 167.761 148.176C167.083 147.098 160.644 142.07 160.644 142.07Z" fill="#2F2E41"/>
<path opacity="0.2" d="M153.527 139.556C153.527 139.556 156.916 142.429 159.966 143.147C163.016 143.866 164.033 145.661 164.033 145.661" stroke="black" stroke-width="2" stroke-miterlimit="10"/>
<path d="M158.306 126.051L158.577 141.259C158.586 141.761 158.782 142.239 159.122 142.589C159.462 142.939 159.919 143.132 160.393 143.126L187.096 142.808C187.551 142.803 187.987 142.615 188.316 142.282C188.645 141.949 188.843 141.496 188.869 141.014L189.679 126.125C189.694 125.866 189.658 125.607 189.574 125.364C189.49 125.12 189.36 124.897 189.192 124.709C189.024 124.52 188.822 124.37 188.597 124.267C188.373 124.165 188.131 124.112 187.886 124.112H160.102C159.863 124.112 159.627 124.162 159.407 124.26C159.187 124.358 158.987 124.502 158.82 124.682C158.653 124.863 158.521 125.077 158.433 125.312C158.345 125.547 158.302 125.798 158.306 126.051Z" fill="#575A89"/>
<path d="M172.583 79.2544C172.583 79.2544 173.017 80.7887 170.556 82.1696C168.095 83.5505 167.371 88.7671 170.266 90.3014C173.162 91.8357 174.031 93.8303 172.583 95.2112C171.135 96.5921 168.529 100.274 172.004 101.195C175.478 102.116 175.913 103.957 174.899 104.724C173.886 105.491 177.216 103.343 177.216 103.343C177.216 103.343 177.795 107.025 180.835 106.105C183.875 105.184 186.909 88.4501 183.52 84.1401C180.368 80.1326 172.583 79.2544 172.583 79.2544Z" fill="#2F2E41"/>
<path d="M171.658 77.6749C171.659 75.427 178.004 77.0422 180.725 80.1807C182.609 82.3541 185.47 85.6238 183.073 87.9287C180.675 90.2335 187.183 93.2549 188.928 94.171C190.674 95.087 194.12 97.8884 191.008 99.7677C187.896 101.647 187.947 103.544 189.118 103.993C190.289 104.442 186.536 103.325 186.536 103.325C186.536 103.325 186.915 107.037 183.753 107.019C180.591 107.001 171.52 88.5856 173.687 83.4668C175.702 78.7073 171.658 77.6749 171.658 77.6749Z" fill="#2F2E41"/>
<path d="M173.032 77.1822C164.547 76.6407 163.695 83.4102 163.695 83.4102C163.754 87.3277 169.624 85.4189 171.254 86.0029C173.221 84.5033 177.013 81.6659 179.724 79.641C177.756 78.1719 175.437 77.3198 173.032 77.1822Z" fill="#2F2E41"/>
<path d="M170.615 120.379C170.615 120.379 163.003 82.5724 115.36 55.1465" stroke="#3F3D56" stroke-width="2" stroke-miterlimit="10"/>
<path d="M117.323 54.3218L117.419 54.7363L115.492 55.2316L116.099 57.2325L115.715 57.3627L114.976 54.9255L117.323 54.3218Z" fill="#3F3D56"/>
<path d="M13.7695 159.01C13.7695 163.798 11.0836 165.47 7.7701 165.47C7.69334 165.47 7.61671 165.469 7.54019 165.467C7.38667 165.464 7.23461 165.456 7.08438 165.445C4.09403 165.221 1.77075 163.463 1.77075 159.01C1.77075 154.401 7.32782 148.585 7.74524 148.155L7.74598 148.154C7.76206 148.138 7.77011 148.129 7.77011 148.129C7.77011 148.129 13.7695 154.221 13.7695 159.01Z" fill="#5A66DF"/>
<path d="M7.55151 164.738L9.74575 161.488L7.54602 165.094L7.54018 165.467C7.38666 165.464 7.23459 165.456 7.08436 165.445L7.32086 160.654L7.31903 160.617L7.32306 160.61L7.34535 160.158L5.14014 156.543L7.35229 159.818L7.35742 159.915L7.53615 156.295L5.64822 152.559L7.55918 155.659L7.74523 148.155L7.74596 148.129V148.154L7.7149 154.072L9.59443 151.726L7.70722 154.582L7.65751 157.823L9.41239 154.712L7.6502 158.3L7.62242 160.101L10.1701 155.772L7.61292 160.73L7.55151 164.738Z" fill="#3F3D56"/>
<path d="M42.3848 157.769L43.6681 156.759C43.6681 156.759 44.5176 161.788 43.5697 162.541C42.6217 163.295 39.067 164.55 39.067 166.057C39.067 167.564 31.0098 169.574 30.7728 167.313C30.5358 165.053 31.4837 163.797 31.4837 163.797C31.4837 163.797 35.2754 159.778 35.7493 159.025C36.2233 158.272 37.4082 156.765 37.4082 156.765L42.3848 157.769Z" fill="#2F2E41"/>
<path d="M23.4265 95.2324C23.4265 95.2324 23.4621 95.4534 23.5237 95.8577C23.5806 96.2169 23.6587 96.7242 23.7535 97.3496C24.7489 103.787 27.6519 122.736 27.4552 123.361C27.2182 124.115 25.5593 126.877 27.4552 127.631C27.6376 127.704 27.8343 127.94 28.0452 128.312C28.4523 129.112 28.7879 129.951 29.0476 130.818C30.178 134.294 31.3867 139.857 32.0857 143.71C32.3914 145.402 32.6 146.764 32.6616 147.477C32.683 147.642 32.6854 147.809 32.6687 147.974C32.4317 148.979 34.0906 152.495 34.8015 153.499C35.5124 154.504 36.6973 155.509 36.4604 156.513C36.2234 157.518 42.3848 160.281 43.0958 158.523C43.8067 156.764 43.8067 155.76 44.0437 155.258C44.2807 154.755 44.5176 151.239 43.3327 150.737C42.1479 150.235 42.8588 141.444 41.6739 139.686C41.2782 139.101 40.6739 137.119 40.0411 134.736C39.7923 133.802 39.5411 132.807 39.2946 131.81C38.2946 127.724 37.4083 123.612 37.4083 123.612L37.6452 94.2278L24.6114 92.4697L24.2773 93.2508L23.6114 94.8004L23.4265 95.2324Z" fill="#2F2E41"/>
<path d="M22.7155 143.454C22.7155 143.454 20.8197 141.444 19.8718 143.454C18.9238 145.463 17.9759 153.248 16.3171 155.006C14.6582 156.765 12.5254 165.555 14.8952 166.057C17.265 166.559 19.8718 165.304 20.1087 163.797C20.3457 162.29 25.3223 154.504 25.3223 153.751C25.3223 152.997 22.0046 150.235 22.0046 150.235L22.7155 143.454Z" fill="#2F2E41"/>
<path d="M51.8639 81.4193C51.8639 81.4193 48.7832 110.804 48.0723 113.567C47.3613 116.329 43.5697 126.878 42.3848 128.636C41.1999 130.394 33.6165 144.709 32.6686 145.463C31.7207 146.216 29.8249 148.226 29.8249 148.226C29.8249 148.226 26.2702 151.993 25.7962 152.746C25.3223 153.5 21.2936 151.239 21.0567 149.732C20.8197 148.226 21.2936 145.714 21.5306 144.709C21.7676 143.705 21.0567 142.198 21.7676 141.444C22.4785 140.691 26.0332 136.924 26.0332 135.166C26.0332 133.408 32.1947 123.11 34.5645 120.85C36.9342 118.59 36.4603 114.822 36.4603 114.822V99.5022L23.4264 95.2326C23.4264 95.2326 24.1374 83.1774 25.7962 83.1774C27.4551 83.1774 49.2572 79.1589 51.8639 81.4193Z" fill="#2F2E41"/>
<path d="M32.6687 39.4768C36.9877 39.4768 40.489 35.7662 40.489 31.1888C40.489 26.6115 36.9877 22.9009 32.6687 22.9009C28.3497 22.9009 24.8484 26.6115 24.8484 31.1888C24.8484 35.7662 28.3497 39.4768 32.6687 39.4768Z" fill="#9F616A"/>
<path d="M35.2755 37.7187C35.2755 37.7187 36.2234 41.486 37.4083 42.4906C38.5932 43.4952 34.3275 47.7648 34.3275 47.7648L26.2703 48.2671L24.8484 43.4952C24.8484 43.4952 27.4552 37.9698 26.7442 34.4537C26.0333 30.9376 35.2755 37.7187 35.2755 37.7187Z" fill="#9F616A"/>
<path d="M38.5932 41.9883C38.5932 41.9883 36.4604 42.2394 35.9864 42.9929C35.5124 43.7463 32.1947 46.0067 29.588 45.5044C26.9812 45.0021 25.3223 44.2486 24.8484 44.4998C24.3744 44.7509 23.4265 50.0251 23.4265 50.0251L26.0333 58.0619L25.5593 80.1632L24.8484 86.1909C24.8484 86.1909 23.4265 84.1817 29.114 85.4374C34.8015 86.6932 42.1479 84.4328 44.5177 84.1817C46.8875 83.9305 50.9161 83.1771 51.1531 81.6701C51.39 80.1632 50.4421 74.6379 50.4421 74.6379L46.6505 57.8108L44.2807 48.7694L38.5932 41.9883Z" fill="#5A66DF"/>
<path d="M36.3516 40.855C36.3516 40.855 38.3561 39.7282 39.0671 40.7328C39.778 41.7374 48.7832 43.2443 48.7832 43.9978C48.7832 44.7512 50.679 65.0945 50.2051 66.8525C49.7311 68.6106 51.153 70.6198 51.153 70.6198L52.8118 78.1543C52.8118 78.1543 57.3144 92.47 55.4186 92.9723C53.5228 93.4746 51.8639 92.9723 51.153 92.9723C50.4421 92.9723 50.679 83.4285 48.7832 80.917C46.8874 78.4055 44.2806 72.1267 43.8067 70.871C43.3327 69.6152 37.4082 52.2858 37.6452 50.2765C37.8822 48.2673 36.3516 40.855 36.3516 40.855Z" fill="#D0CDE1"/>
<path d="M26.5072 41.9883C26.5072 41.9883 24.6114 41.9883 24.3744 42.4906C24.1374 42.9929 21.7676 46.2578 20.8197 47.0113C19.8718 47.7648 16.5541 51.0297 16.5541 51.7832C16.5541 52.5366 23.4265 58.0619 23.4265 58.0619C23.4265 58.0619 26.2702 72.8798 24.8483 77.9029C23.4265 82.9259 21.2937 94.9811 22.2416 95.7346C23.1895 96.488 25.3223 96.7392 25.3223 95.7346C25.3223 94.73 26.7442 83.9305 27.9291 81.6701C29.114 79.4098 32.6686 65.0942 31.2468 61.0758C29.8249 57.0573 26.5072 41.9883 26.5072 41.9883Z" fill="#D0CDE1"/>
<path d="M57.7884 66.8525C57.7884 66.8525 58.0254 74.6382 55.4186 78.6566C52.8118 82.6751 51.153 87.1958 51.153 87.1958C51.153 87.1958 46.8874 85.94 46.1764 84.4331C45.4655 82.9262 40.9629 84.182 40.9629 83.6797C40.9629 83.1774 46.4134 80.6658 46.8874 80.1635C47.3613 79.6612 49.0202 79.6612 49.9681 78.6566C50.916 77.652 51.153 75.3917 51.153 75.3917L52.1009 68.8617L57.7884 66.8525Z" fill="#9F616A"/>
<path d="M38.0549 26.0787C38.6565 26.0208 39.277 25.957 39.8087 25.6531C41.0001 24.9722 41.316 23.0331 40.4091 21.9682C40.159 21.6972 39.8793 21.4589 39.5759 21.2582L37.7746 19.9588C36.9779 19.3841 36.1624 18.8 35.2331 18.529C34.3927 18.284 33.505 18.3092 32.635 18.3665C30.9461 18.4777 29.2468 18.7075 27.6583 19.3255C26.0698 19.9435 24.588 20.9774 23.6259 22.4527C22.1007 24.7915 22.0797 27.9457 22.9198 30.6458C23.7598 33.3458 25.3555 35.6969 26.9278 38.0004L27.7436 33.7818C27.8162 33.4061 27.9102 32.9943 28.2051 32.7719C28.938 32.2192 29.8345 33.354 30.7339 33.3466C31.3119 33.3419 31.7971 32.8381 32.0161 32.2713C32.2352 31.7044 32.2496 31.0767 32.3003 30.4665C32.4076 29.1741 32.8338 27.3759 33.9887 26.6631C35.0648 25.9989 36.8453 26.1951 38.0549 26.0787Z" fill="#2F2E41"/>
<path opacity="0.1" d="M37.6162 95.435C37.6162 95.435 36.8158 119.971 36.3419 120.724C35.8679 121.478 36.3419 95.3579 36.3419 95.3579L37.6162 95.435Z" fill="black"/>
<path d="M46.8873 43.9976H48.7832C48.7832 43.9976 56.8405 55.5505 55.8925 56.304C54.9446 57.0574 55.8925 59.0666 55.8925 59.0666L57.7884 62.8339C57.7884 62.8339 60.1582 65.0943 59.4472 65.5966C58.7363 66.0989 57.7884 68.1081 57.7884 68.1081C57.7884 68.1081 53.0488 67.3546 51.6269 70.3684L48.5533 66.2562L46.8873 43.9976Z" fill="#D0CDE1"/>
<path d="M47.5575 47.7135L41.0521 50.5605L46.0582 63.4085L52.5636 60.5615L47.5575 47.7135Z" fill="#2F2E41"/>
<path d="M46.795 55.2492C47.5136 54.9347 47.8751 54.1126 47.6026 53.4131C47.33 52.7135 46.5265 52.4013 45.8079 52.7158C45.0893 53.0302 44.7278 53.8523 45.0004 54.5519C45.273 55.2514 46.0765 55.5636 46.795 55.2492Z" fill="#5A66DF"/>
<path d="M42.1478 64.0896C42.1478 64.0896 25.0853 79.1587 22.2416 74.3868C19.3978 69.615 25.3223 65.5965 25.3223 65.5965C25.3223 65.5965 30.5358 65.8477 36.4603 61.8293L42.3848 59.0666C42.3848 59.0666 47.7934 50.8831 49.6364 53.9993C51.4795 57.1155 46.4903 62.539 42.1478 64.0896Z" fill="#9F616A"/>
<path d="M19.1609 50.7788L16.5541 51.7834V59.318L15.6062 60.8249C15.6062 60.8249 15.8432 63.8387 16.5541 64.5921C17.2651 65.3456 18.6869 65.0944 18.213 66.8525C17.9281 67.9987 17.8477 69.1912 17.976 70.3686C17.976 70.3686 22.2416 76.1451 22.4786 75.3917C22.7156 74.6382 26.0333 65.3456 26.5072 65.3456C26.9812 65.3456 21.7677 50.7788 21.7677 50.7788H19.1609Z" fill="#D0CDE1"/>
<path d="M50.3236 88.828C50.3236 88.828 52.7739 86.3165 51.5487 86.1909C50.3236 86.0654 46.058 83.5538 45.347 84.8096C44.6361 86.0654 50.3236 88.828 50.3236 88.828Z" fill="#2F2E41"/>
<path d="M96.9263 40.9186C98.8143 40.9186 100.345 40.0599 100.345 39.0006C100.345 37.9413 98.8143 37.0825 96.9263 37.0825C95.0382 37.0825 93.5077 37.9413 93.5077 39.0006C93.5077 40.0599 95.0382 40.9186 96.9263 40.9186Z" fill="#57B894"/>
<path d="M109.997 45.394C102.289 42.3086 94.5802 42.3086 86.8717 45.394V35.3775C94.4123 32.966 102.457 32.966 109.997 35.3775V45.394Z" stroke="#3F3D56" stroke-width="2" stroke-miterlimit="10"/>
<path d="M106.78 43.3228C101.216 41.0959 95.6528 41.0959 90.0892 43.3228V36.0934C95.5316 34.353 101.338 34.353 106.78 36.0934V43.3228Z" stroke="#3F3D56" stroke-width="2" stroke-miterlimit="10"/>
<path d="M98.1329 40.0661C100.021 40.0661 101.551 39.2074 101.551 38.148C101.551 37.0887 100.021 36.23 98.1329 36.23C96.2449 36.23 94.7144 37.0887 94.7144 38.148C94.7144 39.2074 96.2449 40.0661 98.1329 40.0661Z" stroke="#3F3D56" stroke-width="2" stroke-miterlimit="10"/>
<path d="M99.44 52.9306C101.29 52.5305 102.627 51.3647 102.428 50.3268C102.228 49.2889 100.566 48.7718 98.7161 49.172C96.8662 49.5721 95.5286 50.7379 95.7285 51.7758C95.9284 52.8137 97.5901 53.3307 99.44 52.9306Z" fill="#57B894"/>
<path d="M113.091 54.5458C104.956 53.1564 97.4036 54.7901 90.433 59.4469L88.543 49.6327C95.4762 45.6718 103.358 43.9669 111.201 44.7316L113.091 54.5458Z" stroke="#3F3D56" stroke-width="2" stroke-miterlimit="10"/>
<path d="M109.548 53.1979C103.677 52.1951 98.2255 53.3742 93.1946 56.7352L91.8304 49.6519C96.8344 46.7932 102.523 45.5627 108.184 46.1146L109.548 53.1979Z" stroke="#3F3D56" stroke-width="2" stroke-miterlimit="10"/>
<path d="M100.461 51.8398C102.311 51.4397 103.649 50.2739 103.449 49.236C103.249 48.198 101.587 47.681 99.7374 48.0812C97.8876 48.4813 96.55 49.6471 96.7499 50.685C96.9497 51.7229 98.6114 52.2399 100.461 51.8398Z" stroke="#3F3D56" stroke-width="2" stroke-miterlimit="10"/>
<path d="M101.779 63.2248C101.849 62.1681 100.378 61.1988 98.4947 61.0599C96.6113 60.921 95.0282 61.6651 94.9588 62.7218C94.8894 63.7786 96.36 64.7479 98.2435 64.8868C100.127 65.0257 101.71 64.2816 101.779 63.2248Z" fill="#57B894"/>
<path d="M110.99 70.3132C103.502 66.668 95.8119 66.1009 87.9199 68.6118L88.576 58.6194C96.2564 56.7685 104.281 57.3603 111.646 60.3208L110.99 70.3132Z" stroke="#3F3D56" stroke-width="2" stroke-miterlimit="10"/>
<path d="M107.916 68.0095C102.512 65.3787 96.9614 64.9694 91.2654 66.7816L91.7389 59.5697C97.2822 58.2338 103.074 58.661 108.389 60.7976L107.916 68.0095Z" stroke="#3F3D56" stroke-width="2" stroke-miterlimit="10"/>
<path d="M103.039 62.4631C103.108 61.4064 101.638 60.4371 99.7542 60.2982C97.8708 60.1593 96.2877 60.9034 96.2183 61.9601C96.1489 63.0169 97.6195 63.9861 99.503 64.125C101.386 64.2639 102.97 63.5199 103.039 62.4631Z" stroke="#3F3D56" stroke-width="2" stroke-miterlimit="10"/>
<path d="M83.4375 45.6269C83.4375 45.6269 68.658 43.484 58.1035 50.0392" stroke="#3F3D56" stroke-width="2" stroke-miterlimit="10"/>
<path d="M58.459 47.8364L58.8429 47.9651L58.2429 49.9682L60.1721 50.4561L60.0782 50.871L57.7289 50.2762L58.459 47.8364Z" fill="#3F3D56"/>
</svg>
