<svg width="213" height="170" viewBox="0 0 213 170" fill="none" xmlns="http://www.w3.org/2000/svg">
<g clip-path="url(#clip0_247_521)">
<path d="M183.713 143.875H28.0156V120.633H30.4174V103.334C30.4227 99.2579 32.2664 95.3504 35.5441 92.4683C38.8219 89.5863 43.266 87.9652 47.9014 87.9606H164.11C168.746 87.9652 173.19 89.5863 176.467 92.4684C179.745 95.3504 181.589 99.2579 181.594 103.334V120.633H183.713V143.875Z" fill="#E4E4E4"/>
<path d="M187.932 169.455H180.182V169.331C180.174 163.304 177.447 157.525 172.6 153.263C167.753 149.001 161.181 146.604 154.326 146.597H57.4032C50.5483 146.604 43.9764 149.001 39.1292 153.263C34.282 157.525 31.5555 163.304 31.5477 169.331V169.455H23.797C22.0311 169.453 20.3381 168.836 19.0895 167.738C17.8408 166.64 17.1385 165.151 17.1365 163.599V125.607C14.8858 124.488 13.0552 118.416 14.2442 113.566C14.9904 110.523 17.1446 106.848 23.1695 106.62C29.0345 106.398 33.3878 111.24 33.7767 115.9C33.9874 118.353 33.1682 120.788 31.4742 122.745H31.5477V128.165C44.266 124.581 57.0022 122.758 69.4054 122.745C82.0975 122.756 94.7014 124.6 106.713 128.204C131.688 121.102 156.405 120.963 180.182 127.795V122.745H180.255C178.561 120.788 177.742 118.353 177.953 115.9C178.379 110.788 183.135 106.625 188.553 106.62H188.572C194.962 106.62 197.222 110.002 197.993 112.841C199.357 117.866 196.852 124.479 194.593 125.606V163.599C194.591 165.151 193.888 166.64 192.64 167.738C191.391 168.836 189.698 169.453 187.932 169.455Z" fill="#CACACA"/>
<path d="M144.629 159.289L148.371 161.639L160.459 150.069L154.938 146.601L144.629 159.289Z" fill="#FFB6B6"/>
<path d="M144.548 157.615L145.601 158.277L150.906 159.389L151.916 162.243L151.916 162.243C153.161 163.025 154.002 164.211 154.253 165.538C154.505 166.865 154.146 168.226 153.257 169.321L153.148 169.455L141.085 161.878L144.548 157.615Z" fill="#2F2E41"/>
<path d="M169.982 128.313H142.511C139.949 128.311 137.493 127.416 135.682 125.823C133.871 124.23 132.854 122.069 132.854 119.817C132.854 117.565 133.871 115.404 135.682 113.811C137.493 112.218 139.949 111.323 142.511 111.321H169.982C172.544 111.321 175.002 112.216 176.814 113.81C178.626 115.403 179.644 117.564 179.644 119.817C179.644 122.07 178.626 124.231 176.814 125.824C175.002 127.417 172.544 128.313 169.982 128.313Z" fill="#2F2E41"/>
<path d="M156.504 68.9893L160.935 71.956L166.279 73.3998C166.279 73.3998 168.488 100.723 170.478 102.473C172.469 104.224 170.674 104.271 171.074 106.544C171.474 108.818 172.446 113.479 172.446 113.479C159.009 119.733 147.426 119.9 138.121 112.582C138.002 112.13 138.063 111.655 138.293 111.237C138.523 110.818 138.908 110.482 139.386 110.282C141.117 109.474 137.789 105.703 139.204 105.073C140.62 104.442 138.629 98.9729 138.629 98.9729L139.935 87.5611L138.903 85.7369L141.421 74.5749L145.789 73.1722L147.534 69.4753L156.504 68.9893Z" fill="#5A66DF"/>
<path d="M159.28 43.4794C159.26 43.9728 159.363 44.4641 159.583 44.9186C159.802 45.3731 160.132 45.7798 160.55 46.1099C160.967 46.4401 161.462 46.6858 161.999 46.8297C162.536 46.9735 163.103 47.0121 163.659 46.9426L169.904 57.6151L173.383 52.1799L166.919 42.8784C166.725 42.065 166.197 41.3425 165.437 40.848C164.677 40.3535 163.738 40.1213 162.796 40.1954C161.854 40.2695 160.976 40.6447 160.328 41.2499C159.68 41.8552 159.307 42.6485 159.28 43.4794H159.28Z" fill="#FFB6B6"/>
<path d="M169.796 46.0902L183.19 64.343L183.146 64.427C183.095 64.5232 180.062 70.283 177.123 75.5585C176.671 76.371 176.22 77.1719 175.784 77.9389C175.595 78.2699 175.409 78.594 175.226 78.9112C173.992 81.0509 172.914 82.8194 172.27 83.6595C170.846 85.5588 168.726 86.9728 166.262 87.6667L166.2 87.6807L166.141 87.659C164.936 87.2119 163.94 86.4169 163.318 85.4053C162.695 84.3937 162.483 83.2258 162.717 82.0941C163.879 76.6356 166.468 71.4893 170.279 67.0613L172.45 64.5448L164.905 50.12L169.796 46.0902Z" fill="#5A66DF"/>
<path d="M146.655 41.2433C146.675 41.7368 146.572 42.228 146.352 42.6825C146.133 43.137 145.803 43.5437 145.385 43.8739C144.968 44.2041 144.473 44.4497 143.936 44.5936C143.399 44.7375 142.832 44.776 142.276 44.7066L136.032 55.379L132.552 49.9438L139.016 40.6423C139.211 39.8289 139.738 39.1065 140.498 38.612C141.258 38.1175 142.198 37.8852 143.139 37.9593C144.081 38.0334 144.959 38.4086 145.607 39.0139C146.255 39.6191 146.628 40.4124 146.655 41.2433H146.655Z" fill="#FFB6B6"/>
<path d="M136.139 43.854L122.745 62.1068L122.789 62.1908C122.84 62.287 125.873 68.0468 128.812 73.3223C129.264 74.1348 129.714 74.9357 130.151 75.7027C130.34 76.0337 130.526 76.3578 130.709 76.675C131.943 78.8147 133.021 80.5832 133.665 81.4233C135.089 83.3226 137.209 84.7366 139.673 85.4305L139.735 85.4445L139.794 85.4228C140.999 84.9757 141.995 84.1808 142.618 83.1691C143.24 82.1575 143.452 80.9896 143.218 79.8579C142.056 74.3995 139.467 69.2531 135.656 64.8251L133.485 62.3086L141.03 47.8838L136.139 43.854Z" fill="#5A66DF"/>
<path d="M151.968 67.3381C156.808 67.3381 160.732 63.8878 160.732 59.6317C160.732 55.3755 156.808 51.9252 151.968 51.9252C147.127 51.9252 143.203 55.3755 143.203 59.6317C143.203 63.8878 147.127 67.3381 151.968 67.3381Z" fill="#FFB6B6"/>
<path d="M144.829 53.0111C145.55 51.1673 149.138 49.8885 154.955 49.7106C160.771 49.5328 162.247 55.5601 162.247 55.5601C166.13 58.3299 158.1 65.7452 157.712 65.4781L157.886 64.0849C158.176 61.7773 159.405 59.9767 157.842 57.5718L156.341 57.5869L153.494 58.0682C153.317 58.0982 153.133 58.0761 152.971 58.0052C152.81 57.9343 152.679 57.8186 152.599 57.676C152.52 57.5333 152.496 57.3716 152.531 57.2158C152.566 57.06 152.659 56.9187 152.795 56.8137L152.821 56.7935L152.756 56.7055C151.753 57.11 150.72 57.4851 149.623 57.5418C148.39 57.6055 147.042 57.1739 146.451 56.2198C146.293 55.9575 146.197 55.6702 146.168 55.3746C144.504 55.9589 143.744 57.7617 143.744 57.7617C143.744 57.7617 144.108 54.8549 144.829 53.0111Z" fill="#2F2E41"/>
<path d="M168.5 156.011L164.991 158.623L151.862 147.966L157.04 144.11L168.5 156.011Z" fill="#FFB6B6"/>
<path d="M172.275 158.335L160.961 166.758L160.84 166.632C159.851 165.605 159.367 164.275 159.493 162.934C159.62 161.593 160.347 160.351 161.515 159.482L161.515 159.482L162.254 156.564L167.437 155.072L168.425 154.337L172.275 158.335Z" fill="#2F2E41"/>
<path d="M146.815 126.543L149.715 121.013C149.683 115.969 144.881 111.872 139.155 112.188C135.966 112.364 132.981 113.932 131.747 118.593C128.575 130.578 159.7 155.517 159.7 155.517L165.419 152.41L165.683 149.127L162.48 147.391L162.477 144.591L159.423 143.317L146.815 126.543Z" fill="#2F2E41"/>
<path d="M165.869 125.02L162.284 120.385C161.845 115.356 166.247 110.926 171.983 110.827C175.177 110.772 178.3 112.119 179.965 116.675C184.247 128.389 155.56 155.495 155.56 155.495L149.569 152.811L149 149.558L152.03 147.597L151.771 144.806L154.695 143.316L165.869 125.02Z" fill="#2F2E41"/>
<path d="M93.7047 165.522L89.4176 165.522L87.3778 150.981L93.7056 150.981L93.7047 165.522Z" fill="#A0616A"/>
<path d="M93.8559 169.455L80.6713 169.455V169.308C80.6714 168.111 81.2121 166.964 82.1745 166.118C83.1368 165.271 84.4421 164.796 85.8031 164.796H85.8034L88.2117 163.189L92.7052 164.796L93.8561 164.796L93.8559 169.455Z" fill="#2F2E41"/>
<path d="M124.042 165.522L128.329 165.522L130.369 150.981L124.041 150.981L124.042 165.522Z" fill="#A0616A"/>
<path d="M123.891 169.455L137.075 169.455V169.308C137.075 168.111 136.535 166.964 135.572 166.118C134.61 165.271 133.305 164.796 131.944 164.796H131.943L129.535 163.189L125.041 164.796L123.891 164.796L123.891 169.455Z" fill="#2F2E41"/>
<path d="M87.1891 140.295C87.2524 139.466 87.7559 134.877 87.7559 134.877L88.9618 125.146L91.0873 99.3502L91.226 97.6616L102.36 95.7821L109.969 92.5746L119.014 95.1168L126.056 97.4389C126.056 97.4389 126.068 98.433 126.123 99.6339C126.195 101.206 126.322 103.133 126.623 103.634C127.127 104.519 127 109.272 127 109.272C127 109.272 127.5 118.943 128.131 120.003C128.761 121.063 128.887 123.272 128.697 123.714C128.507 124.157 129.327 135.77 129.327 135.77C129.327 135.77 131.432 156.322 130.112 159.421C128.791 162.52 123.801 160.49 123.801 160.49C123.801 160.49 124.042 159.663 122.595 159.273C121.148 158.883 116.74 129.742 116.74 129.742C116.74 129.742 115.92 123.767 115.167 122.055C114.413 120.342 113.72 115.531 113.72 115.531C113.72 115.531 109.065 107.568 109.004 105.797C109.004 105.797 108.395 104.14 107.82 105.964C107.244 107.788 105.546 112.156 105.546 112.156L103.891 117.522L101.944 125.538L100.683 132.287C100.683 132.287 98.7962 141.244 98.4947 141.631C98.1932 142.018 98.4947 150.202 98.4947 150.202C98.4947 150.202 97.0355 157.171 94.9734 158.387C92.9112 159.604 87.4478 158.407 87.4478 158.407C87.4478 158.407 87.1258 141.125 87.1891 140.295Z" fill="#2F2E41"/>
<path d="M91.939 70.7527L94.4141 76.4514L91.36 79.2304L92.7048 80.2881L91.7129 81.7838L89.126 97.4581L103.308 101.569L108.083 96.9925L111.849 101.569L128.259 98.5044L124.074 78.5161V77.2094L122.892 74.6863V69.3447L128.319 53.4445L116.7 50.951L112.247 48.2572L110.806 52.0457L104.671 51.2114L104.511 48.3655L99.8166 51.7553L93.5579 52.6172L88.8248 53.4445L88.2217 54.5966L89.4275 54.3661L91.538 69.3561L91.939 70.7527Z" fill="#2F2E41"/>
<path d="M101.482 55.3664L104.511 48.3819L112.247 48.2573L114.814 55.3664L124.041 100.688C124.041 100.688 95.7735 107.609 96.0602 99.2891C96.3617 90.5412 97.7219 78.9212 97.7219 78.9212L101.482 55.3664Z" fill="#3F3D56"/>
<path d="M108.206 46.4282C113.239 46.4282 117.319 42.8407 117.319 38.4153C117.319 33.9899 113.239 30.4023 108.206 30.4023C103.173 30.4023 99.0928 33.9899 99.0928 38.4153C99.0928 42.8407 103.173 46.4282 108.206 46.4282Z" fill="#A0616A"/>
<path d="M98.5554 32.6024C100.039 31.1825 101.895 28.5834 107.516 27.492C114.461 26.1434 117.743 31.6602 115.992 31.7507C121.113 33.1144 117.823 42.4337 116.355 41.6521C116.342 41.6444 116.33 41.6361 116.319 41.6272C115.529 41.1159 114.866 40.4683 114.371 39.7242C113.875 38.98 113.558 38.1549 113.437 37.2991L113.158 35.0938C113.119 36.8881 111.033 37.1255 108.902 36.4646C109.028 36.0712 109.268 35.7135 109.6 35.4268C109.931 35.14 110.341 34.9342 110.791 34.8295C109.487 35.8867 107.79 36.643 105.42 36.884C105.711 35.894 106.291 35.1652 107.198 34.7332L107.114 34.6605C106.246 35.2416 105.341 35.8001 104.297 36.0632C103.122 36.3592 101.715 36.1991 100.91 35.3906C100.693 35.1675 100.53 34.9085 100.429 34.6288C100.603 36.0498 99.5185 37.6719 98.6765 37.3934C97.9761 37.2737 97.5677 33.5476 98.5554 32.6024Z" fill="#2F2E41"/>
<path d="M119.442 37.9734L127.73 50.2338L133.856 47.6898C133.856 47.6898 123.301 36.0977 122.964 35.7642C123.108 35.2008 123.054 34.6122 122.81 34.0762C122.565 33.5403 122.141 33.0824 121.594 32.763C121.047 32.4435 120.402 32.2777 119.745 32.2874C119.089 32.2971 118.451 32.4818 117.916 32.8172C117.381 33.1526 116.975 33.6228 116.751 34.1656C116.527 34.7084 116.495 35.2983 116.661 35.8572C116.826 36.4161 117.181 36.9176 117.677 37.2955C118.174 37.6734 118.789 37.9098 119.442 37.9734Z" fill="#A0616A"/>
<path d="M123.455 68.4409L136.318 60.2934C137.157 59.7618 137.861 59.0821 138.384 58.2978C138.908 57.5135 139.239 56.6418 139.357 55.7384C139.476 54.835 139.379 53.9198 139.072 53.0513C138.765 52.1828 138.256 51.3802 137.576 50.6947L128.319 41.3578L124.286 46.1627L127.395 51.8773L121.376 53.2727L123.455 68.4409Z" fill="#2F2E41"/>
<path d="M101.378 39.1259L93.0899 51.3862L86.9641 48.8423C86.9641 48.8423 97.5197 37.2502 97.856 36.9167C97.7119 36.3532 97.7659 35.7646 98.0106 35.2287C98.2553 34.6928 98.6793 34.2348 99.2265 33.9154C99.7737 33.596 100.418 33.4302 101.075 33.4399C101.732 33.4495 102.369 33.6343 102.904 33.9697C103.439 34.3051 103.845 34.7753 104.069 35.3181C104.293 35.8609 104.325 36.4508 104.159 37.0097C103.994 37.5685 103.64 38.0701 103.143 38.448C102.646 38.8259 102.031 39.0622 101.378 39.1259Z" fill="#A0616A"/>
<path d="M97.3653 69.5933L84.5026 61.4457C83.6634 60.9142 82.9596 60.2345 82.4362 59.4502C81.9128 58.6658 81.5813 57.7941 81.4628 56.8907C81.3444 55.9873 81.4417 55.0721 81.7484 54.2036C82.0551 53.3352 82.5646 52.5325 83.2442 51.8471L92.5013 42.5101L96.5341 47.3151L93.4257 53.0296L99.4444 54.4251L97.3653 69.5933Z" fill="#2F2E41"/>
<path d="M8.49996 43.7411C8.69758 43.998 8.95686 44.2137 9.25954 44.3729C9.56221 44.5322 9.90092 44.6312 10.2518 44.6629C10.6027 44.6946 10.9572 44.6583 11.2904 44.5565C11.6236 44.4547 11.9274 44.2899 12.1803 44.0738L19.842 47.4583L19.32 43.5676L12.1244 40.95C11.6832 40.6005 11.1115 40.4055 10.5176 40.4018C9.9238 40.3981 9.34906 40.5861 8.90231 40.9301C8.45557 41.2742 8.16786 41.7503 8.0937 42.2684C8.01954 42.7865 8.16409 43.3105 8.49996 43.7411Z" fill="#9E616A"/>
<path d="M40.1962 59.4453L36.3814 57.132C36.3814 57.132 32.0129 56.8715 31.3559 55.6504C30.6989 54.4292 30.5881 54.8398 29.8877 54.6937C29.1873 54.5477 28.8259 52.7097 27.6518 52.9265C25.0103 53.4144 12.5873 46.1966 13.9281 45.2945L14.9247 41.5995C15.9778 41.9452 17.0758 42.1741 18.1932 42.2811C19.8829 42.4166 23.8638 44.114 24.4535 44.6707C25.0431 45.2273 26.0877 45.0114 27.4885 45.3036C28.8893 45.5957 29.3796 47.5769 31.7029 47.0497C34.9719 46.3079 51.9078 53.3709 53.7401 54.0302C55.751 54.7538 57.1553 56.9107 57.1553 56.9107L56.6016 58.9635L40.1962 59.4453Z" fill="#5A66DF"/>
<path d="M67.7276 164.39H71.0523L72.6344 153.114H67.7273L67.7276 164.39Z" fill="#9E616A"/>
<path d="M66.6424 162.388L71.9541 162.109V164.11L77.0042 167.177C77.2536 167.328 77.4415 167.546 77.5403 167.798C77.6392 168.05 77.6438 168.323 77.5536 168.577C77.4634 168.832 77.2831 169.054 77.0389 169.212C76.7947 169.37 76.4995 169.455 76.1964 169.455H69.8726L68.7825 167.476L68.357 169.455H65.9726L66.6424 162.388Z" fill="#2F2E41"/>
<path d="M26.0564 161.906L29.1455 162.987L35.3584 153.026L30.7994 151.43L26.0564 161.906Z" fill="#9E616A"/>
<path d="M25.8905 159.693L30.9429 161.161L30.1012 163.021L33.5032 167.512C33.6713 167.734 33.7543 167.997 33.7401 168.264C33.726 168.53 33.6154 168.785 33.4246 168.992C33.2338 169.199 32.9726 169.347 32.6793 169.415C32.3861 169.482 32.076 169.465 31.7943 169.367L25.9188 167.31L25.7387 165.117L24.5107 166.817L22.2954 166.042L25.8905 159.693Z" fill="#2F2E41"/>
<path d="M61.0256 130.837L55.4813 108.087L46.8239 133.364L33.1152 157.332L33.0426 157.46L28.7002 155.404C28.0873 145.671 29.5428 136.552 34.8664 128.577L37.3872 106.688C37.4644 105.94 39.3448 88.3813 45.299 85.2675L47.0427 81.7715L64.3858 78.0052L64.4489 78.0678C66.1166 79.7159 67.2182 81.7463 67.6258 83.923L72.8081 111.527L72.811 111.542L71.4215 130.799L73.3222 159.21H66.4448C62.1902 152.171 60.3838 142.713 61.0256 130.837Z" fill="#2F2E41"/>
<path d="M75.9553 35.4263C76.2196 35.6317 76.4295 35.8855 76.5702 36.1699C76.7109 36.4543 76.779 36.7624 76.7697 37.0725C76.7603 37.3825 76.6738 37.687 76.5161 37.9644C76.3584 38.2419 76.1335 38.4855 75.8572 38.6783L78.6892 45.7943L74.3681 44.8388L72.3412 38.2278C72.0038 37.7981 71.8573 37.2745 71.9295 36.7563C72.0018 36.238 72.2877 35.761 72.7332 35.4157C73.1786 35.0704 73.7527 34.8807 74.3465 34.8827C74.9404 34.8847 75.5128 35.0781 75.9553 35.4263H75.9553Z" fill="#9E616A"/>
<path d="M41.9308 89.1779C41.4637 89.1779 41.1984 89.0974 41.0957 88.9247C40.9449 88.6712 41.2065 88.3401 41.5094 87.9565C41.7206 87.6893 42.3376 87.1579 42.0342 87.1253C37.4335 86.6313 39.6419 61.6907 41.6358 58.394C42.0409 57.7242 41.6123 56.6964 42.0685 55.5597C43.3146 52.4553 45.0156 51.5011 48.4043 49.6006C48.6793 49.4463 48.9658 49.2852 49.2636 49.1172C49.6488 48.8995 49.6273 48.1778 49.6046 47.4135C49.5795 46.5642 49.5533 45.6857 50.0266 45.1367L50.0574 45.1009L50.107 45.0908C51.2517 44.8581 55.1016 44.4261 57.3816 45.0939L57.4131 45.1034L57.4366 45.1239C57.9782 45.6001 58.0276 46.5226 58.0753 47.4145C58.1144 48.1469 58.1514 48.8383 58.4578 49.1387C60.8004 51.4346 63.4572 51.3899 63.4842 51.3894L63.6158 51.386L63.6288 51.5011C65.2712 54.2498 63.9853 64.4578 65.1269 70.7988C66.2867 77.2408 76.1917 82.7246 67.7103 83.6982C67.7286 83.723 67.7388 83.7517 67.7398 83.7812C67.7408 83.8107 67.7326 83.8399 67.7161 83.8656C67.2037 84.7075 43.6912 89.1779 41.9308 89.1779Z" fill="#5A66DF"/>
<path d="M80.272 57.7648L75.5645 59.8179C66.4935 62.8818 61.7527 62.1355 59.3709 60.9707C56.8296 59.7278 56.3889 57.8225 56.3717 57.742L56.3701 57.7032L56.9508 53.6588C57.0246 53.1451 57.2217 52.651 57.5291 52.2094C57.8365 51.7677 58.2472 51.3886 58.7339 51.097C59.2206 50.8055 59.7722 50.6083 60.3522 50.5184C60.9321 50.4286 61.5272 50.4482 62.0979 50.5758L72.9281 52.9992L72.7306 48.3767L73.1589 46.7123L72.3689 44.6891L72.6926 40.6258L76.5774 39.7898L80.6523 46.2075L79.9203 47.9787L80.6101 48.8604L80.6087 48.9013L80.272 57.7648Z" fill="#5A66DF"/>
<path d="M211.914 169.724L0.33646 169.8C0.247395 169.8 0.162068 169.769 0.0991806 169.713C0.0362933 169.658 0.000976562 169.583 0.000976562 169.504C0.000976562 169.426 0.0362933 169.351 0.0991806 169.295C0.162068 169.24 0.247395 169.209 0.33646 169.208L211.914 169.132C212.003 169.132 212.088 169.164 212.151 169.219C212.214 169.274 212.249 169.35 212.249 169.428C212.249 169.506 212.214 169.581 212.151 169.637C212.088 169.692 212.003 169.724 211.914 169.724Z" fill="#CACACA"/>
<path d="M146.227 26.3305C148.83 21.4647 146.724 15.7765 142.963 14.2212C139.202 12.6658 132.876 14.8668 130.273 19.7326C127.864 24.2366 129.658 29.5119 132.747 31.4337C132.695 31.4472 132.647 31.4692 132.604 31.4987L131.862 32.0362C131.805 32.0772 131.762 32.1302 131.735 32.1902C131.708 32.2502 131.699 32.3153 131.709 32.3791C131.719 32.443 131.747 32.5036 131.791 32.5551C131.835 32.6066 131.894 32.6474 131.961 32.6736L133.833 33.4051C133.9 33.4313 133.973 33.4419 134.046 33.4361C134.119 33.4303 134.189 33.4082 134.25 33.3718C134.31 33.3355 134.359 33.2862 134.392 33.2285C134.425 33.1708 134.44 33.1068 134.437 33.0424L134.393 32.1978C134.391 32.1684 134.385 32.1393 134.375 32.1112C138.032 32.9949 143.813 30.8443 146.227 26.3305Z" fill="#E1BA9D"/>
<path d="M144.095 19.3519C144.686 20.8591 144.596 22.5083 143.844 23.9589C143.092 25.4096 141.735 26.551 140.054 27.1476C139.671 27.2877 139.977 27.7874 140.357 27.6481C142.159 26.9881 143.611 25.7535 144.421 24.1918C145.231 22.6302 145.339 20.857 144.725 19.2279C144.595 18.8843 143.964 19.0057 144.095 19.3519Z" fill="white"/>
<path d="M191.893 42.6346C197.16 39.9015 199.061 34.1577 196.948 31.0106C194.836 27.8635 188.198 26.5511 182.931 29.2843C178.056 31.8141 176.162 37.0624 177.485 40.1798C177.433 40.1652 177.379 40.1594 177.325 40.1627L176.367 40.2396C176.294 40.2455 176.224 40.2676 176.164 40.304C176.103 40.3404 176.054 40.3897 176.021 40.4474C175.989 40.5051 175.973 40.5692 175.977 40.6335C175.98 40.6979 176.002 40.7605 176.041 40.8153L177.12 42.3465C177.158 42.4012 177.212 42.4465 177.276 42.4778C177.34 42.5091 177.412 42.5255 177.486 42.5255C177.559 42.5254 177.631 42.5088 177.695 42.4774C177.759 42.446 177.813 42.4007 177.851 42.3458L178.356 41.6261C178.373 41.6007 178.386 41.5736 178.396 41.5454C180.853 44.0861 187.008 45.17 191.893 42.6346Z" fill="#5A66DF"/>
<path d="M194.599 35.8117C194.122 37.3499 192.992 38.6683 191.442 39.495C189.891 40.3217 188.039 40.5935 186.268 40.2543C185.861 40.1805 185.794 40.7449 186.198 40.8181C188.11 41.1646 190.1 40.8626 191.769 39.9729C193.439 39.0832 194.664 37.6715 195.199 36.0208C195.311 35.6725 194.712 35.4608 194.599 35.8117Z" fill="white"/>
<path d="M158.37 20.2855C157.707 19.0018 157.399 17.5981 157.471 16.1894C157.544 14.7808 157.995 13.4074 158.788 12.1818C159.014 11.8365 159.24 11.4185 159.735 11.3522C159.922 11.3222 160.116 11.349 160.283 11.4281C160.451 11.5073 160.583 11.6341 160.659 11.7879C160.725 11.9924 160.713 12.2105 160.624 12.4084C160.535 12.6063 160.375 12.7731 160.168 12.883C159.961 12.9929 159.718 13.0398 159.478 13.0165C159.237 12.9932 159.012 12.901 158.837 12.7542C157.898 12.0884 158.017 10.9168 158.107 9.97371C158.313 7.82476 158.31 5.56867 157.27 3.56856C156.308 1.71803 154.344 0.170164 151.972 0.00111702C151.557 -0.0284496 151.534 0.538499 151.947 0.567924C154.299 0.735584 156.14 2.43963 156.922 4.30464C157.363 5.42747 157.583 6.60848 157.571 7.7965C157.579 8.40629 157.547 9.01601 157.493 9.62386C157.412 10.2164 157.391 10.8141 157.43 11.4099C157.541 12.3823 158.21 13.4249 159.406 13.5803C160.521 13.7252 161.611 12.6991 161.309 11.7241C161.236 11.5133 161.105 11.3217 160.927 11.1665C160.75 11.0112 160.531 10.8971 160.291 10.8345C160.05 10.7719 159.796 10.7627 159.551 10.8076C159.306 10.8526 159.077 10.9504 158.885 11.0923C158.466 11.3998 158.194 11.9281 157.955 12.3502C157.233 13.6201 156.845 15.0163 156.818 16.4358C156.791 17.8553 157.127 19.2619 157.801 20.5522C157.978 20.8826 158.547 20.6152 158.37 20.2855L158.37 20.2855Z" fill="#CCCCCC"/>
<path d="M60.9897 46.7253C60.7467 46.3352 60.3285 45.2196 59.8595 45.2345C59.3796 45.253 58.899 45.2171 58.4296 45.1277C58.3788 45.1202 58.3279 45.1103 58.2799 45.1003C56.2983 44.6655 54.2664 44.4321 52.2243 44.4046C50.5769 44.3848 48.7684 44.5587 47.6184 45.5948C46.4683 46.6308 46.6378 48.7676 48.2231 49.1626C42.9254 49.9692 37.4796 48.9078 33.0658 46.2084C30.2598 44.4742 28.0106 42.1511 25.6313 39.9796C23.252 37.8056 20.6297 35.716 17.4225 34.6526C14.2125 33.5867 10.2875 33.7358 7.70199 35.721C4.54846 38.141 4.30545 42.3052 4.30262 45.9848C4.2998 47.3613 4.78865 47.0706 6.17044 47.7191C7.45332 48.3203 8.8012 49.5577 9.58393 48.4818C10.3667 47.406 10.5051 46.0768 10.6662 44.8071C10.8244 43.5375 11.059 42.2008 11.9745 41.2094C13.5484 39.505 16.6483 39.4876 18.8213 40.5684C20.9943 41.6492 22.4552 43.54 23.837 45.3687C25.2187 47.1948 26.6768 49.0906 28.847 50.1788C31.6982 51.6075 35.2784 51.3963 38.2539 52.6137C40.1443 53.3889 41.673 54.6884 43.2413 55.8934C44.8124 57.0984 46.5333 58.2587 48.5706 58.6488C50.6052 59.0414 53.0212 58.45 54.0215 56.8425C54.9229 55.389 54.4821 53.5281 55.2846 52.0274C55.9034 50.8695 57.1665 50.1018 58.3053 49.3018C58.7744 48.9713 58.8959 50.1093 59.2943 49.7068C60.4444 49.5055 61.5238 47.5824 60.9897 46.7253Z" fill="#3F3D56"/>
<path d="M53.0665 44.6695C57.9977 44.6695 61.9953 41.1546 61.9953 36.8187C61.9953 32.4828 57.9977 28.9679 53.0665 28.9679C48.1353 28.9679 44.1377 32.4828 44.1377 36.8187C44.1377 41.1546 48.1353 44.6695 53.0665 44.6695Z" fill="#2F2E41"/>
<path d="M53.7853 45.3176C57.3277 45.2293 60.1181 42.6328 60.0177 39.518C59.9173 36.4033 56.9643 33.9498 53.4219 34.0381C49.8794 34.1263 47.0891 36.7229 47.1895 39.8376C47.2899 42.9524 50.2429 45.4058 53.7853 45.3176Z" fill="#9E616A"/>
<path d="M53.6656 31.0735L51.0644 31.1383C49.4252 31.1803 47.8719 31.7924 46.7454 32.8403C45.6189 33.8882 45.0112 35.2862 45.0558 36.7276L45.0574 36.7783L45.1048 36.8044C46.5186 37.6269 48.1874 38.0444 49.8819 37.9995L50.0282 37.9959L51.4654 37.9386C51.7072 37.3912 51.788 36.7991 51.7004 36.217C51.9175 36.7688 52.0869 37.3342 52.2073 37.9084L58.6561 37.6503C59.0313 37.6339 59.3844 37.4893 59.6401 37.2473C59.8958 37.0052 60.0337 36.6849 60.0246 36.3547C59.9762 34.9134 59.2795 33.5478 58.0873 32.5577C56.8952 31.5676 55.3049 31.0338 53.6656 31.0735Z" fill="#2F2E41"/>
<path d="M48.4822 29.6578C47.8952 30.2944 46.9524 30.5596 46.1054 30.9044C44.6109 31.5258 43.3114 32.4584 42.3195 33.6213C41.3276 34.7842 40.6733 36.1422 40.4133 37.5777C40.2137 38.7467 40.2835 39.9498 39.9456 41.093C39.6099 42.2361 38.724 43.3715 37.4076 43.6012C36.5169 43.7579 35.6097 43.4764 34.7581 43.1973C34.2898 43.0452 33.8214 42.8924 33.353 42.739C33.8017 41.6614 34.2496 40.5837 34.6968 39.5061C33.9553 40.531 33.0851 41.4795 32.1027 42.3335C30.4242 41.7865 28.7442 41.2395 27.0628 40.6926C31.1533 40.6043 30.3429 37.1306 31.1451 33.6051C31.586 31.6678 35.8268 30.2578 36.6075 28.4056C37.0293 27.401 37.7695 26.5237 38.7406 25.8775C39.7117 25.2313 40.873 24.8432 42.0871 24.7592C43.3012 24.6752 44.5173 24.8988 45.5914 25.4036C46.6655 25.9083 47.5526 26.673 48.1478 27.6072C48.9971 27.8805 49.0585 29.0293 48.4822 29.6578Z" fill="#2F2E41"/>
<path d="M48.8912 31.9925C50.7274 31.9925 52.216 30.6837 52.216 29.0691C52.216 27.4546 50.7274 26.1458 48.8912 26.1458C47.055 26.1458 45.5665 27.4546 45.5665 29.0691C45.5665 30.6837 47.055 31.9925 48.8912 31.9925Z" fill="#2F2E41"/>
</g>
<defs>
<clipPath id="clip0_247_521">
<rect width="212.25" height="169.8" fill="white"/>
</clipPath>
</defs>
</svg>
