<svg width="120" height="90" viewBox="0 0 120 90" fill="none" xmlns="http://www.w3.org/2000/svg">
<g clip-path="url(#clip0_247_447)">
<path opacity="0.1" d="M21.5023 2.47676C21.5023 2.47676 -7.11675 1.04095 2.33561 36.1631C7.73728 56.238 4.35041 68.8422 0.455129 75.9594C-1.15116 78.894 1.71396 82.1786 5.52599 81.7888C18.2609 80.4866 40.8722 80.121 68.1036 88.1837C100.82 97.8677 114.818 66.2566 119.537 51.1464C120.926 46.7009 119.108 41.9792 114.895 39.0557C102.698 30.5833 78.0455 12.459 79.1345 5.12749C80.5787 -4.59185 21.5023 2.47676 21.5023 2.47676Z" fill="#5A66DF"/>
<path d="M64.8766 17.3048C61.726 16.1866 58.4052 15.6168 55.0601 15.6205C38.9362 15.6205 25.865 28.6256 25.865 44.6681C25.8601 48.4937 26.6171 52.2824 28.0925 55.8153C29.5678 59.3482 31.7321 62.5551 34.4603 65.251C35.9034 64.7738 38.4133 64.1686 40.7978 64.6678C40.7978 64.6678 50.8485 59.9064 56.4 70.4773L58.6013 73.5025C60.0871 73.3242 61.5568 73.0317 62.9972 72.6277C75.2636 69.1873 84.2553 57.9736 84.2553 44.6681C84.2553 32.0528 76.1717 21.3151 64.8766 17.3048ZM55.1079 54.0969C49.7417 54.0969 45.3924 49.9187 45.3924 44.7641C45.3924 39.6096 49.7428 35.4314 55.1079 35.4314C60.4729 35.4314 64.8233 39.6096 64.8233 44.7641C64.8233 49.9187 60.474 54.0969 55.1079 54.0969Z" fill="#5A66DF"/>
<path opacity="0.1" d="M75.6178 50.3804C73.9726 45.0856 78.4274 38.8663 75.6422 34.0652C75.2159 33.3329 74.6365 32.6835 74.3223 31.8971C73.7839 30.5496 74.1003 29.0023 73.6895 27.6118C72.595 23.8919 67.1933 23.1232 65.5016 19.6319C65.1577 18.9057 65.0082 18.1033 65.0675 17.3026C61.9168 16.1851 58.596 15.6161 55.2511 15.6205C39.1271 15.6205 26.0559 28.6257 26.0559 44.6681C26.0459 51.7983 28.6822 58.6811 33.459 63.9963C33.8438 64.4256 34.2413 64.8435 34.6512 65.2499C36.0944 64.7728 38.6043 64.1675 40.9887 64.6667C40.9887 64.6667 50.7197 60.0567 56.3201 69.9793C56.4118 70.1412 56.5021 70.3069 56.5909 70.4763L58.7922 73.5014C60.2784 73.3232 61.7485 73.0308 63.1893 72.6267C65.5204 69.8169 66.3797 65.7789 69.3414 63.6087C70.4648 62.7847 71.8179 62.2999 72.9036 61.4262C74.4377 60.1914 75.2836 58.3205 76.074 56.5213C76.3804 55.8244 76.6912 55.1087 76.7401 54.3499C76.8222 52.9682 76.0285 51.7047 75.6178 50.3804ZM55.3032 54.0981C49.9371 54.0981 45.5878 49.9199 45.5878 44.7653C45.5878 39.6107 49.9382 35.4325 55.3032 35.4325C60.6683 35.4325 65.0187 39.6107 65.0187 44.7653C65.0187 49.9199 60.666 54.097 55.2999 54.097L55.3032 54.0981Z" fill="black"/>
<path d="M75.4302 50.3804C73.7861 45.0856 78.2453 38.8663 75.4546 34.0685C75.0283 33.3362 74.4489 32.6868 74.1347 31.9004C73.5963 30.5529 73.9127 29.0056 73.502 27.6151C72.4074 23.8952 67.0057 23.1265 65.314 19.6353C64.9701 18.909 64.8206 18.1066 64.8799 17.3059C61.7283 16.1869 58.4064 15.6168 55.0601 15.6205C38.9362 15.6205 25.865 28.6256 25.865 44.6681C25.855 51.7983 28.4913 58.6811 33.2681 63.9963C33.6529 64.4256 34.0503 64.8435 34.4603 65.2499C35.9034 64.7728 38.4133 64.1675 40.7978 64.6667C40.7978 64.6667 50.5288 60.0567 56.1292 69.9792C56.2209 70.1412 56.3112 70.3069 56.4 70.4763L58.6013 73.5014C60.0871 73.3235 61.5568 73.0314 62.9972 72.6278C65.3284 69.818 66.1876 65.78 69.1493 63.6098C70.2727 62.7858 71.6259 62.301 72.7116 61.4273C74.2457 60.1925 75.0916 58.3216 75.882 56.5224C76.1884 55.8255 76.4992 55.1098 76.548 54.351C76.6313 52.9682 75.8365 51.7047 75.4302 50.3804ZM55.1157 54.0981C49.7495 54.0981 45.4002 49.9198 45.4002 44.7653C45.4002 39.6107 49.7506 35.4325 55.1157 35.4325C60.4807 35.4325 64.8311 39.6107 64.8311 44.7653C64.8311 49.9198 60.474 54.097 55.1079 54.097L55.1157 54.0981Z" fill="#636E7E"/>
<path opacity="0.1" d="M31.4485 34.6317L31.4474 34.632C31.1468 34.7318 30.9843 35.0553 31.0846 35.3544L32.5693 39.782C32.6696 40.0812 32.9947 40.2428 33.2953 40.1429L33.2964 40.1426C33.5971 40.0428 33.7595 39.7194 33.6592 39.4202L32.1745 34.9926C32.0742 34.6935 31.7492 34.5319 31.4485 34.6317Z" fill="black"/>
<path opacity="0.1" d="M40.1384 61.5568L40.1386 61.5557C40.1886 61.2443 39.9755 60.9515 39.6625 60.9017L35.03 60.1651C34.7171 60.1153 34.4228 60.3274 34.3728 60.6388L34.3726 60.6399C34.3226 60.9514 34.5357 61.2442 34.8487 61.2939L39.4812 62.0305C39.7941 62.0803 40.0884 61.8682 40.1384 61.5568Z" fill="black"/>
<path opacity="0.1" d="M39.2319 44.1015L39.2311 44.1007C38.9975 43.8875 38.6345 43.9031 38.4202 44.1355L35.2491 47.5751C35.0348 47.8075 35.0505 48.1687 35.2841 48.3819L35.2849 48.3826C35.5185 48.5958 35.8815 48.5802 36.0958 48.3478L39.2669 44.9082C39.4812 44.6758 39.4655 44.3146 39.2319 44.1015Z" fill="black"/>
<path opacity="0.1" d="M39.3919 50.5379L39.3909 50.5383C39.0902 50.6381 38.9278 50.9615 39.0281 51.2607L40.5127 55.6882C40.6131 55.9874 40.9381 56.149 41.2388 56.0492L41.2398 56.0488C41.5405 55.949 41.703 55.6256 41.6026 55.3264L40.118 50.8989C40.0176 50.5997 39.6926 50.4381 39.3919 50.5379Z" fill="black"/>
<path d="M31.3524 34.6319L31.3513 34.6323C31.0507 34.7321 30.8883 35.0555 30.9886 35.3547L32.4732 39.7822C32.5735 40.0814 32.8986 40.243 33.1992 40.1432L33.2003 40.1428C33.501 40.043 33.6634 39.7196 33.5631 39.4205L32.0784 34.9929C31.9781 34.6937 31.6531 34.5321 31.3524 34.6319Z" fill="#5A66DF"/>
<path opacity="0.1" d="M44.5925 32.1963L44.5916 32.1956C44.3581 31.9824 43.995 31.998 43.7807 32.2304L40.6096 35.6699C40.3953 35.9023 40.411 36.2636 40.6446 36.4767L40.6454 36.4775C40.879 36.6907 41.242 36.6751 41.4563 36.4427L44.6274 33.0031C44.8417 32.7707 44.826 32.4095 44.5925 32.1963Z" fill="black"/>
<path opacity="0.1" d="M57.967 25.8918L57.9659 25.8914C57.6679 25.784 57.3388 25.9374 57.2309 26.2339L55.6341 30.6227C55.5263 30.9192 55.6804 31.2467 55.9784 31.354L55.9795 31.3544C56.2775 31.4617 56.6066 31.3083 56.7145 31.0118L58.3112 26.623C58.4191 26.3265 58.265 25.9991 57.967 25.8918Z" fill="black"/>
<path opacity="0.1" d="M65.2989 26.1266L65.2978 26.1268C64.9836 26.1685 64.7629 26.4558 64.8049 26.7684L65.4262 31.3948C65.4681 31.7074 65.7569 31.9269 66.071 31.8851L66.0721 31.885C66.3863 31.8432 66.607 31.556 66.565 31.2434L65.9437 26.617C65.9018 26.3044 65.613 26.0849 65.2989 26.1266Z" fill="black"/>
<path opacity="0.1" d="M45.9985 26.682L45.9981 26.6831C45.8902 26.9796 46.0443 27.307 46.3424 27.4143L50.7535 29.003C51.0515 29.1104 51.3806 28.957 51.4885 28.6605L51.4888 28.6595C51.5967 28.3629 51.4426 28.0355 51.1445 27.9282L46.7335 26.3395C46.4354 26.2321 46.1063 26.3855 45.9985 26.682Z" fill="black"/>
<path opacity="0.1" d="M71.8464 34.3692L71.8454 34.3688C71.5473 34.2615 71.2183 34.4148 71.1104 34.7113L69.5136 39.1001C69.4057 39.3967 69.5598 39.7241 69.8579 39.8314L69.8589 39.8318C70.157 39.9391 70.486 39.7857 70.5939 39.4892L72.1907 35.1004C72.2986 34.8039 72.1445 34.4765 71.8464 34.3692Z" fill="black"/>
<path opacity="0.1" d="M57.3971 19.6455L57.3965 19.6445C57.238 19.3714 56.887 19.2779 56.6125 19.4355L52.5498 21.7693C52.2753 21.927 52.1812 22.2762 52.3397 22.5493L52.3403 22.5503C52.4988 22.8234 52.8498 22.9169 53.1243 22.7593L57.187 20.4255C57.4615 20.2678 57.5556 19.9186 57.3971 19.6455Z" fill="black"/>
<path d="M44.4966 32.1962L44.4957 32.1954C44.2622 31.9823 43.8991 31.9978 43.6849 32.2302L40.5137 35.6698C40.2994 35.9022 40.3151 36.2634 40.5487 36.4766L40.5495 36.4773C40.7831 36.6905 41.1461 36.6749 41.3604 36.4425L44.5315 33.003C44.7458 32.7706 44.7301 32.4094 44.4966 32.1962Z" fill="#5A66DF"/>
<path d="M57.8717 25.8915L57.8706 25.8911C57.5726 25.7838 57.2435 25.9372 57.1356 26.2337L55.5388 30.6225C55.4309 30.919 55.5851 31.2464 55.8831 31.3538L55.8842 31.3541C56.1822 31.4615 56.5113 31.3081 56.6192 31.0116L58.216 26.6228C58.3239 26.3263 58.1697 25.9989 57.8717 25.8915Z" fill="#5A66DF"/>
<path d="M65.2031 26.1259L65.202 26.126C64.8878 26.1678 64.6671 26.4551 64.7091 26.7676L65.3304 31.394C65.3724 31.7066 65.6611 31.9261 65.9753 31.8844L65.9764 31.8842C66.2906 31.8425 66.5112 31.5552 66.4692 31.2426L65.848 26.6163C65.806 26.3037 65.5173 26.0841 65.2031 26.1259Z" fill="#5A66DF"/>
<path d="M45.9026 26.6819L45.9023 26.6829C45.7944 26.9795 45.9485 27.3069 46.2466 27.4142L50.6577 29.0029C50.9557 29.1103 51.2848 28.9569 51.3927 28.6604L51.393 28.6593C51.5009 28.3628 51.3468 28.0354 51.0487 27.9281L46.6376 26.3393C46.3396 26.232 46.0105 26.3854 45.9026 26.6819Z" fill="#5A66DF"/>
<path d="M71.7499 34.3688L71.7489 34.3684C71.4508 34.2611 71.1218 34.4145 71.0139 34.711L69.4171 39.0998C69.3092 39.3963 69.4633 39.7237 69.7614 39.8311L69.7624 39.8314C70.0605 39.9388 70.3895 39.7854 70.4974 39.4889L72.0942 35.1001C72.2021 34.8036 72.048 34.4762 71.7499 34.3688Z" fill="#5A66DF"/>
<path opacity="0.1" d="M72.898 47.7236L72.8975 47.7226C72.7579 47.4395 72.414 47.3226 72.1295 47.4614L67.9177 49.5171C67.6331 49.6559 67.5156 49.9981 67.6552 50.2812L67.6557 50.2822C67.7953 50.5653 68.1391 50.6823 68.4237 50.5434L72.6355 48.4877C72.92 48.3489 73.0376 48.0067 72.898 47.7236Z" fill="black"/>
<path opacity="0.1" d="M65.7915 63.936L65.7916 63.9349C65.8417 63.6235 65.6285 63.3307 65.3155 63.2809L60.6831 62.5443C60.3701 62.4946 60.0758 62.7067 60.0258 63.0181L60.0256 63.0192C59.9756 63.3306 60.1888 63.6234 60.5018 63.6731L65.1342 64.4097C65.4472 64.4595 65.7414 64.2474 65.7915 63.936Z" fill="black"/>
<path opacity="0.1" d="M64.8659 54.472L64.8651 54.4728C64.641 54.6958 64.641 55.0574 64.8651 55.2804L68.1823 58.5808C68.4064 58.8038 68.7698 58.8038 68.9939 58.5808L68.9947 58.58C69.2188 58.357 69.2188 57.9955 68.9947 57.7725L65.6775 54.472C65.4534 54.249 65.09 54.249 64.8659 54.472Z" fill="black"/>
<path d="M72.8015 47.7234L72.801 47.7224C72.6614 47.4392 72.3176 47.3223 72.033 47.4612L67.8213 49.5168C67.5367 49.6557 67.4192 49.9978 67.5588 50.2809L67.5593 50.2819C67.6989 50.565 68.0427 50.682 68.3273 50.5431L72.539 48.4875C72.8236 48.3486 72.9411 48.0065 72.8015 47.7234Z" fill="#5A66DF"/>
<path d="M65.6956 63.9371L65.6957 63.9361C65.7458 63.6246 65.5326 63.3318 65.2196 63.2821L60.5872 62.5455C60.2742 62.4957 59.9799 62.7078 59.9299 63.0192L59.9297 63.0203C59.8797 63.3317 60.0929 63.6245 60.4058 63.6743L65.0383 64.4109C65.3513 64.4607 65.6455 64.2486 65.6956 63.9371Z" fill="#5A66DF"/>
<path d="M39.7868 61.5295L39.787 61.5284C39.8377 61.2162 39.6245 60.9222 39.3107 60.8718L34.6664 60.125C34.3526 60.0745 34.0571 60.2867 34.0064 60.5989L34.0062 60.6C33.9555 60.9122 34.1688 61.2062 34.4825 61.2567L39.1268 62.0035C39.4406 62.0539 39.7361 61.8417 39.7868 61.5295Z" fill="#5A66DF"/>
<path d="M39.136 44.1013L39.1352 44.1006C38.9016 43.8874 38.5386 43.903 38.3243 44.1354L35.1532 47.575C34.9389 47.8074 34.9546 48.1686 35.1882 48.3818L35.189 48.3825C35.4226 48.5957 35.7856 48.5801 35.9999 48.3477L39.171 44.9081C39.3853 44.6757 39.3696 44.3145 39.136 44.1013Z" fill="#5A66DF"/>
<path opacity="0.1" d="M46.0682 54.7274L46.0671 54.7272C45.7565 54.6647 45.4537 54.8645 45.3908 55.1736L44.4603 59.7484C44.3975 60.0575 44.5984 60.3588 44.909 60.4213L44.9101 60.4215C45.2208 60.4841 45.5236 60.2842 45.5865 59.9751L46.5169 55.4003C46.5798 55.0913 46.3789 54.79 46.0682 54.7274Z" fill="black"/>
<path d="M45.9725 54.7271L45.9714 54.7269C45.6608 54.6644 45.358 54.8642 45.2951 55.1733L44.3647 59.7481C44.3018 60.0572 44.5027 60.3585 44.8133 60.421L44.8144 60.4212C45.1251 60.4838 45.4279 60.2839 45.4907 59.9748L46.4212 55.4C46.4841 55.0909 46.2832 54.7897 45.9725 54.7271Z" fill="#5A66DF"/>
<path d="M64.7695 54.4719L64.7687 54.4726C64.5446 54.6956 64.5446 55.0572 64.7687 55.2802L68.0859 58.5806C68.3101 58.8036 68.6734 58.8036 68.8976 58.5806L68.8983 58.5798C69.1225 58.3568 69.1225 57.9953 68.8983 57.7723L65.5812 54.4719C65.357 54.2489 64.9936 54.2489 64.7695 54.4719Z" fill="#5A66DF"/>
<path opacity="0.1" d="M57.2207 58.2833L57.2199 58.2825C56.9958 58.0595 56.6324 58.0595 56.4083 58.2825L53.0911 61.5829C52.8669 61.8059 52.8669 62.1674 53.0911 62.3904L53.0918 62.3912C53.316 62.6142 53.6793 62.6142 53.9035 62.3912L57.2207 59.0908C57.4448 58.8678 57.4448 58.5063 57.2207 58.2833Z" fill="black"/>
<path d="M57.1254 58.2835L57.1246 58.2827C56.9005 58.0597 56.5371 58.0597 56.313 58.2827L52.9958 61.5831C52.7717 61.8061 52.7717 62.1676 52.9958 62.3906L52.9966 62.3914C53.2207 62.6144 53.5841 62.6144 53.8082 62.3914L57.1254 59.091C57.3495 58.868 57.3495 58.5064 57.1254 58.2835Z" fill="#5A66DF"/>
<path d="M57.3016 19.6461L57.3011 19.6451C57.1426 19.372 56.7916 19.2785 56.5171 19.4361L52.4543 21.7699C52.1798 21.9276 52.0858 22.2768 52.2443 22.5499L52.2448 22.5509C52.4033 22.824 52.7543 22.9175 53.0288 22.7599L57.0915 20.4261C57.366 20.2684 57.4601 19.9192 57.3016 19.6461Z" fill="#5A66DF"/>
<path d="M39.2969 50.5382L39.2959 50.5385C38.9952 50.6383 38.8328 50.9618 38.9331 51.2609L40.4178 55.6885C40.5181 55.9877 40.8431 56.1493 41.1438 56.0495L41.1449 56.0491C41.4455 55.9493 41.608 55.6259 41.5076 55.3267L40.023 50.8991C39.9227 50.6 39.5976 50.4384 39.2969 50.5382Z" fill="#5A66DF"/>
<path d="M56.1291 69.9814C50.5288 60.0589 40.7956 64.6689 40.7956 64.6689C38.4111 64.1697 35.9034 64.7794 34.4581 65.2521C34.0481 64.8464 33.6507 64.4285 33.2659 63.9985C35.032 63.4176 38.5454 62.4523 40.7034 63.1448C40.7023 63.1448 52.6035 58.7225 56.1291 69.9814Z" fill="#5A66DF"/>
<path opacity="0.1" d="M40.7023 63.3337C40.7023 63.3337 52.2916 59.0262 55.9848 69.7319C56.0326 69.8147 56.0814 69.8953 56.1291 69.9793C52.6035 58.7203 40.699 63.1426 40.699 63.1426C38.5454 62.4512 35.0309 63.4154 33.2614 63.9963C33.3058 64.0461 33.3524 64.0935 33.3968 64.1432C35.2085 63.5612 38.6009 62.661 40.7023 63.3337Z" fill="black"/>
<path opacity="0.1" d="M21.741 63.5898C18.2997 57.8355 16.266 51.7234 15.6932 45.4246C15.2348 40.386 15.7043 35.2182 17.0908 30.0636C19.4498 21.2919 23.7125 15.5178 23.7513 15.4603L24.1954 15.7917C24.1532 15.848 19.946 21.5537 17.6159 30.2293C15.4701 38.2223 14.5254 50.4499 22.2128 63.3104L21.741 63.5898Z" fill="#5A66DF"/>
<path opacity="0.1" d="M27.9575 64.8048C24.5162 59.0505 22.4825 52.9384 21.9097 46.6396C21.4513 41.601 21.9208 36.4332 23.3073 31.2786C25.6662 22.5069 29.929 16.7327 29.9678 16.6753L30.4118 17.0066C30.3697 17.063 26.1624 22.7687 23.8324 31.4443C21.6866 39.4373 20.7419 51.6649 28.4292 64.5253L27.9575 64.8048Z" fill="#5A66DF"/>
<path opacity="0.1" d="M84.8403 75.3624C89.2518 70.3073 92.3445 64.6491 94.0329 58.5535C95.3839 53.6762 95.8424 48.5028 95.3983 43.1903C94.6413 34.1414 91.4775 27.7057 91.4453 27.6416L90.948 27.8868C90.9791 27.9497 94.1029 34.3071 94.8466 43.2566C95.5327 51.5015 94.2805 63.7015 84.4207 75.0002L84.8403 75.3624Z" fill="#5A66DF"/>
<path opacity="0.1" d="M78.5062 75.4607C82.9177 70.4056 86.0104 64.7474 87.6988 58.6518C89.0498 53.7745 89.5083 48.6011 89.0642 43.2886C88.3071 34.2397 85.1434 27.8039 85.1112 27.7399L84.6139 27.9851C84.645 28.048 87.7687 34.4053 88.5125 43.3549C89.1985 51.5998 87.9464 63.7997 78.0866 75.0985L78.5062 75.4607Z" fill="#5A66DF"/>
<path opacity="0.1" d="M38.9417 76.3089C40.6707 78.0673 42.7763 79.4147 45.1016 80.2508C46.9724 80.9043 48.9447 81.2237 50.9273 81.194C54.4018 81.1598 56.9462 80.1437 56.9717 80.1337L56.8918 79.9393C56.8662 79.9493 54.353 80.9521 50.9173 80.9842C47.7513 81.014 43.1301 80.2011 39.0916 76.1609L38.9417 76.3089Z" fill="#5A66DF"/>
<path opacity="0.1" d="M43.624 77.1274C44.4271 77.9438 45.4049 78.5694 46.4847 78.9576C47.3532 79.2623 48.2691 79.4119 49.19 79.3993C50.1467 79.3944 51.0956 79.2278 51.9963 78.9067L51.9596 78.8162C51.0689 79.133 50.1304 79.297 49.1844 79.301C48.164 79.3195 47.1505 79.1304 46.2062 78.7452C45.2619 78.3601 44.4066 77.787 43.6928 77.0612L43.624 77.1274Z" fill="#5A66DF"/>
<path opacity="0.1" d="M52.2228 77.6995C53.0349 76.8921 53.6534 75.9128 54.0322 74.8345C54.3281 73.967 54.4675 73.0543 54.4441 72.1385C54.4293 71.1865 54.2521 70.2438 53.9201 69.3508L53.8291 69.3884C54.1571 70.2712 54.332 71.203 54.3464 72.144C54.3757 73.1591 54.1962 74.1693 53.819 75.1129C53.4418 76.0564 52.8748 76.9134 52.1528 77.6311L52.2228 77.6995Z" fill="#5A66DF"/>
<path opacity="0.1" d="M47.3206 66.8304C46.4517 67.5771 45.7634 68.5092 45.3069 69.5573C44.9485 70.4013 44.743 71.3017 44.6997 72.2169C44.6452 73.1673 44.7533 74.12 45.0194 75.0344L45.1126 75.0035C44.8501 74.0994 44.7439 73.1575 44.7985 72.218C44.8433 71.2037 45.096 70.2091 45.541 69.2954C45.9859 68.3817 46.6138 67.568 47.3861 66.9044L47.3206 66.8304Z" fill="#5A66DF"/>
<path opacity="0.1" d="M14.8751 25.0129C16.2852 25.0129 17.4283 21.8976 17.4283 18.0547C17.4283 14.2118 16.2852 11.0966 14.8751 11.0966C13.465 11.0966 12.3219 14.2118 12.3219 18.0547C12.3219 21.8976 13.465 25.0129 14.8751 25.0129Z" fill="#5A66DF"/>
<path opacity="0.1" d="M76.5957 21.1473C78.0058 21.1473 79.1489 19.2682 79.1489 16.9503C79.1489 14.6324 78.0058 12.7533 76.5957 12.7533C75.1856 12.7533 74.0425 14.6324 74.0425 16.9503C74.0425 19.2682 75.1856 21.1473 76.5957 21.1473Z" fill="#5A66DF"/>
<path opacity="0.1" d="M111.73 52.5098C113.14 52.5098 114.283 50.6308 114.283 48.3128C114.283 45.9949 113.14 44.1158 111.73 44.1158C110.32 44.1158 109.177 45.9949 109.177 48.3128C109.177 50.6308 110.32 52.5098 111.73 52.5098Z" fill="#5A66DF"/>
<path opacity="0.1" d="M19.815 80.0156C26.1604 80.0156 31.3043 76.9003 31.3043 73.0574C31.3043 69.2145 26.1604 66.0992 19.815 66.0992C13.4696 66.0992 8.32562 69.2145 8.32562 73.0574C8.32562 76.9003 13.4696 80.0156 19.815 80.0156Z" fill="#5A66DF"/>
<path d="M63.7177 41.1261C64.9954 39.7775 65.1064 37.8933 65.1064 37.8933L65.4461 34.9112C65.6681 33.4323 65.4106 31.3769 65.4106 31.3769C65.4106 31.3769 66.2576 26.0291 62.7297 26.3295C62.7297 26.3295 62.4933 26.3714 62.1469 26.4134C62.0259 26.4278 61.8916 26.4421 61.7484 26.4543C61.4764 26.4786 61.1756 26.4951 60.8825 26.4918C60.9002 26.4454 60.9128 26.3973 60.9203 26.3482C61.0046 26.0556 60.8981 25.6856 60.8837 25.3542C60.8783 25.2183 60.8895 25.0822 60.917 24.9489C61.0768 24.2983 61.553 23.7108 61.7695 23.0558C61.8059 22.9449 61.8345 22.8316 61.855 22.7167C61.9412 22.3089 61.933 21.8869 61.8309 21.4827C61.7287 21.0786 61.5354 20.7028 61.2655 20.3841C61.0435 20.1301 60.7837 19.9136 60.5828 19.6474C60.2154 19.1615 60.0655 18.5209 59.5904 18.1321C59.022 17.6649 58.497 17.888 57.8931 18.057C57.5667 18.1487 57.4091 18.0062 57.1038 17.8659C56.743 17.6998 56.3642 17.5757 55.9749 17.4959C55.6951 17.4385 55.3899 17.4076 55.139 17.5346C54.7027 17.7555 54.6195 18.3298 54.2642 18.6578C53.909 18.9858 53.3839 19.0068 52.9965 19.2719C52.8489 19.375 52.7239 19.5069 52.6291 19.6596L49.6119 20.1179L46.0596 20.986C46.0596 20.986 44.6165 21.7282 46.4959 24.0333C47.6703 25.4691 48.9258 26.8894 49.704 27.752C49.5442 27.9508 49.371 28.143 49.2 28.3297C49.0424 28.4986 48.8781 28.6743 48.8137 28.8929C48.8056 28.9224 48.7993 28.9522 48.7948 28.9824C48.6217 29.5766 49.2389 30.1311 49.2922 30.7496C49.2987 30.837 49.2942 30.925 49.2788 31.0113C49.1867 31.3703 48.9292 31.695 48.6738 31.9822C48.4185 32.2693 48.1499 32.551 47.9878 32.8944C47.9364 33.0057 47.8991 33.123 47.8768 33.2435C47.8346 33.3819 47.8209 33.5273 47.8363 33.6711C47.8518 33.815 47.8961 33.9542 47.9667 34.0806C48.1299 34.3479 48.4219 34.5125 48.7005 34.666C48.8825 34.7654 49.0779 34.8692 49.2866 34.8593C49.4631 34.8516 49.6285 34.7621 49.805 34.7632C50.3256 34.7632 50.5532 35.469 51.0505 35.6258C51.1372 35.6493 51.2279 35.6548 51.3168 35.6418C51.4058 35.6288 51.491 35.5977 51.5673 35.5504C51.6436 35.5032 51.7092 35.4407 51.7601 35.367C51.811 35.2933 51.8461 35.21 51.8631 35.1222C51.8631 35.1078 51.8709 35.0934 51.8742 35.0791L53.0065 35.6645C53.1139 35.7342 53.2402 35.7693 53.3684 35.765C53.5649 35.7374 53.6692 35.5374 53.7014 35.3408C53.7168 35.2857 53.7261 35.229 53.7292 35.1719C53.7334 35.077 53.7289 34.982 53.7158 34.888H53.7602L53.7736 34.9156L53.8557 34.9079L53.869 34.9355L54.0466 34.92C54.0466 34.941 54.0466 34.9609 54.0466 34.9819C54.1121 35.9914 54.0189 37.0097 53.4516 37.3267C52.4304 37.8977 51.1948 39.7874 50.7963 40.428L50.7763 40.4004C50.7725 40.4349 50.7639 40.4688 50.7508 40.5009C50.6953 40.5904 50.6642 40.6434 50.6642 40.6434L50.581 40.8223C50.1813 41.4618 49.3055 42.479 49.3055 42.479L49.3432 42.4956L49.2855 42.5707C48.7127 43.335 48.0766 44.8658 48.232 47.8434L48.736 52.4292L49.2289 55.6786C49.2289 55.6786 49.3454 58.3713 49.1734 58.717L48.7638 60.6321C48.7638 60.6321 48.0089 63.2365 48.4152 65.0378L48.4785 67.0524L48.7726 71.6912L48.6361 72.3296L48.3375 74.6489C48.3375 74.6489 45.3469 76.5972 47.7891 77.6851C50.2313 78.773 50.2002 77.0523 50.2002 77.0523L50.4933 75.6849L50.6498 73.9366C50.6911 73.4857 50.6841 73.0318 50.6287 72.5825L50.531 71.7917L50.8108 70.4V70.3735C50.8507 70.7049 51.58 70.0367 52.1306 69.4756C52.5252 69.0751 52.8103 68.5808 52.9588 68.0398L53.6137 65.6718C54.3597 64.4955 53.8357 63.7169 53.8357 63.7169L54.5939 60.6365C54.5939 60.6365 55.8805 57.8588 55.149 56.6604C54.4174 55.4621 54.8737 55.1727 54.8737 55.1727L58.5569 51.3755C61.0091 48.906 61.4576 47.2503 61.452 46.3579L61.5064 46.3767C61.4855 46.3425 61.4701 46.3052 61.4609 46.2663L61.5264 46.2884C61.5054 46.2542 61.4901 46.2169 61.4809 46.1779L61.5464 46.2C61.3244 45.8687 61.5963 43.948 61.5963 43.948L61.6108 43.8508C62.0581 43.1693 62.8729 42.0174 63.7177 41.1261ZM54.171 48.1781L54.1843 48.2212C54.151 48.3117 54.1166 48.4034 54.0811 48.4929L54.171 48.1781ZM61.7284 40.1906L61.6019 40.0558C61.5142 39.6383 61.3565 38.4477 62.1303 37.4548C62.531 36.9401 62.7331 36.1294 62.833 35.3674C62.8367 35.3379 62.8404 35.3081 62.8441 35.2779L62.8807 35.2878L62.9728 35.3121C62.884 36.8915 62.9184 38.3892 62.9184 38.3892L61.7284 40.1906ZM53.2285 33.4931C53.0873 33.0681 53.0304 32.6198 53.0609 32.1732C53.0609 32.1246 53.0698 32.076 53.0775 32.0274C53.0897 31.9779 53.108 31.93 53.1319 31.885C53.1386 31.8728 53.1475 31.8629 53.1553 31.8518C53.136 32.0038 53.1286 32.157 53.1331 32.3102C53.1451 32.7552 53.1937 33.1984 53.2785 33.6355C53.2629 33.5869 53.2463 33.5406 53.2285 33.4931ZM50.5643 21.7404C50.811 21.6951 51.0543 21.6331 51.2925 21.5548C51.5669 21.4597 51.8468 21.3812 52.1306 21.3196C51.9608 22.085 51.7066 22.8449 51.1127 23.3529C50.7797 23.639 50.3234 23.8698 50.238 24.295C50.238 24.3094 50.238 24.3238 50.2313 24.337C50.2246 24.3503 50.2213 24.369 50.218 24.3856C50.2021 24.4675 50.1995 24.5514 50.2102 24.6341C49.596 24.1739 49.0147 23.6716 48.4707 23.1309C48.4707 23.1309 49.6907 21.916 50.5643 21.7404ZM51.5734 66.5731L52.074 64.1068V63.517C52.1306 63.8837 52.1651 64.1267 52.1651 64.1267C52.1651 64.1267 51.8853 65.2654 51.5789 66.5731H51.5734Z" fill="url(#paint0_linear_247_447)"/>
<path d="M61.2899 40.4368C61.7484 41.8638 61.0102 45.3164 61.0102 45.3164L54.6638 44.6371L50.3234 41.7235L50.6809 40.9449C50.6809 40.9449 52.1961 38.3218 53.3961 37.626C53.9456 37.3068 54.0422 36.2929 53.9856 35.2889C53.931 34.494 53.8144 33.7045 53.637 32.9275C53.5467 32.6142 53.4239 32.3111 53.2707 32.023C52.3749 30.3066 50.5732 28.9548 50.5732 28.9548C50.5732 28.9548 48.5662 26.7248 46.7634 24.4441C44.9606 22.1634 46.3615 21.4145 46.3615 21.4145L49.7972 20.531L53.8524 19.8683L53.4439 21.7768C53.0531 21.43 52.0152 21.7282 51.4213 21.9414C51.191 22.0205 50.9555 22.0836 50.7164 22.1302C49.8661 22.3125 48.6794 23.523 48.6794 23.523C51.1138 25.9694 52.1018 25.9738 54.5084 27.1578L54.7504 27.2782C54.7982 27.3025 54.8459 27.3246 54.8914 27.3456C57.2626 28.4235 55.3921 24.2795 55.3921 24.2795L58.4637 24.6451C58.4637 24.6451 58.7967 25.7606 59.3207 26.441C59.6337 26.8485 60.6872 26.8342 61.482 26.7558C61.6207 26.7425 61.7506 26.727 61.8672 26.7116C62.2002 26.6674 62.4311 26.6243 62.4311 26.6243C65.8413 26.3018 64.9843 31.6298 64.9843 31.6298L63.2259 32.0086L62.9828 32.0605L62.561 33.5858C62.5857 34.2623 62.5553 34.9398 62.47 35.6114C62.3678 36.3735 62.168 37.1798 61.7773 37.6944C60.8503 38.9193 61.2899 40.4368 61.2899 40.4368Z" fill="#FFB9B9"/>
<path opacity="0.1" d="M59.5608 24.3972C59.9364 22.6407 58.8097 20.9139 57.0443 20.5402C55.2789 20.1665 53.5433 21.2875 53.1677 23.044C52.7921 24.8005 53.9188 26.5273 55.6842 26.901C57.4496 27.2746 59.1852 26.1536 59.5608 24.3972Z" fill="black"/>
<path d="M59.5996 24.2154C59.9751 22.4589 58.8484 20.7321 57.083 20.3584C55.3176 19.9848 53.582 21.1057 53.2064 22.8622C52.8308 24.6187 53.9575 26.3455 55.7229 26.7192C57.4884 27.0929 59.224 25.9719 59.5996 24.2154Z" fill="#FFB9B9"/>
<path d="M47.6603 77.8231C45.3114 76.7562 48.2154 74.8057 48.2154 74.8057L48.5184 72.4952L48.655 71.859L48.4008 67.2456L48.3442 65.241C47.9634 63.4507 48.7094 60.8541 48.7094 60.8541L49.1212 58.9466C49.2899 58.602 49.1956 55.9226 49.1956 55.9226L48.7416 52.692L48.2853 48.1317C48.0566 42.9539 50.1358 42.1598 50.1358 42.1598L51.7488 43.5459L54.4319 46.6031L54.5129 46.6947L53.3395 50.8166L52.0141 54.3355L51.8964 64.2823L50.6343 70.548L50.3545 71.9341L50.4433 72.7205C50.4941 73.168 50.4982 73.6196 50.4555 74.0679L50.2857 75.8141L49.9937 77.177C49.9937 77.177 50.0093 78.8912 47.6603 77.8231Z" fill="#FFB9B9"/>
<path opacity="0.05" d="M50.632 70.5481C50.531 70.5911 50.4655 70.579 50.4544 70.484C50.3956 69.9494 51.8021 64.2636 51.8021 64.2636C51.8021 64.2636 51.3336 60.6498 50.9551 60.1903C50.5765 59.7309 50.5466 57.6346 50.5466 57.6346L50.3023 55.2048C50.2893 54.6784 50.3959 54.1558 50.6143 53.6762C50.8326 53.1965 51.1571 52.7722 51.5634 52.4348C52.7002 51.0483 53.5546 49.4546 54.0788 47.743L54.4285 46.6021L54.5096 46.6937L53.3395 50.8167L52.0141 54.3356L51.8964 64.2824L50.632 70.5481Z" fill="black"/>
<path d="M54.6583 55.3693C54.6583 55.3693 54.2143 55.6554 54.9147 56.8482C55.6152 58.0411 54.353 60.8133 54.353 60.8133L53.6015 63.8859C53.6015 63.8859 54.1044 64.659 53.3795 65.8331L52.7279 68.1933C52.5812 68.7291 52.3032 69.2202 51.9186 69.6225C51.3836 70.1836 50.6731 70.8562 50.6376 70.5238C50.5787 69.9892 51.9852 64.3034 51.9852 64.3034C51.9852 64.3034 51.5168 60.6896 51.1382 60.2301C50.7597 59.7707 50.7297 57.6744 50.7297 57.6744L50.4855 55.2445C50.4721 54.7178 50.5786 54.1948 50.7969 53.7147C51.0153 53.2347 51.3399 52.81 51.7466 52.4723C52.8834 51.0858 53.7378 49.4922 54.262 47.7805L54.9447 45.5517L56.8163 45.2833L57.7477 45.3938L60.5983 45.7328L60.9125 45.7693C60.9125 45.7693 62.0437 47.6237 58.2405 51.5678L54.6583 55.3693Z" fill="#FFB9B9"/>
<path opacity="0.05" d="M50.7508 40.8842C50.7508 40.8842 53.415 44.8017 61.1855 44.3334C61.1855 44.3334 60.9069 46.2453 61.1234 46.5755C61.1234 46.5755 57.2781 45.1154 54.0488 48.5061C54.0488 48.5061 53.0143 44.5411 49.3177 42.9672C49.3166 42.9672 50.7242 41.2773 50.7508 40.8842Z" fill="black"/>
<path opacity="0.05" d="M50.7863 40.7019C50.7863 40.7019 53.4505 44.6195 61.2211 44.1512C61.2211 44.1512 60.9425 46.063 61.1589 46.3932C61.1589 46.3932 57.3136 44.9331 54.0844 48.3239C54.0844 48.3239 53.0498 44.3588 49.3532 42.7849C49.3554 42.7905 50.763 41.0951 50.7863 40.7019Z" fill="black"/>
<path d="M50.7697 40.7936C50.7697 40.7936 53.4339 44.7111 61.2045 44.2428C61.2045 44.2428 60.9258 46.1547 61.1423 46.4849C61.1423 46.4849 57.297 45.0248 54.0677 48.4155C54.0677 48.4155 53.0331 44.4505 49.3365 42.8766C49.3354 42.8766 50.743 41.1868 50.7697 40.7936Z" fill="white"/>
<path opacity="0.05" d="M57.5578 40.1C57.5509 40.0666 57.5513 40.0321 57.5591 39.999C57.5669 39.9658 57.5819 39.9347 57.6031 39.9079C57.6242 39.881 57.651 39.8591 57.6815 39.8437C57.7121 39.8282 57.7456 39.8196 57.7799 39.8184C57.8909 39.8184 58.0219 39.8338 58.0496 39.9421C58.0558 39.9865 58.0513 40.0317 58.0367 40.0741C58.022 40.1165 57.9976 40.1549 57.9652 40.1862C57.9384 40.2193 57.903 40.2446 57.8629 40.2593C57.8227 40.2739 57.7793 40.2774 57.7373 40.2693C57.6952 40.2613 57.6562 40.242 57.6244 40.2135C57.5926 40.185 57.5692 40.1485 57.5567 40.1077L57.5578 40.1Z" fill="black"/>
<path opacity="0.05" d="M58.3638 31.1306C58.3638 31.1306 58.2605 33.767 58.7523 34.0541C59.2441 34.3413 59.1353 33.1264 59.1353 33.1264C59.1353 33.1264 58.8733 31.3305 58.3638 31.1306Z" fill="black"/>
<path opacity="0.05" d="M57.5201 31.2808C57.5201 31.2808 58.377 33.0766 57.4524 33.831C56.5277 34.5853 57.5434 33.8509 57.5434 33.8509L57.9996 33.948C57.9996 33.948 58.4603 32.2405 57.6111 31.2973" fill="black"/>
<path opacity="0.1" d="M55.9427 17.9676C55.6729 17.9123 55.3787 17.8836 55.1345 18.0106C54.7116 18.2315 54.6272 18.8059 54.282 19.1339C53.9367 19.4619 53.4294 19.4862 53.0531 19.7535C52.568 20.0981 52.4215 20.7387 52.3094 21.3218C52.1329 22.2308 51.912 23.205 51.217 23.8202C50.8929 24.1073 50.4511 24.3404 50.3656 24.7634C50.299 25.0881 50.4766 25.4073 50.5588 25.7276C50.7075 26.2798 50.5898 26.8829 50.3367 27.4009C50.0837 27.9189 49.7118 28.3662 49.3255 28.7925C49.159 28.9497 49.0304 29.1422 48.9491 29.3558C48.7782 29.9489 49.3743 30.4956 49.4176 31.1108C49.4531 31.61 49.1212 32.054 48.7926 32.4361C48.544 32.7222 48.2831 33.0061 48.1266 33.3484C47.9701 33.6908 47.9245 34.1116 48.1166 34.4385C48.272 34.7036 48.554 34.866 48.8226 35.0162C48.998 35.1145 49.1856 35.2161 49.3876 35.2051C49.5586 35.1962 49.7207 35.1068 49.8894 35.1057C50.3923 35.1057 50.6076 35.8037 51.0872 35.9561C51.1762 35.9788 51.2691 35.9821 51.3596 35.9658C51.45 35.9494 51.5358 35.9138 51.6111 35.8613C51.6864 35.8089 51.7494 35.7408 51.7958 35.6619C51.8421 35.5829 51.8708 35.4949 51.8798 35.4039L52.9754 35.9826C53.0785 36.0516 53.201 36.086 53.3251 36.0809C53.5404 36.0478 53.6437 35.7959 53.6581 35.5795C53.6914 34.9963 53.3717 34.4595 53.1963 33.9018C53.0626 33.4779 53.0106 33.0327 53.0431 32.5897C53.046 32.4585 53.0767 32.3294 53.133 32.2108C53.2785 31.9435 53.6104 31.8497 53.8524 31.6641C54.1854 31.4057 54.3364 30.9727 54.3885 30.5596C54.4407 30.1466 54.4141 29.7158 54.4818 29.2994C54.4886 29.2277 54.513 29.1587 54.5528 29.0984C54.6235 29.0256 54.7143 28.9752 54.8137 28.9537C55.5286 28.7163 56.249 28.1409 56.2113 27.3931C56.1869 26.9049 55.845 26.493 55.4786 26.1661C55.1123 25.8391 54.7016 25.5487 54.4452 25.1312C54.0811 24.5303 54.1121 23.7561 54.3652 23.1C54.6183 22.444 55.059 21.8851 55.4986 21.3329C55.5992 21.1835 55.7358 21.0616 55.896 20.9784C56.0422 20.9277 56.199 20.9159 56.3512 20.9441C57.519 21.0965 58.4814 22.2043 58.4603 23.374C58.4537 23.7848 58.3438 24.2122 58.4881 24.5977C58.568 24.8131 58.7245 25.0019 58.7523 25.2295C58.7834 25.4868 58.6413 25.7408 58.6712 26.0026C58.7045 26.292 58.941 26.5107 59.163 26.7006C59.3461 26.8784 59.5606 27.0211 59.7957 27.1214C60.0355 27.2065 60.3308 27.191 60.514 27.011C60.8281 26.7106 60.6561 26.197 60.6394 25.7629C60.6061 24.907 61.2633 24.1935 61.5275 23.3784C61.6649 22.944 61.6923 22.4825 61.6071 22.035C61.5218 21.5876 61.3267 21.168 61.039 20.8138C60.8303 20.562 60.5761 20.3488 60.3841 20.0848C60.0322 19.6033 59.8912 18.9671 59.435 18.5828C58.8888 18.1222 58.3804 18.3475 57.7954 18.5198C57.479 18.6126 57.328 18.4723 57.0339 18.3354C56.6861 18.17 56.3198 18.0465 55.9427 17.9676Z" fill="black"/>
<path d="M54.5606 30.8435L54.0266 31.1108L54.5095 27.1545L54.7515 27.2749C54.7992 27.2992 54.847 27.3213 54.8925 27.3423L54.5606 30.8435Z" fill="white"/>
<path d="M55.9616 17.877C55.6918 17.8218 55.3976 17.793 55.1534 17.9201C54.7305 18.141 54.6461 18.7153 54.3009 19.0433C53.9556 19.3713 53.4483 19.3956 53.072 19.6629C52.5869 20.0075 52.4404 20.6481 52.3282 21.2313C52.1517 22.1402 51.9308 23.1144 51.2359 23.7296C50.9118 24.0167 50.47 24.2498 50.3845 24.6728C50.3179 24.9975 50.4955 25.3167 50.5776 25.637C50.7264 26.1892 50.6087 26.7923 50.3556 27.3103C50.1025 27.8283 49.7306 28.2756 49.3443 28.7019C49.1779 28.8591 49.0492 29.0516 48.968 29.2652C48.7971 29.8583 49.3932 30.405 49.4365 31.0202C49.472 31.5194 49.1401 31.9634 48.8115 32.3456C48.5628 32.6316 48.302 32.9155 48.1454 33.2578C47.9889 33.6002 47.9434 34.021 48.1354 34.348C48.2909 34.613 48.5728 34.7754 48.8415 34.9256C49.0169 35.0239 49.2045 35.1255 49.4065 35.1145C49.5775 35.1056 49.7395 35.0162 49.9083 35.0151C50.4111 35.0151 50.6265 35.7131 51.106 35.8655C51.1951 35.8882 51.288 35.8915 51.3784 35.8752C51.4689 35.8588 51.5547 35.8232 51.63 35.7707C51.7053 35.7183 51.7683 35.6502 51.8147 35.5713C51.861 35.4923 51.8897 35.4043 51.8986 35.3133L52.9943 35.892C53.0973 35.961 53.2199 35.9955 53.344 35.9903C53.5593 35.9572 53.6626 35.7054 53.677 35.4889C53.7103 34.9057 53.3906 34.3689 53.2152 33.8112C53.0815 33.3873 53.0295 32.9421 53.062 32.4991C53.0649 32.3679 53.0956 32.2388 53.1519 32.1202C53.2973 31.853 53.6293 31.7591 53.8713 31.5735C54.2043 31.3151 54.3553 30.8821 54.4074 30.4691C54.4596 30.056 54.433 29.6252 54.5007 29.2089C54.5075 29.1371 54.5319 29.0681 54.5717 29.0078C54.6424 28.935 54.7332 28.8846 54.8326 28.8632C55.5475 28.6257 56.2679 28.0503 56.2302 27.3025C56.2058 26.8144 55.8639 26.4024 55.4975 26.0755C55.1312 25.7485 54.7205 25.4581 54.464 25.0406C54.0999 24.4398 54.131 23.6655 54.3841 23.0095C54.6372 22.3534 55.0779 21.7945 55.5175 21.2423C55.6181 21.0929 55.7547 20.971 55.9149 20.8878C56.0611 20.8371 56.2179 20.8253 56.3701 20.8535C57.5379 21.006 58.5003 22.1137 58.4792 23.2834C58.4726 23.6942 58.3627 24.1217 58.507 24.5071C58.5869 24.7225 58.7434 24.9114 58.7712 25.1389C58.8023 25.3962 58.6602 25.6503 58.6901 25.912C58.7234 26.2014 58.9599 26.4201 59.1819 26.61C59.365 26.7878 59.5795 26.9305 59.8147 27.0308C60.0544 27.1159 60.3497 27.1004 60.5329 26.9204C60.847 26.62 60.675 26.1064 60.6583 25.6723C60.625 24.8164 61.2822 24.1029 61.5464 23.2878C61.6839 22.8534 61.7112 22.3919 61.626 21.9444C61.5408 21.497 61.3456 21.0775 61.058 20.7232C60.8493 20.4714 60.5951 20.2582 60.403 19.9943C60.0511 19.5127 59.9101 18.8765 59.4539 18.4922C58.9077 18.0316 58.3993 18.2569 57.8143 18.4292C57.4979 18.522 57.3469 18.3817 57.0528 18.2448C56.7051 18.0794 56.3387 17.9559 55.9616 17.877Z" fill="#896363"/>
<path opacity="0.05" d="M64.4692 38.071C64.4692 38.071 64.3582 39.9486 63.1105 41.2972C61.8627 42.6458 60.6894 44.5841 60.6894 44.5841L60.0544 47.1089C60.0544 47.1089 59.6737 49.7829 57.6122 49.1566C56.6842 48.875 56.5022 48.0963 56.5799 47.3254C56.6357 46.8256 56.7944 46.3426 57.0461 45.9065C57.2979 45.4704 57.6372 45.0905 58.0429 44.7906L58.6424 44.34L61.2544 40.2833L61.5797 40.64L62.8685 38.6332L64.4692 38.071Z" fill="black"/>
<path opacity="0.05" d="M60.1976 47.3287C60.1976 47.3287 59.8168 50.0026 57.7554 49.3764C56.8274 49.0948 56.6453 48.3161 56.723 47.5452C56.8115 46.7338 57.173 45.976 57.7488 45.3948L60.5994 45.7338L60.1976 47.3287Z" fill="black"/>
<path d="M64.5957 30.7838L64.9887 31.6265C64.9887 31.6265 65.2196 33.6698 64.9998 35.1432L64.6523 38.1087C64.6523 38.1087 64.5413 39.9863 63.2936 41.3348C62.0459 42.6834 60.8725 44.6217 60.8725 44.6217L60.2375 47.1465C60.2375 47.1465 59.8568 49.8205 57.7953 49.1942C56.8673 48.9126 56.6853 48.1339 56.763 47.363C56.8187 46.8636 56.9771 46.3809 57.2284 45.945C57.4798 45.5091 57.8186 45.1293 58.2238 44.8294L58.8233 44.3787L62.5387 38.6112C62.5387 38.6112 62.4666 34.0365 63.0938 32.4593L62.7397 31.4343L64.5957 30.7838Z" fill="#FFB9B9"/>
<path opacity="0.05" d="M62.4744 35.6114C62.0721 35.5079 61.6588 35.4526 61.2433 35.4468C59.7891 35.4236 58.5236 34.6295 58.5236 34.6295L57.5911 34.5268C56.7031 35.2425 55.9038 35.3397 55.4087 35.2999C54.9353 35.2605 54.4596 35.2568 53.9856 35.2889C53.931 34.494 53.8144 33.7045 53.637 32.9275C53.5466 32.6142 53.4239 32.3111 53.2707 32.023C53.4232 31.3441 53.8175 30.7431 54.3808 30.3309C56.8529 30.3795 57.8553 33.7261 57.8553 33.7261L58.5858 33.8807C59.4816 31.0311 62.0559 30.1509 62.0559 30.1509C62.8674 30.512 63.1371 31.4299 63.2281 32.0053L62.985 32.0572L62.5632 33.5825C62.5888 34.2601 62.5591 34.9386 62.4744 35.6114Z" fill="black"/>
<path opacity="0.05" d="M62.168 30.0802C62.168 30.0802 59.5937 30.9638 58.6979 33.81L57.9674 33.6554C57.9674 33.6554 56.9684 30.3088 54.4929 30.2602C54.1147 30.5367 53.8095 30.9003 53.6034 31.3198C53.3973 31.7393 53.2965 32.2023 53.3095 32.6691C53.344 34.2915 53.8091 35.2447 53.8091 35.2447C54.3771 35.1851 54.9495 35.1795 55.5186 35.2281C56.0148 35.2668 56.8085 35.1707 57.701 34.455L58.6335 34.5577C58.6335 34.5577 59.899 35.3518 61.3532 35.375C61.8098 35.3816 62.2635 35.4473 62.7031 35.5705C62.7031 35.5705 63.7377 33.4544 63.3846 32.4294C63.3846 32.4272 63.3891 30.6236 62.168 30.0802Z" fill="black"/>
<path opacity="0.05" d="M61.9859 30.0416C61.9859 30.0416 59.4116 30.9252 58.5158 33.7714L57.7853 33.6168C57.7853 33.6168 56.7863 30.2703 54.3108 30.2217C53.9325 30.4979 53.6272 30.8613 53.4209 31.2806C53.2146 31.6999 53.1135 32.1627 53.1263 32.6294C53.1607 34.2519 53.6259 35.205 53.6259 35.205C54.1939 35.1454 54.7663 35.1399 55.3354 35.1885C55.8316 35.2271 56.6253 35.131 57.5178 34.4153L58.4503 34.518C58.4503 34.518 59.7158 35.3122 61.17 35.3354C61.6265 35.342 62.0803 35.4077 62.5198 35.5308C62.5198 35.5308 63.5544 33.4147 63.2014 32.3897C63.2014 32.3886 63.2059 30.585 61.9859 30.0416Z" fill="black"/>
<path d="M62.0769 30.0604C62.0769 30.0604 59.5027 30.944 58.6068 33.7902L57.8764 33.6356C57.8764 33.6356 56.8773 30.2891 54.4018 30.2405C54.0236 30.5169 53.7184 30.8805 53.5123 31.3C53.3062 31.7196 53.2054 32.1825 53.2185 32.6493C53.2529 34.2718 53.718 35.2249 53.718 35.2249C54.286 35.1653 54.8585 35.1598 55.4275 35.2084C55.9237 35.247 56.7175 35.1509 57.61 34.4352L58.5424 34.5379C58.5424 34.5379 59.8079 35.3321 61.2621 35.3553C61.7187 35.3619 62.1725 35.4276 62.612 35.5507C62.612 35.5507 63.6466 33.4346 63.2936 32.4096C63.2936 32.4085 63.2969 30.6038 62.0769 30.0604Z" fill="white"/>
<path d="M62.4366 30.6114L62.1236 30.7351L61.4819 26.7524C61.6207 26.7392 61.7506 26.7237 61.8671 26.7083L62.4366 30.6114Z" fill="white"/>
<path opacity="0.1" d="M48.7049 80.8991C52.4907 80.8991 55.5597 77.3635 55.5597 73.0022C55.5597 68.6408 52.4907 65.1052 48.7049 65.1052C44.9191 65.1052 41.8502 68.6408 41.8502 73.0022C41.8502 77.3635 44.9191 80.8991 48.7049 80.8991Z" fill="#5A66DF"/>
</g>
<defs>
<linearGradient id="paint0_linear_247_447" x1="45.206" y1="77.2524" x2="57.8285" y2="17.6178" gradientUnits="userSpaceOnUse">
<stop stop-color="#808080" stop-opacity="0.25"/>
<stop offset="0.54" stop-color="#808080" stop-opacity="0.12"/>
<stop offset="1" stop-color="#808080" stop-opacity="0.1"/>
</linearGradient>
<clipPath id="clip0_247_447">
<rect width="120" height="90" fill="white"/>
</clipPath>
</defs>
</svg>
