<svg width="90" height="100" viewBox="0 0 90 100" fill="none" xmlns="http://www.w3.org/2000/svg">
<g clip-path="url(#clip0_263_2)">
<path d="M89.8299 66.1852H3.37708V68.6582H16.8601V92.1514L19.7355 92.0245L19.6489 68.6582H72.1636V92.1514L74.882 92.7861L74.9524 68.6582H89.8299V66.1852Z" fill="#E6E6E6"/>
<path d="M90 58.7866H3.54724V61.2596H90V58.7866Z" fill="#E6E6E6"/>
<path d="M90 52.6042H3.54724V55.0772H90V52.6042Z" fill="#E6E6E6"/>
<path d="M90 46.4218H3.54724V48.8948H90V46.4218Z" fill="#E6E6E6"/>
<path d="M89.8299 66.1852H3.37708V68.6582H16.8601V92.1514L19.7355 92.0245L19.6489 68.6582H72.1636V92.1514L74.882 92.7861L74.9524 68.6582H89.8299V66.1852Z" fill="#E6E6E6"/>
<path d="M90 58.7866H3.54724V61.2596H90V58.7866Z" fill="#E6E6E6"/>
<path d="M90 52.6042H3.54724V55.0772H90V52.6042Z" fill="#E6E6E6"/>
<path d="M90 46.4218H3.54724V48.8948H90V46.4218Z" fill="#E6E6E6"/>
<path d="M25.6351 40.0888L14.3406 42.3808L9.56854 34.3997L19.2262 31.0562L25.6351 40.0888Z" fill="#2F2E41"/>
<path d="M65.3816 45.6827H33.0153V46.7795H65.3816V45.6827Z" fill="#3F3D56"/>
<path d="M59.6093 42.0265H59.0301C59.1394 41.8599 59.197 41.6707 59.197 41.478V39.65C59.197 39.5059 59.165 39.3633 59.1028 39.2302C59.0406 39.0971 58.9495 38.9762 58.8347 38.8744C58.7198 38.7725 58.5835 38.6917 58.4334 38.6366C58.2833 38.5815 58.1225 38.5531 57.96 38.5531H57.4758C57.5231 38.4358 57.5475 38.3121 57.5477 38.1875V36.3594C57.5477 36.2154 57.5157 36.0728 57.4536 35.9397C57.3914 35.8066 57.3003 35.6857 57.1854 35.5838C57.0706 35.482 56.9342 35.4012 56.7841 35.3461C56.6341 35.2909 56.4732 35.2626 56.3108 35.2626H42.2922C42.1298 35.2626 41.969 35.2909 41.8189 35.3461C41.6688 35.4012 41.5325 35.482 41.4176 35.5838C41.3028 35.6857 41.2116 35.8066 41.1495 35.9397C41.0873 36.0728 41.0553 36.2154 41.0553 36.3594V38.1875C41.0556 38.3121 41.0799 38.4358 41.1272 38.5531H40.643C40.4806 38.5531 40.3197 38.5815 40.1697 38.6366C40.0196 38.6917 39.8832 38.7725 39.7684 38.8744C39.6535 38.9762 39.5624 39.0971 39.5002 39.2302C39.4381 39.3633 39.4061 39.5059 39.4061 39.65V41.478C39.4061 41.6707 39.4636 41.8599 39.5729 42.0265H38.9938C38.8313 42.0265 38.6705 42.0548 38.5204 42.11C38.3703 42.1651 38.234 42.2459 38.1191 42.3477C38.0043 42.4496 37.9132 42.5705 37.851 42.7036C37.7888 42.8366 37.7568 42.9793 37.7568 43.1233V44.9514C37.7568 45.0954 37.7888 45.2381 37.851 45.3711C37.9132 45.5042 38.0043 45.6251 38.1191 45.727C38.234 45.8288 38.3703 45.9096 38.5204 45.9648C38.6705 46.0199 38.8313 46.0482 38.9938 46.0482H59.6093C59.7717 46.0482 59.9326 46.0199 60.0826 45.9648C60.2327 45.9096 60.3691 45.8288 60.4839 45.727C60.5988 45.6251 60.6899 45.5042 60.752 45.3711C60.8142 45.2381 60.8462 45.0954 60.8462 44.9514V43.1233C60.8462 42.9793 60.8142 42.8366 60.752 42.7036C60.6899 42.5705 60.5988 42.4496 60.4839 42.3477C60.3691 42.2459 60.2327 42.1651 60.0826 42.11C59.9326 42.0548 59.7717 42.0265 59.6093 42.0265Z" fill="#5A66DF"/>
<path d="M57.1354 35.5368C57.1354 35.0825 53.6281 34.7142 49.3015 34.7142C44.975 34.7142 41.4677 35.0825 41.4677 35.5368C41.4677 35.7625 42.3338 35.9669 43.7353 36.1156V36.8622C43.7355 36.9227 43.7628 36.9807 43.811 37.0235C43.8593 37.0664 43.9248 37.0905 43.993 37.0907H44.0961C44.1644 37.0905 44.2299 37.0664 44.2781 37.0235C44.3264 36.9807 44.3536 36.9227 44.3538 36.8622V36.1745C44.6768 36.2022 45.0218 36.2271 45.3846 36.2491V36.8622C45.3848 36.9227 45.412 36.9807 45.4603 37.0235C45.5086 37.0664 45.574 37.0905 45.6423 37.0907H45.7454C45.8137 37.0905 45.8791 37.0664 45.9274 37.0235C45.9757 36.9807 46.0029 36.9227 46.0031 36.8622V36.283C46.9486 36.3291 47.9961 36.356 49.1008 36.3589C49.0972 36.3741 49.0954 36.3896 49.0954 36.4051V37.2278C49.0956 37.2883 49.1228 37.3464 49.1711 37.3892C49.2194 37.432 49.2848 37.4561 49.3531 37.4563H49.4562C49.5244 37.4561 49.5899 37.432 49.6382 37.3892C49.6864 37.3464 49.7137 37.2883 49.7139 37.2278V36.4051C49.7138 36.3894 49.712 36.3737 49.7083 36.3583C50.6582 36.3532 51.5629 36.3303 52.3939 36.2927V37.045C52.3941 37.1055 52.4213 37.1635 52.4696 37.2064C52.5178 37.2492 52.5833 37.2733 52.6516 37.2735H52.7546C52.8229 37.2733 52.8884 37.2492 52.9366 37.2064C52.9849 37.1635 53.0121 37.1055 53.0123 37.045V36.2614C53.8798 36.2123 54.648 36.1465 55.28 36.0681V36.6794C55.2802 36.7399 55.3075 36.7979 55.3557 36.8407C55.404 36.8836 55.4695 36.9077 55.5377 36.9079H55.6408C55.7091 36.9077 55.7745 36.8836 55.8228 36.8407C55.8711 36.7979 55.8983 36.7399 55.8985 36.6794V35.9802C56.6802 35.8522 57.1354 35.7001 57.1354 35.5368Z" fill="#E6E6E6"/>
<path d="M57.5478 38.3704H41.0554V38.736H57.5478V38.3704Z" fill="#3F3D56"/>
<path d="M58.9908 41.8437H39.6122V42.2093H58.9908V41.8437Z" fill="#3F3D56"/>
<path d="M60.6401 45.1342H38.1692V45.4998H60.6401V45.1342Z" fill="#3F3D56"/>
<path d="M49.5077 32.3377H48.8892V35.4454H49.5077V32.3377Z" fill="#E6E6E6"/>
<path d="M50.0776 31.9486C50.0776 32.5717 49.686 32.5832 49.2029 32.5832C48.7198 32.5832 47.9266 32.46 48.3281 31.9486C48.7516 31.4093 49.4781 30.3812 49.2029 30.3268C49.2029 30.3268 50.0776 31.3255 50.0776 31.9486Z" fill="#F9A825"/>
<path opacity="0.5" d="M49.5109 32.332C49.5109 32.5787 49.3559 32.5832 49.1647 32.5832C48.9734 32.5832 48.6595 32.5345 48.8184 32.332C48.9861 32.1185 49.2736 31.7116 49.1647 31.6901C49.1647 31.6901 49.5109 32.0854 49.5109 32.332Z" fill="#FF6584"/>
<path d="M53.0123 32.5205H52.3939V35.6282H53.0123V32.5205Z" fill="#E6E6E6"/>
<path d="M53.5822 32.1314C53.5822 32.7545 53.1906 32.7661 52.7075 32.7661C52.2244 32.7661 51.4313 32.6428 51.8328 32.1314C52.2562 31.5921 52.9827 30.564 52.7075 30.5096C52.7075 30.5096 53.5822 31.5083 53.5822 32.1314Z" fill="#F9A825"/>
<path opacity="0.5" d="M53.0156 32.5148C53.0156 32.7615 52.8606 32.7661 52.6693 32.7661C52.4781 32.7661 52.1641 32.7173 52.3231 32.5148C52.4907 32.3014 52.7783 31.8944 52.6693 31.8729C52.6693 31.8729 53.0156 32.2682 53.0156 32.5148Z" fill="#FF6584"/>
<path d="M46.2093 32.5205H45.5908V35.6282H46.2093V32.5205Z" fill="#E6E6E6"/>
<path d="M46.7791 32.1314C46.7791 32.7545 46.3875 32.7661 45.9044 32.7661C45.4213 32.7661 44.6281 32.6428 45.0297 32.1314C45.4532 31.5921 46.1797 30.564 45.9044 30.5096C45.9044 30.5096 46.7791 31.5083 46.7791 32.1314Z" fill="#F9A825"/>
<path opacity="0.5" d="M46.2124 32.5148C46.2124 32.7615 46.0574 32.7661 45.8662 32.7661C45.675 32.7661 45.361 32.7173 45.52 32.5148C45.6876 32.3014 45.9752 31.8944 45.8662 31.8729C45.8662 31.8729 46.2124 32.2682 46.2124 32.5148Z" fill="#FF6584"/>
<path d="M83.9073 42.3362L73.0618 40.5991C72.3036 37.9303 71.2591 35.1107 72.9343 32.6967C73.4241 30.8737 75.6251 30.3522 77.857 29.9018C80.097 29.4498 82.4692 30.1638 83.8259 31.8076C84.7905 32.9763 85.0475 34.1478 84.6563 35.6039C85.7321 37.0211 85.2181 40.4897 83.9073 42.3362Z" fill="#2F2E41"/>
<path d="M67.6685 97.4932L62.9468 94.6312L69.156 75.4317L75.7061 65.8347L63.5735 72.379L64.2062 85.1596L58.0939 87.9085L56.4589 72.055C56.3569 71.0663 56.5774 70.0725 57.0943 69.1918C57.6111 68.3111 58.4024 67.5807 59.374 67.0874L69.3736 62.0108L70.1642 54.7192L81.1984 53.2172C85.4644 58.0951 87.7303 62.5715 85.7715 66.1998L75.8256 77.5657L67.6685 97.4932Z" fill="#2F2E41"/>
<path d="M65.3518 95.4192C65.3518 95.4192 64.5085 93.9133 63.6313 94.3919C62.754 94.8705 60.4258 97.0343 60.4258 97.0343C60.4258 97.0343 56.1409 98.1208 59.0985 99.1882C62.0561 100.256 63.1132 100.036 63.1695 99.8268C63.2257 99.6174 63.8668 99.0889 63.8668 99.0889L64.9914 99.5478L66.757 99.4782C66.757 99.4782 68.502 95.7693 67.7535 95.7689C67.0049 95.7684 65.4192 96.0974 65.3518 95.4192Z" fill="#2F2E41"/>
<path d="M61.0776 86.074C61.0776 86.074 59.1943 85.8789 59.1679 86.7919C59.1415 87.705 59.9159 90.6158 59.9159 90.6158C59.9159 90.6158 58.6046 94.3927 61.2271 92.7774C63.8496 91.1621 64.2192 90.2569 64.052 90.1008C63.8848 89.9447 63.7352 89.1799 63.7352 89.1799L64.7825 88.5947L65.6801 87.2446C65.6801 87.2446 63.1274 83.9241 62.7185 84.4801C62.3096 85.0362 61.7552 86.394 61.0776 86.074Z" fill="#2F2E41"/>
<path d="M76.942 38.3353C79.2014 38.3353 81.0331 36.7111 81.0331 34.7076C81.0331 32.704 79.2014 31.0798 76.942 31.0798C74.6825 31.0798 72.8509 32.704 72.8509 34.7076C72.8509 36.7111 74.6825 38.3353 76.942 38.3353Z" fill="#A0616A"/>
<path d="M79.2673 46.4902L69.2335 46.4425C70.3327 43.9049 71.5102 41.5705 73.5824 41.56C75.2166 40.2137 75.0381 38.3949 74.2622 36.4205L79.3685 36.9812C79.1314 38.2864 79.4711 39.365 80.7579 40.0716C79.4609 42.2827 78.7358 44.4426 79.2673 46.4902Z" fill="#A0616A"/>
<path d="M84.5025 57.5957L70.5871 58.5097L69.5327 52.7212C66.6265 50.2602 66.9764 47.7813 69.66 45.2895L70.6396 42.0779L72.7823 41.4946C72.5399 41.8259 72.4137 42.2133 72.4196 42.6081C72.4255 43.0029 72.5632 43.3873 72.8153 43.7128C73.0675 44.0382 73.4227 44.2901 73.8361 44.4366C74.2496 44.5831 74.7028 44.6177 75.1384 44.536L75.923 44.3887C76.2138 44.3342 76.4896 44.2291 76.7344 44.0796C76.9792 43.9301 77.1882 43.7392 77.3494 43.5177L80.1736 39.6375L81.6449 39.799C81.8117 39.8173 81.9678 39.8813 82.0916 39.9821C82.2153 40.0828 82.3006 40.2153 82.3353 40.3611L83.6999 46.0799C81.9866 48.3185 84.5136 54.5522 84.5025 57.5957Z" fill="#575A89"/>
<path d="M72.1002 64.037L73.4994 66.2829C73.636 66.5023 73.7187 66.745 73.7418 66.9948C73.7649 67.2446 73.7279 67.4959 73.6333 67.7322C73.5388 67.9684 73.3888 68.1841 73.1932 68.3651C72.9976 68.5461 72.761 68.6883 72.4989 68.7822C72.1917 68.8922 71.8586 68.9327 71.5294 68.9002C71.2002 68.8677 70.8852 68.7631 70.6129 68.5958C70.3407 68.4285 70.1195 68.2038 69.9695 67.9419C69.8195 67.6801 69.7452 67.3892 69.7535 67.0956L69.8207 64.695L66.9213 55.4845L67.2274 49.1265L70.2649 49.5609L70.2009 55.4521L72.1002 64.037Z" fill="#A0616A"/>
<path d="M80.1841 62.1522L78.8757 64.4407C78.7479 64.6642 78.675 64.9093 78.6619 65.1597C78.6488 65.4101 78.6958 65.6601 78.7998 65.8932C78.9037 66.1263 79.0623 66.3372 79.265 66.5119C79.4677 66.6867 79.7099 66.8213 79.9756 66.9068C80.2869 67.0071 80.6215 67.0372 80.9492 66.9943C81.2769 66.9514 81.5875 66.837 81.8529 66.6613C82.1183 66.4855 82.3303 66.254 82.4698 65.9876C82.6092 65.7211 82.6718 65.4281 82.6518 65.1349L82.4885 62.738L85.0176 53.442L84.4572 47.0977L81.439 47.6274L81.7387 53.5129L80.1841 62.1522Z" fill="#A0616A"/>
<path d="M71.0439 50.1399L66.4009 49.1591L68.1087 44.0869C68.2911 43.545 68.6364 43.0573 69.1076 42.6761C69.5787 42.2949 70.1579 42.0346 70.7832 41.9231L71.9031 41.7233L71.0439 50.1399Z" fill="#575A89"/>
<path d="M80.2378 48.7648L80.3308 45.5753L81.2041 40.3763C81.2324 40.208 81.3274 40.0542 81.472 39.9423C81.6167 39.8305 81.8015 39.768 81.9934 39.7662C82.1557 39.7646 82.3148 39.8064 82.4499 39.8862L86.3101 47.8551C85.6022 49.3078 81.1486 47.0341 80.2378 48.7648Z" fill="#575A89"/>
<path d="M35.0205 96.7728L39.2534 93.3619L30.1246 75.1025L22.1479 66.3957L35.1804 71.3977L36.5365 84.1341L43.0171 86.1112L42.1771 70.2089C42.1247 69.2172 41.7521 68.2598 41.1036 67.4505C40.4551 66.6412 39.5579 66.0142 38.5191 65.6442L27.827 61.8357L25.9127 54.7099L14.7503 54.5682C11.2816 59.9202 9.73171 64.6304 12.2349 67.9853L23.8495 78.0298L35.0205 96.7728Z" fill="#2F2E41"/>
<path d="M36.9935 94.4359C36.9935 94.4359 37.5951 92.8414 38.5383 93.2084C39.4815 93.5755 42.1232 95.4346 42.1232 95.4346C42.1232 95.4346 46.5359 95.9881 43.7721 97.4061C41.0082 98.8242 39.9271 98.7359 39.8389 98.5354C39.7507 98.3348 39.0337 97.8895 39.0337 97.8895L37.991 98.4812L36.2314 98.6276C36.2314 98.6276 33.9275 95.1669 34.6689 95.0752C35.4103 94.9834 37.032 95.1158 36.9935 94.4359Z" fill="#2F2E41"/>
<path d="M39.7773 84.6582C39.7773 84.6582 41.6124 84.2352 41.7802 85.1363C41.948 86.0374 41.6325 89.015 41.6325 89.015C41.6325 89.015 43.5173 92.5961 40.6691 91.316C37.821 90.036 37.3144 89.1845 37.4558 89.0095C37.5972 88.8345 37.6267 88.0588 37.6267 88.0588L36.4986 87.6068L35.4001 86.3791C35.4001 86.3791 37.4134 82.7788 37.9047 83.2796C38.3959 83.7805 39.1557 85.0578 39.7773 84.6582Z" fill="#2F2E41"/>
<path d="M16.0946 39.3431C18.3541 39.3431 20.1857 37.7189 20.1857 35.7154C20.1857 33.7118 18.3541 32.0876 16.0946 32.0876C13.8352 32.0876 12.0035 33.7118 12.0035 35.7154C12.0035 37.7189 13.8352 39.3431 16.0946 39.3431Z" fill="#FFB9B9"/>
<path d="M15.6194 47.6697L25.5505 46.3984C24.068 44.019 22.5395 41.8504 20.4853 42.0929C18.6579 40.9587 18.5525 39.1354 19.0147 37.0851L14.0439 38.2634C14.4813 39.5273 14.3121 40.6371 13.1472 41.494C14.7748 43.5258 15.8282 45.5767 15.6194 47.6697Z" fill="#FFB9B9"/>
<path d="M14.8689 55.3926C18.3977 59.4668 22.0166 61.0765 25.9074 55.2526L26.2281 52.6539C28.7249 49.8618 27.9937 47.4491 24.9491 45.3084L23.4806 42.2468L21.2678 41.9304C21.5592 42.229 21.7443 42.5974 21.7997 42.9891C21.8551 43.3809 21.7784 43.7784 21.5791 44.1315C21.3799 44.4846 21.0671 44.7775 20.6803 44.973C20.2935 45.1686 19.8501 45.2581 19.4059 45.2303L18.6059 45.1802C18.3094 45.1616 18.0199 45.0912 17.7543 44.973C17.4886 44.8548 17.252 44.6911 17.0579 44.4915L13.6585 40.9926L12.2263 41.3321C12.064 41.3706 11.9193 41.453 11.8123 41.5679C11.7054 41.6828 11.6415 41.8245 11.6297 41.9731L11.1653 47.8039C13.2096 49.8122 14.3858 52.3794 14.8689 55.3926Z" fill="#5A66DF"/>
<path d="M13.289 52.9103L5.47332 51.503L10.6643 47.22L8.68864 44.0517L0.29834 51.9652C0.154237 52.1105 0.0578645 52.2882 0.0197122 52.4787C-0.0184402 52.6693 0.00308874 52.8655 0.081957 53.046C0.160825 53.2264 0.294011 53.3843 0.467016 53.5023C0.64002 53.6203 0.846214 53.694 1.06316 53.7153L12.4262 54.8312L12.8924 56.6546C12.9545 56.8972 13.0814 57.1229 13.2626 57.3128C13.4438 57.5027 13.6738 57.6511 13.9333 57.7455C14.1928 57.8399 14.4741 57.8775 14.7534 57.8551C15.0328 57.8328 15.302 57.7511 15.5382 57.617C15.7569 57.493 15.9416 57.3272 16.079 57.1319C16.2164 56.9365 16.3029 56.7165 16.3324 56.4878C16.3618 56.259 16.3334 56.0274 16.2492 55.8096C16.165 55.5918 16.0272 55.3934 15.8457 55.2288L13.289 52.9103Z" fill="#FFB9B9"/>
<path d="M25.4406 64.1753L24.4032 66.5705C24.3019 66.8045 24.2577 67.0549 24.2735 67.3052C24.2894 67.5555 24.365 67.7999 24.4953 68.0224C24.6256 68.2448 24.8077 68.4402 25.0295 68.5956C25.2513 68.751 25.5077 68.8629 25.7819 68.924C26.1032 68.9955 26.4395 68.995 26.7605 68.9226C27.0816 68.8502 27.3772 68.7082 27.621 68.5093C27.8648 68.3104 28.0489 68.0609 28.1569 67.7832C28.2649 67.5055 28.2933 67.2083 28.2396 66.9185L27.8005 64.549L29.2435 55.0723L27.9539 48.8121L25.0127 49.6129L25.99 55.4403L25.4406 64.1753Z" fill="#FFB9B9"/>
<path d="M24.3309 50.2813L28.7776 48.7435L26.2991 43.9279C26.0343 43.4134 25.6167 42.9724 25.0908 42.6524C24.565 42.3323 23.9509 42.1451 23.3143 42.1109L22.1741 42.0496L24.3309 50.2813Z" fill="#5A66DF"/>
<path d="M9.68306 48.3166L14.4241 46.8932L12.7525 41.8502C12.6984 41.6869 12.5805 41.5461 12.4198 41.453C12.2592 41.3598 12.0664 41.3205 11.8761 41.3421C11.7151 41.3603 11.564 41.4211 11.4426 41.5166L6.59943 45.3268C7.52595 46.6794 8.51242 46.7134 9.68306 48.3166Z" fill="#5A66DF"/>
<path d="M18.8126 29.8256C18.8126 29.8256 21.3146 30.2429 21.8932 33.01C21.9837 33.4766 22.0002 33.9522 21.9422 34.4229C21.8844 34.9555 21.9682 36.0805 23.2724 37.4052C24.1235 38.2643 24.9164 39.1674 25.6472 40.1096L23.0328 40.7267L21.8647 36.8857C21.2984 35.0235 20.4259 33.2454 19.2755 31.6086L19.2514 31.5744C19.2514 31.5744 18.3831 33.6318 16.0558 33.9138L16.7734 33.076C16.7734 33.076 14.0527 34.4707 12.5113 34.8967C12.3354 34.9453 12.1778 35.0356 12.0554 35.1578C11.9331 35.28 11.8507 35.4295 11.8171 35.5902C11.7834 35.7508 11.7999 35.9166 11.8646 36.0696C11.9294 36.2225 12.04 36.357 12.1845 36.4583C12.1954 36.466 12.2065 36.4736 12.2179 36.4812C13.3516 37.2448 15.6645 39.0668 14.7508 40.8294C13.837 42.592 14.9026 42.9133 14.9026 42.9133L12.9377 42.2505L12.0383 41.909L12.1292 42.4986L7.73885 42.5802C7.73885 42.5802 6.55246 42.5738 8.65981 39.7656C8.65981 39.7656 9.1683 38.7126 8.75086 37.9082C8.41582 37.299 8.24902 36.6279 8.26422 35.9502C8.39694 33.119 9.74192 27.3592 18.8126 29.8256Z" fill="#2F2E41"/>
<path d="M73.3358 31.8502L77.1153 33.9829L77.4589 33.3736C79.7407 34.8356 79.2509 38.5746 78.1461 42.8187C78.1461 42.8187 82.1388 44.1177 82.6128 42.8187C83.4562 40.5067 82.7846 35.0493 82.7846 35.0493L81.4102 31.8502L79.1769 30.7838L77.2871 30.6315C77.2871 30.6315 75.5692 29.8698 73.3358 31.8502Z" fill="#2F2E41"/>
<path d="M79.1769 36.5727C79.4615 36.5727 79.6923 36.2999 79.6923 35.9634C79.6923 35.6268 79.4615 35.354 79.1769 35.354C78.8922 35.354 78.6615 35.6268 78.6615 35.9634C78.6615 36.2999 78.8922 36.5727 79.1769 36.5727Z" fill="#A0616A"/>
<path d="M39.3432 9.62066C39.6351 9.62066 39.8717 9.41083 39.8717 9.152C39.8717 8.89317 39.6351 8.68335 39.3432 8.68335C39.0513 8.68335 38.8147 8.89317 38.8147 9.152C38.8147 9.41083 39.0513 9.62066 39.3432 9.62066Z" fill="#E6E6E6"/>
<path d="M47.1387 24.3832C47.4306 24.3832 47.6672 24.1734 47.6672 23.9146C47.6672 23.6557 47.4306 23.4459 47.1387 23.4459C46.8468 23.4459 46.6102 23.6557 46.6102 23.9146C46.6102 24.1734 46.8468 24.3832 47.1387 24.3832Z" fill="#E6E6E6"/>
<path d="M45.0247 13.8386C45.3165 13.8386 45.5532 13.6287 45.5532 13.3699C45.5532 13.1111 45.3165 12.9012 45.0247 12.9012C44.7328 12.9012 44.4962 13.1111 44.4962 13.3699C44.4962 13.6287 44.7328 13.8386 45.0247 13.8386Z" fill="#E6E6E6"/>
<path d="M36.4364 18.7595C36.7283 18.7595 36.9649 18.5496 36.9649 18.2908C36.9649 18.032 36.7283 17.8221 36.4364 17.8221C36.1445 17.8221 35.9079 18.032 35.9079 18.2908C35.9079 18.5496 36.1445 18.7595 36.4364 18.7595Z" fill="#E6E6E6"/>
<path d="M41.9564 9.2406C42.2778 9.49483 42.5301 9.81025 42.6945 10.1632C42.8589 10.5162 42.9311 10.8976 42.9057 11.2788C42.8803 11.6601 42.758 12.0312 42.5479 12.3646C42.3377 12.698 42.0452 12.9848 41.6923 13.2037C41.4235 13.372 41.6807 13.7685 41.9525 13.5984C42.3644 13.3428 42.7086 13.0106 42.961 12.625C43.2134 12.2394 43.368 11.8097 43.414 11.3657C43.4512 10.911 43.3722 10.4547 43.183 10.0308C42.9937 9.6069 42.699 9.22633 42.3209 8.91744C42.0773 8.71839 41.7119 9.04077 41.9564 9.2406V9.2406Z" fill="#E6E6E6"/>
<path d="M46.713 15.2159C47.0343 15.4702 47.2867 15.7856 47.4511 16.1386C47.6155 16.4915 47.6877 16.8729 47.6623 17.2542C47.6369 17.6354 47.5145 18.0066 47.3044 18.3399C47.0942 18.6733 46.8018 18.9602 46.4489 19.1791C46.18 19.3474 46.4372 19.7438 46.709 19.5737C47.121 19.3181 47.4651 18.9859 47.7176 18.6003C47.97 18.2148 48.1246 17.785 48.1706 17.341C48.2077 16.8863 48.1288 16.43 47.9395 16.0061C47.7502 15.5822 47.4555 15.2017 47.0774 14.8928C46.8338 14.6937 46.4684 15.0161 46.713 15.2159V15.2159Z" fill="#E6E6E6"/>
<path d="M38.6118 20.3994C38.2338 20.7084 37.9392 21.089 37.7499 21.5128C37.5607 21.9367 37.4816 22.3929 37.5186 22.8476C37.5644 23.2917 37.7189 23.7215 37.9713 24.1071C38.2237 24.4927 38.568 24.8248 38.9801 25.0803C39.2516 25.2503 39.5094 24.8542 39.2403 24.6857C38.8874 24.4668 38.5949 24.1799 38.3848 23.8466C38.1746 23.5132 38.0523 23.142 38.0269 22.7608C38.0015 22.3795 38.0737 21.9982 38.2381 21.6452C38.4025 21.2922 38.6548 20.9768 38.9762 20.7226C39.2206 20.5228 38.8554 20.2003 38.6118 20.3994V20.3994Z" fill="#E6E6E6"/>
<path d="M42.7842 17.4C42.1157 17.3356 41.2848 17.3448 40.9141 17.9443C40.6222 18.4164 40.9764 19.1388 41.6508 19.0752C41.712 19.0734 41.7705 19.0524 41.8159 19.016C41.8614 18.9797 41.8908 18.9302 41.899 18.8764C41.9072 18.8226 41.8937 18.768 41.8608 18.7222C41.8279 18.6764 41.7778 18.6424 41.7193 18.6263C41.2376 18.4942 40.8133 18.9032 40.82 19.315C40.8278 19.7882 41.3509 20.0701 41.7871 20.2227L41.9241 19.782C41.7641 19.7535 41.5991 19.755 41.4398 19.7866C41.2806 19.8181 41.1305 19.879 40.9995 19.9652C40.8684 20.0514 40.7592 20.161 40.6789 20.287C40.5987 20.413 40.5491 20.5526 40.5335 20.6966C40.4885 21.3366 41.2014 21.8005 41.8728 21.7173C42.1999 21.6768 42.0608 21.2364 41.7358 21.2766C41.6479 21.2876 41.5584 21.2813 41.4735 21.2582C41.3887 21.235 41.3106 21.1956 41.2449 21.1427C41.1791 21.0898 41.1273 21.0247 41.0931 20.9521C41.0589 20.8795 41.0432 20.801 41.047 20.7224C41.0508 20.6437 41.0741 20.5668 41.1152 20.497C41.1563 20.4273 41.2143 20.3664 41.2849 20.3187C41.3555 20.271 41.4371 20.2377 41.5239 20.2211C41.6107 20.2045 41.7005 20.2051 41.7871 20.2227C41.852 20.2364 41.9204 20.2271 41.9779 20.197C42.0354 20.1668 42.0774 20.118 42.0951 20.061C42.1129 20.0039 42.105 19.9429 42.0731 19.8909C42.0412 19.8389 41.9878 19.7998 41.9241 19.782C41.7134 19.7083 41.4533 19.5934 41.3603 19.3967C41.3006 19.2703 41.3895 19.0141 41.5823 19.067L41.6508 18.6181C41.5753 18.6258 41.4993 18.6076 41.4383 18.5673C41.3773 18.5271 41.3359 18.4678 41.3225 18.4014C41.3102 18.3281 41.321 18.2532 41.3536 18.1849C41.3862 18.1167 41.4393 18.0577 41.5072 18.0145C41.8539 17.7523 42.3675 17.8168 42.7842 17.857C43.1135 17.8888 43.111 17.4315 42.7842 17.4V17.4Z" fill="#E6E6E6"/>
<path d="M35.1209 14.2366C34.4524 14.1721 33.6215 14.1814 33.2508 14.7809C32.9589 15.253 33.3131 15.9754 33.9875 15.9117C34.0487 15.9099 34.1072 15.889 34.1526 15.8526C34.198 15.8162 34.2275 15.7667 34.2357 15.713C34.2439 15.6592 34.2303 15.6045 34.1974 15.5588C34.1646 15.513 34.1145 15.479 34.056 15.4629C33.5743 15.3307 33.15 15.7397 33.1567 16.1516C33.1645 16.6247 33.6876 16.9066 34.1237 17.0593L34.2607 16.6186C34.1007 16.59 33.9358 16.5916 33.7765 16.6231C33.6172 16.6547 33.4672 16.7155 33.3361 16.8017C33.2051 16.8879 33.0959 16.9976 33.0156 17.1236C32.9353 17.2496 32.8858 17.3891 32.8702 17.5332C32.8252 18.1732 33.5381 18.637 34.2095 18.5539C34.5366 18.5134 34.3974 18.073 34.0725 18.1132C33.9846 18.1242 33.8951 18.1179 33.8102 18.0947C33.7253 18.0716 33.6473 18.0322 33.5815 17.9793C33.5158 17.9264 33.464 17.8613 33.4298 17.7887C33.3956 17.716 33.3798 17.6376 33.3837 17.5589C33.3875 17.4803 33.4108 17.4033 33.4519 17.3336C33.493 17.2638 33.5509 17.2029 33.6216 17.1552C33.6922 17.1076 33.7738 17.0742 33.8606 17.0577C33.9474 17.0411 34.0372 17.0416 34.1237 17.0593C34.1887 17.0729 34.2571 17.0637 34.3146 17.0335C34.372 17.0033 34.414 16.9546 34.4318 16.8975C34.4495 16.8404 34.4416 16.7795 34.4097 16.7274C34.3778 16.6754 34.3244 16.6364 34.2607 16.6186C34.0501 16.5448 33.7899 16.4299 33.697 16.2332C33.6373 16.1069 33.7262 15.8507 33.919 15.9035L33.9875 15.4547C33.912 15.4623 33.836 15.4442 33.775 15.4039C33.714 15.3636 33.6726 15.3043 33.6591 15.2379C33.6469 15.1646 33.6577 15.0897 33.6902 15.0215C33.7228 14.9532 33.776 14.8943 33.8439 14.851C34.1906 14.5889 34.7041 14.6534 35.1209 14.6936C35.4502 14.7253 35.4476 14.2681 35.1209 14.2366H35.1209Z" fill="#E6E6E6"/>
<path d="M50.0378 24.8644C50.7063 24.9288 51.5372 24.9196 51.9079 24.32C52.1998 23.848 51.8456 23.1255 51.1712 23.1892C51.11 23.191 51.0515 23.212 51.0061 23.2483C50.9607 23.2847 50.9312 23.3342 50.923 23.388C50.9148 23.4418 50.9284 23.4964 50.9612 23.5422C50.9941 23.588 51.0442 23.6219 51.1027 23.6381C51.5844 23.7702 52.0087 23.3612 52.002 22.9494C51.9942 22.4762 51.4711 22.1943 51.035 22.0417L50.898 22.4824C51.0579 22.5109 51.2229 22.5094 51.3822 22.4778C51.5414 22.4463 51.6915 22.3854 51.8225 22.2992C51.9536 22.213 52.0628 22.1033 52.1431 21.9773C52.2233 21.8513 52.2729 21.7118 52.2885 21.5678C52.3335 20.9278 51.6206 20.4639 50.9492 20.5471C50.6221 20.5876 50.7613 21.028 51.0862 20.9878C51.1741 20.9768 51.2636 20.9831 51.3485 21.0062C51.4333 21.0293 51.5114 21.0688 51.5771 21.1217C51.6429 21.1746 51.6947 21.2396 51.7289 21.3123C51.7631 21.3849 51.7788 21.4634 51.775 21.542C51.7712 21.6207 51.7479 21.6976 51.7068 21.7674C51.6657 21.8371 51.6077 21.898 51.5371 21.9457C51.4665 21.9934 51.3849 22.0267 51.2981 22.0433C51.2113 22.0599 51.1215 22.0593 51.035 22.0417C50.97 22.028 50.9016 22.0373 50.8441 22.0674C50.7867 22.0976 50.7447 22.1464 50.7269 22.2034C50.7092 22.2605 50.7171 22.3215 50.749 22.3735C50.7809 22.4255 50.8343 22.4645 50.898 22.4824C51.1086 22.5561 51.3687 22.671 51.4617 22.8677C51.5214 22.9941 51.4325 23.2503 51.2397 23.1974L51.1712 23.6462C51.2467 23.6386 51.3227 23.6568 51.3837 23.697C51.4447 23.7373 51.4861 23.7966 51.4996 23.863C51.5118 23.9363 51.501 24.0112 51.4684 24.0795C51.4358 24.1477 51.3827 24.2067 51.3148 24.2499C50.9681 24.5121 50.4546 24.4475 50.0378 24.4074C49.7085 24.3756 49.7111 24.8329 50.0378 24.8644H50.0378Z" fill="#E6E6E6"/>
<path d="M54.2894 0.937308C54.5813 0.937308 54.8179 0.727485 54.8179 0.468654C54.8179 0.209824 54.5813 0 54.2894 0C53.9975 0 53.7609 0.209824 53.7609 0.468654C53.7609 0.727485 53.9975 0.937308 54.2894 0.937308Z" fill="#E6E6E6"/>
<path d="M62.085 15.6999C62.3769 15.6999 62.6135 15.4901 62.6135 15.2312C62.6135 14.9724 62.3769 14.7626 62.085 14.7626C61.7931 14.7626 61.5565 14.9724 61.5565 15.2312C61.5565 15.4901 61.7931 15.6999 62.085 15.6999Z" fill="#E6E6E6"/>
<path d="M59.9709 5.1552C60.2628 5.1552 60.4994 4.94538 60.4994 4.68655C60.4994 4.42772 60.2628 4.2179 59.9709 4.2179C59.679 4.2179 59.4424 4.42772 59.4424 4.68655C59.4424 4.94538 59.679 5.1552 59.9709 5.1552Z" fill="#E6E6E6"/>
<path d="M51.3826 10.076C51.6745 10.076 51.9111 9.86622 51.9111 9.60739C51.9111 9.34856 51.6745 9.13873 51.3826 9.13873C51.0907 9.13873 50.8541 9.34856 50.8541 9.60739C50.8541 9.86622 51.0907 10.076 51.3826 10.076Z" fill="#E6E6E6"/>
<path d="M56.9026 0.55719C57.224 0.811421 57.4764 1.12684 57.6408 1.47981C57.8052 1.83279 57.8774 2.21418 57.852 2.59541C57.8266 2.97664 57.7042 3.34784 57.4941 3.68119C57.2839 4.01454 56.9915 4.30141 56.6386 4.52032C56.3697 4.68863 56.6269 5.08508 56.8987 4.91494C57.3107 4.65934 57.6548 4.32718 57.9072 3.94159C58.1597 3.556 58.3143 3.12625 58.3603 2.68227C58.3974 2.22756 58.3184 1.77127 58.1292 1.34738C57.9399 0.923486 57.6452 0.542923 57.2671 0.234031C57.0235 0.0349766 56.6581 0.357356 56.9026 0.557192V0.55719Z" fill="#E6E6E6"/>
<path d="M61.6592 6.53252C61.9806 6.78676 62.233 7.10217 62.3974 7.45515C62.5618 7.80813 62.634 8.18951 62.6086 8.57075C62.5832 8.95198 62.4608 9.32317 62.2507 9.65653C62.0405 9.98988 61.7481 10.2768 61.3952 10.4957C61.1263 10.664 61.3835 11.0604 61.6553 10.8903C62.0673 10.6347 62.4114 10.3025 62.6639 9.91693C62.9163 9.53134 63.0709 9.10159 63.1169 8.65762C63.154 8.2029 63.0751 7.74661 62.8858 7.32272C62.6965 6.89883 62.4018 6.51826 62.0237 6.20937C61.7801 6.01032 61.4147 6.3327 61.6592 6.53254V6.53252Z" fill="#E6E6E6"/>
<path d="M53.558 11.7161C53.18 12.0251 52.8854 12.4056 52.6961 12.8295C52.5069 13.2534 52.4278 13.7096 52.4648 14.1643C52.5106 14.6083 52.6651 15.0381 52.9175 15.4238C53.17 15.8094 53.5142 16.1415 53.9263 16.397C54.1978 16.5669 54.4556 16.1708 54.1865 16.0023C53.8336 15.7834 53.5411 15.4966 53.331 15.1632C53.1208 14.8299 52.9985 14.4587 52.9731 14.0774C52.9477 13.6962 53.0199 13.3148 53.1843 12.9618C53.3487 12.6089 53.601 12.2934 53.9224 12.0392C54.1668 11.8395 53.8017 11.5169 53.558 11.716V11.7161Z" fill="#E6E6E6"/>
<path d="M57.7305 8.71659C57.062 8.65214 56.2311 8.6614 55.8604 9.26093C55.5685 9.73301 55.9227 10.4554 56.5971 10.3917C56.6583 10.39 56.7168 10.369 56.7622 10.3326C56.8076 10.2962 56.8371 10.2468 56.8453 10.193C56.8535 10.1392 56.84 10.0846 56.8071 10.0388C56.7742 9.99301 56.7241 9.95903 56.6656 9.94289C56.1839 9.81074 55.7596 10.2197 55.7663 10.6316C55.7741 11.1047 56.2972 11.3866 56.7333 11.5393L56.8703 11.0986C56.7104 11.0701 56.5454 11.0716 56.3861 11.1032C56.2269 11.1347 56.0768 11.1956 55.9458 11.2818C55.8147 11.368 55.7055 11.4776 55.6252 11.6036C55.545 11.7296 55.4954 11.8692 55.4798 12.0132C55.4348 12.6532 56.1477 13.117 56.8191 13.0339C57.1462 12.9934 57.007 12.553 56.6821 12.5932C56.5942 12.6042 56.5047 12.5979 56.4198 12.5748C56.335 12.5516 56.2569 12.5122 56.1912 12.4593C56.1254 12.4064 56.0736 12.3413 56.0394 12.2687C56.0052 12.196 55.9895 12.1176 55.9933 12.039C55.9971 11.9603 56.0204 11.8834 56.0615 11.8136C56.1026 11.7439 56.1606 11.683 56.2312 11.6353C56.3018 11.5876 56.3834 11.5543 56.4702 11.5377C56.557 11.5211 56.6468 11.5217 56.7333 11.5393C56.7983 11.553 56.8667 11.5437 56.9242 11.5135C56.9816 11.4834 57.0237 11.4346 57.0414 11.3775C57.0592 11.3205 57.0512 11.2595 57.0193 11.2075C56.9874 11.1555 56.934 11.1164 56.8703 11.0986C56.6597 11.0249 56.3996 10.91 56.3066 10.7133C56.2469 10.5869 56.3358 10.3307 56.5286 10.3836L56.5971 9.93473C56.5216 9.94235 56.4456 9.92419 56.3846 9.88394C56.3236 9.84368 56.2822 9.78434 56.2688 9.71798C56.2565 9.64466 56.2673 9.56977 56.2999 9.50152C56.3325 9.43326 56.3856 9.37429 56.4535 9.33106C56.8002 9.06889 57.3137 9.13343 57.7305 9.17361C58.0598 9.20536 58.0573 8.74809 57.7305 8.71659Z" fill="#E6E6E6"/>
<path d="M50.0671 5.5532C49.3986 5.48875 48.5677 5.49801 48.197 6.09753C47.9051 6.56962 48.2593 7.29205 48.9337 7.22836C48.9949 7.22657 49.0534 7.20563 49.0988 7.16924C49.1442 7.13286 49.1737 7.08339 49.1819 7.0296C49.1901 6.97581 49.1765 6.92118 49.1437 6.8754C49.1108 6.82962 49.0607 6.79564 49.0022 6.7795C48.5205 6.64735 48.0962 7.05635 48.1029 7.46821C48.1107 7.94135 48.6338 8.22325 49.0699 8.37592L49.2069 7.93523C49.047 7.90667 48.882 7.90822 48.7227 7.93977C48.5635 7.97131 48.4134 8.03216 48.2824 8.11837C48.1513 8.20458 48.0421 8.31424 47.9618 8.44024C47.8816 8.56624 47.832 8.70578 47.8164 8.84983C47.7714 9.48983 48.4843 9.95365 49.1557 9.87052C49.4828 9.83003 49.3436 9.3896 49.0187 9.42983C48.9308 9.44082 48.8413 9.43452 48.7564 9.41138C48.6716 9.38824 48.5935 9.34882 48.5278 9.29592C48.462 9.24302 48.4102 9.17794 48.376 9.1053C48.3418 9.03265 48.3261 8.95423 48.3299 8.87558C48.3337 8.79693 48.357 8.72 48.3981 8.65023C48.4392 8.58046 48.4972 8.51957 48.5678 8.47189C48.6384 8.4242 48.72 8.39088 48.8068 8.3743C48.8936 8.35771 48.9834 8.35827 49.0699 8.37593C49.1349 8.38957 49.2033 8.38034 49.2608 8.35017C49.3183 8.32 49.3603 8.27124 49.378 8.21415C49.3958 8.15707 49.3879 8.0961 49.356 8.04408C49.324 7.99206 49.2706 7.95304 49.2069 7.93523C48.9963 7.8615 48.7362 7.74658 48.6432 7.54987C48.5835 7.42352 48.6724 7.1673 48.8652 7.22019L48.9337 6.77134C48.8582 6.77896 48.7822 6.7608 48.7212 6.72054C48.6602 6.68029 48.6188 6.62095 48.6054 6.55459C48.5931 6.48127 48.6039 6.40638 48.6365 6.33813C48.6691 6.26987 48.7222 6.2109 48.7901 6.16767C49.1368 5.9055 49.6503 5.97004 50.0671 6.01022C50.3964 6.04197 50.3938 5.5847 50.0671 5.55319V5.5532Z" fill="#E6E6E6"/>
<path d="M64.984 16.181C65.6526 16.2454 66.4834 16.2362 66.8541 15.6366C67.1461 15.1645 66.7919 14.4421 66.1174 14.5058C66.0562 14.5076 65.9977 14.5285 65.9523 14.5649C65.9069 14.6013 65.8775 14.6508 65.8693 14.7046C65.8611 14.7584 65.8746 14.813 65.9075 14.8588C65.9404 14.9046 65.9905 14.9385 66.0489 14.9547C66.5306 15.0868 66.955 14.6778 66.9482 14.266C66.9405 13.7928 66.4174 13.5109 65.9812 13.3582L65.8442 13.7989C66.0042 13.8275 66.1692 13.826 66.3284 13.7944C66.4877 13.7629 66.6377 13.702 66.7688 13.6158C66.8999 13.5296 67.0091 13.4199 67.0893 13.2939C67.1696 13.1679 67.2191 13.0284 67.2347 12.8843C67.2797 12.2443 66.5669 11.7805 65.8954 11.8636C65.5683 11.9041 65.7075 12.3446 66.0324 12.3043C66.1203 12.2933 66.2099 12.2996 66.2947 12.3228C66.3796 12.3459 66.4576 12.3853 66.5234 12.4382C66.5891 12.4911 66.641 12.5562 66.6751 12.6289C66.7093 12.7015 66.7251 12.7799 66.7213 12.8586C66.7174 12.9372 66.6942 13.0142 66.653 13.0839C66.6119 13.1537 66.554 13.2146 66.4834 13.2623C66.4127 13.31 66.3311 13.3433 66.2443 13.3599C66.1576 13.3765 66.0677 13.3759 65.9812 13.3582C65.9162 13.3446 65.8478 13.3538 65.7904 13.384C65.7329 13.4142 65.6909 13.4629 65.6732 13.52C65.6554 13.5771 65.6633 13.6381 65.6952 13.6901C65.7271 13.7421 65.7805 13.7811 65.8442 13.7989C66.0548 13.8727 66.315 13.9876 66.4079 14.1843C66.4676 14.3107 66.3787 14.5669 66.1859 14.514L66.1174 14.9628C66.193 14.9552 66.269 14.9734 66.3299 15.0136C66.3909 15.0539 66.4324 15.1132 66.4458 15.1796C66.458 15.2529 66.4473 15.3278 66.4147 15.396C66.3821 15.4643 66.3289 15.5233 66.261 15.5665C65.9143 15.8287 65.4008 15.7641 64.9841 15.7239C64.6548 15.6922 64.6573 16.1495 64.9841 16.181L64.984 16.181Z" fill="#E6E6E6"/>
<path d="M83.2019 31.6653L82.4906 30.2689L81.9265 29.1596L81.1078 27.5516L80.5421 26.4421L79.7745 24.932C79.762 24.9076 79.7424 24.8865 79.7178 24.8709C79.6932 24.8553 79.6644 24.8457 79.6343 24.843C79.6042 24.8404 79.5739 24.8448 79.5463 24.8558C79.5187 24.8667 79.4948 24.884 79.4771 24.9057L78.685 25.8843L78.0717 26.6399L77.1836 27.7356L76.5718 28.4929L75.6836 29.5885L75.072 30.3443L74.6169 30.9057C74.5985 30.927 74.5872 30.9526 74.5845 30.9794C74.5816 31.0059 74.5864 31.0326 74.5982 31.0571C74.6106 31.0816 74.6301 31.1027 74.6547 31.1184C74.6794 31.134 74.7082 31.1436 74.7384 31.1461L83.0293 31.8797C83.055 31.8825 83.0811 31.8798 83.1055 31.8719C83.1298 31.8639 83.1516 31.8509 83.1691 31.8339C83.1755 31.8288 83.1814 31.8231 83.1865 31.817C83.2036 31.7951 83.2141 31.7697 83.2173 31.7432C83.2206 31.7165 83.2152 31.6894 83.2019 31.6653Z" fill="#5A66DF"/>
<path d="M81.1079 27.5515L78.0717 26.6399L78.6851 25.8843L80.5422 26.442L81.1079 27.5515Z" fill="#E6E6E6"/>
<path d="M82.4907 30.2689L76.5719 28.4928L77.1836 27.7355L81.9266 29.1595L82.4907 30.2689Z" fill="#E6E6E6"/>
<path d="M83.1692 31.8338C83.1517 31.8508 83.1299 31.8639 83.1056 31.8718C83.0812 31.8798 83.0551 31.8825 83.0293 31.8796L78.9984 31.523L75.072 30.3443L75.6836 29.5885L83.1692 31.8338Z" fill="#E6E6E6"/>
<path d="M79.7026 25.4554C80.4617 25.4554 81.077 24.9097 81.077 24.2367C81.077 23.5636 80.4617 23.0179 79.7026 23.0179C78.9436 23.0179 78.3282 23.5636 78.3282 24.2367C78.3282 24.9097 78.9436 25.4554 79.7026 25.4554Z" fill="#5A66DF"/>
<path d="M19.5826 30.0983L18.7184 28.7714L18.033 27.7172L17.0383 26.1892L16.3511 25.135L15.4182 23.7C15.403 23.6768 15.3812 23.6576 15.355 23.6442C15.3287 23.6309 15.299 23.6238 15.2688 23.6238C15.2385 23.6238 15.2088 23.6309 15.1826 23.6442C15.1563 23.6576 15.1345 23.6768 15.1193 23.7L14.4407 24.7435L13.915 25.5494L13.154 26.7179L12.63 27.5253L11.8689 28.6937L11.3449 29.4996L10.955 30.0983C10.939 30.1211 10.9306 30.1476 10.9309 30.1745C10.9311 30.2011 10.9387 30.2273 10.9532 30.2506C10.9683 30.2739 10.9901 30.2932 11.0164 30.3066C11.0426 30.32 11.0724 30.3269 11.1027 30.3268H19.4348C19.4607 30.3274 19.4864 30.3224 19.5098 30.3123C19.5331 30.3022 19.5533 30.2873 19.5688 30.2689C19.5746 30.2633 19.5798 30.2572 19.5843 30.2506C19.5988 30.2273 19.6065 30.2011 19.6066 30.1745C19.6069 30.1476 19.5986 30.1211 19.5826 30.0983Z" fill="#5A66DF"/>
<path d="M17.0383 26.1892L13.9151 25.5495L14.4407 24.7435L16.3511 25.135L17.0383 26.1892Z" fill="#E6E6E6"/>
<path d="M18.7184 28.7713L12.6299 27.5253L13.154 26.7178L18.0329 27.7172L18.7184 28.7713Z" fill="#E6E6E6"/>
<path d="M19.5689 30.2689C19.5534 30.2874 19.5331 30.3023 19.5098 30.3124C19.4865 30.3224 19.4608 30.3274 19.4349 30.3268H15.3839L11.345 29.4996L11.869 28.6937L19.5689 30.2689Z" fill="#E6E6E6"/>
<path d="M15.2688 24.2332C16.0278 24.2332 16.6431 23.6876 16.6431 23.0145C16.6431 22.3414 16.0278 21.7958 15.2688 21.7958C14.5097 21.7958 13.8944 22.3414 13.8944 23.0145C13.8944 23.6876 14.5097 24.2332 15.2688 24.2332Z" fill="#5A66DF"/>
</g>
<defs>
<clipPath id="clip0_263_2">
<rect width="90" height="100" fill="white"/>
</clipPath>
</defs>
</svg>
