<svg width="110" height="100" viewBox="0 0 110 100" fill="none" xmlns="http://www.w3.org/2000/svg">
<g clip-path="url(#clip0_1_380)">
<path d="M66.9516 66.6612H42.7916C42.7071 66.6611 42.6261 66.6275 42.5664 66.5677C42.5066 66.508 42.473 66.427 42.4729 66.3424V39.7601C42.473 39.6756 42.5066 39.5946 42.5664 39.5349C42.6261 39.4751 42.7071 39.4415 42.7916 39.4414H66.9516C67.0361 39.4415 67.1171 39.4751 67.1768 39.5349C67.2366 39.5946 67.2702 39.6756 67.2703 39.7601V66.3424C67.2702 66.427 67.2366 66.508 67.1768 66.5677C67.1171 66.6275 67.0361 66.6611 66.9516 66.6612Z" fill="white"/>
<path d="M66.9516 66.6612H42.7916C42.7071 66.6611 42.6261 66.6275 42.5664 66.5677C42.5066 66.508 42.473 66.427 42.4729 66.3424V39.7601C42.473 39.6756 42.5066 39.5946 42.5664 39.5349C42.6261 39.4751 42.7071 39.4415 42.7916 39.4414H66.9516C67.0361 39.4415 67.1171 39.4751 67.1768 39.5349C67.2366 39.5946 67.2702 39.6756 67.2703 39.7601V66.3424C67.2702 66.427 67.2366 66.508 67.1768 66.5677C67.1171 66.6275 67.0361 66.6611 66.9516 66.6612ZM42.7916 39.5689C42.7409 39.569 42.6923 39.5891 42.6565 39.625C42.6206 39.6608 42.6004 39.7094 42.6004 39.7602V66.3425C42.6004 66.3932 42.6206 66.4418 42.6565 66.4776C42.6923 66.5135 42.7409 66.5336 42.7916 66.5337H66.9516C67.0023 66.5336 67.0509 66.5135 67.0867 66.4776C67.1226 66.4418 67.1428 66.3932 67.1428 66.3425V39.7602C67.1428 39.7094 67.1226 39.6608 67.0867 39.625C67.0509 39.5891 67.0023 39.569 66.9516 39.5689H42.7916Z" fill="#3F3D56"/>
<path d="M53.2142 49.577H47.2221C47.1376 49.5769 47.0565 49.5433 46.9968 49.4836C46.937 49.4238 46.9034 49.3428 46.9033 49.2583V43.2661C46.9034 43.1816 46.937 43.1006 46.9968 43.0408C47.0565 42.9811 47.1376 42.9475 47.2221 42.9474H53.2142C53.2987 42.9475 53.3798 42.9811 53.4395 43.0409C53.4993 43.1006 53.5329 43.1816 53.533 43.2661V49.2583C53.5329 49.3428 53.4993 49.4238 53.4395 49.4836C53.3798 49.5433 53.2987 49.5769 53.2142 49.577ZM47.2221 43.0749C47.1714 43.0749 47.1227 43.0951 47.0869 43.131C47.051 43.1668 47.0309 43.2154 47.0308 43.2661V49.2583C47.0309 49.309 47.051 49.3576 47.0869 49.3935C47.1227 49.4293 47.1714 49.4495 47.2221 49.4495H53.2142C53.2649 49.4495 53.3135 49.4293 53.3494 49.3935C53.3853 49.3576 53.4054 49.309 53.4055 49.2583V43.2661C53.4054 43.2154 53.3853 43.1668 53.3494 43.131C53.3135 43.0951 53.2649 43.0749 53.2142 43.0749H47.2221Z" fill="#F2F2F2"/>
<path d="M51.493 50.3102H45.5008C45.4248 50.3101 45.3519 50.2798 45.2981 50.226C45.2443 50.1723 45.2141 50.0993 45.214 50.0233V44.0311C45.2141 43.9551 45.2443 43.8822 45.2981 43.8284C45.3519 43.7746 45.4248 43.7443 45.5008 43.7443H51.493C51.5691 43.7443 51.642 43.7746 51.6958 43.8284C51.7495 43.8822 51.7798 43.9551 51.7799 44.0311V50.0233C51.7798 50.0993 51.7495 50.1723 51.6958 50.226C51.642 50.2798 51.5691 50.3101 51.493 50.3102Z" fill="#5A66DF"/>
<path d="M64.2424 53.2425H45.501C45.4632 53.2426 45.4259 53.2353 45.391 53.2209C45.3561 53.2065 45.3244 53.1854 45.2977 53.1587C45.271 53.1321 45.2498 53.1004 45.2354 53.0656C45.2209 53.0308 45.2135 52.9934 45.2135 52.9557C45.2135 52.918 45.2209 52.8806 45.2354 52.8458C45.2498 52.8109 45.271 52.7793 45.2977 52.7526C45.3244 52.726 45.3561 52.7049 45.391 52.6905C45.4259 52.6761 45.4632 52.6687 45.501 52.6688H64.2424C64.3185 52.6688 64.3915 52.699 64.4453 52.7528C64.4991 52.8066 64.5293 52.8796 64.5293 52.9557C64.5293 53.0318 64.4991 53.1047 64.4453 53.1585C64.3915 53.2123 64.3185 53.2425 64.2424 53.2425V53.2425Z" fill="#CCCCCC"/>
<path d="M59.7164 55.2186H45.501C45.4632 55.2187 45.4259 55.2113 45.391 55.197C45.3561 55.1826 45.3244 55.1615 45.2977 55.1348C45.271 55.1082 45.2498 55.0765 45.2354 55.0417C45.2209 55.0068 45.2135 54.9695 45.2135 54.9318C45.2135 54.894 45.2209 54.8567 45.2354 54.8218C45.2498 54.787 45.271 54.7554 45.2977 54.7287C45.3244 54.7021 45.3561 54.6809 45.391 54.6666C45.4259 54.6522 45.4632 54.6448 45.501 54.6449H59.7164C59.7925 54.6449 59.8655 54.6751 59.9193 54.7289C59.973 54.7827 60.0033 54.8557 60.0033 54.9318C60.0033 55.0078 59.973 55.0808 59.9193 55.1346C59.8655 55.1884 59.7925 55.2186 59.7164 55.2186V55.2186Z" fill="#CCCCCC"/>
<path d="M64.1787 45.9754H55.8916C55.8155 45.9754 55.7426 45.9452 55.6888 45.8914C55.635 45.8376 55.6047 45.7647 55.6047 45.6886C55.6047 45.6125 55.635 45.5395 55.6888 45.4857C55.7426 45.432 55.8155 45.4017 55.8916 45.4017H64.1787C64.2164 45.4017 64.2538 45.409 64.2887 45.4234C64.3235 45.4378 64.3552 45.4589 64.3819 45.4855C64.4086 45.5122 64.4298 45.5438 64.4443 45.5787C64.4587 45.6135 64.4662 45.6509 64.4662 45.6886C64.4662 45.7263 64.4587 45.7637 64.4443 45.7985C64.4298 45.8333 64.4086 45.865 64.3819 45.8916C64.3552 45.9183 64.3235 45.9394 64.2887 45.9538C64.2538 45.9682 64.2164 45.9755 64.1787 45.9754Z" fill="#5A66DF"/>
<path d="M62.1105 47.9515H55.8916C55.8155 47.9515 55.7426 47.9213 55.6888 47.8675C55.635 47.8137 55.6047 47.7408 55.6047 47.6647C55.6047 47.5886 55.635 47.5156 55.6888 47.4618C55.7426 47.408 55.8155 47.3778 55.8916 47.3778H62.1105C62.1866 47.3778 62.2596 47.408 62.3134 47.4618C62.3672 47.5156 62.3974 47.5886 62.3974 47.6647C62.3974 47.7408 62.3672 47.8137 62.3134 47.8675C62.2596 47.9213 62.1866 47.9515 62.1105 47.9515Z" fill="#5A66DF"/>
<path d="M64.2425 57.1948H45.501C45.4249 57.1948 45.3519 57.1646 45.2981 57.1108C45.2443 57.057 45.2141 56.984 45.2141 56.908C45.2141 56.8319 45.2443 56.7589 45.2981 56.7051C45.3519 56.6513 45.4249 56.6211 45.501 56.6211H64.2425C64.2802 56.621 64.3175 56.6284 64.3524 56.6428C64.3873 56.6571 64.419 56.6783 64.4457 56.7049C64.4724 56.7315 64.4936 56.7632 64.508 56.798C64.5225 56.8329 64.5299 56.8702 64.5299 56.908C64.5299 56.9457 64.5225 56.983 64.508 57.0179C64.4936 57.0527 64.4724 57.0844 64.4457 57.111C64.419 57.1377 64.3873 57.1588 64.3524 57.1732C64.3175 57.1875 64.2802 57.1949 64.2425 57.1948Z" fill="#CCCCCC"/>
<path d="M59.7165 59.1709H45.501C45.4249 59.1709 45.3519 59.1407 45.2981 59.0869C45.2443 59.0331 45.2141 58.9601 45.2141 58.884C45.2141 58.808 45.2443 58.735 45.2981 58.6812C45.3519 58.6274 45.4249 58.5972 45.501 58.5972H59.7164C59.7542 58.5971 59.7915 58.6045 59.8264 58.6188C59.8613 58.6332 59.893 58.6543 59.9197 58.681C59.9464 58.7076 59.9676 58.7393 59.982 58.7741C59.9965 58.809 60.0039 58.8463 60.0039 58.884C60.0039 58.9218 59.9965 58.9591 59.982 58.994C59.9676 59.0288 59.9464 59.0605 59.9197 59.0871C59.893 59.1138 59.8613 59.1349 59.8264 59.1493C59.7915 59.1636 59.7542 59.171 59.7164 59.1709L59.7165 59.1709Z" fill="#CCCCCC"/>
<path d="M64.2424 61.1471H45.501C45.4632 61.1472 45.4259 61.1398 45.391 61.1254C45.3561 61.111 45.3244 61.0899 45.2977 61.0633C45.271 61.0366 45.2498 61.005 45.2354 60.9701C45.2209 60.9353 45.2135 60.898 45.2135 60.8602C45.2135 60.8225 45.2209 60.7852 45.2354 60.7503C45.2498 60.7155 45.271 60.6838 45.2977 60.6572C45.3244 60.6305 45.3561 60.6094 45.391 60.595C45.4259 60.5806 45.4632 60.5733 45.501 60.5734H64.2424C64.3185 60.5734 64.3915 60.6036 64.4453 60.6574C64.4991 60.7112 64.5293 60.7841 64.5293 60.8602C64.5293 60.9363 64.4991 61.0093 64.4453 61.0631C64.3915 61.1169 64.3185 61.1471 64.2424 61.1471Z" fill="#CCCCCC"/>
<path d="M64.2424 63.1233H45.501C45.4249 63.1233 45.3519 63.0931 45.2981 63.0393C45.2443 62.9855 45.2141 62.9125 45.2141 62.8364C45.2141 62.7603 45.2443 62.6874 45.2981 62.6336C45.3519 62.5798 45.4249 62.5496 45.501 62.5496H64.2424C64.3185 62.5496 64.3915 62.5798 64.4453 62.6336C64.4991 62.6874 64.5293 62.7603 64.5293 62.8364C64.5293 62.9125 64.4991 62.9855 64.4453 63.0393C64.3915 63.0931 64.3185 63.1233 64.2424 63.1233Z" fill="#CCCCCC"/>
<path d="M37.4354 78.4367C37.4361 82.1815 36.309 85.8397 34.201 88.9349C32.0929 92.03 29.1016 94.4185 25.6167 95.7893C25.3433 95.8989 25.0649 96.001 24.7853 96.0954C24.4729 96.2025 24.1571 96.3008 23.838 96.3902C23.6163 96.4519 23.3924 96.5099 23.1665 96.564C19.7658 97.379 16.205 97.2271 12.886 96.1257C12.6252 96.0387 12.3669 95.9455 12.1112 95.8485C11.7673 95.7163 11.4272 95.5739 11.0934 95.4215C11.0682 95.4114 11.0442 95.4001 11.0203 95.3887C10.8893 95.3283 10.7621 95.2678 10.6323 95.2036H10.6311C10.4534 95.1179 10.2775 95.0289 10.1032 94.9365C9.70264 94.7249 9.31087 94.4994 8.92792 94.26C8.72888 94.1366 8.53279 94.0085 8.33963 93.8758C5.29949 91.8232 2.9327 88.9191 1.5358 85.5273C0.138909 82.1355 -0.225962 78.4069 0.486908 74.8087C1.19978 71.2105 2.95868 67.9026 5.54324 65.2996C8.1278 62.6966 11.4231 60.9142 15.0161 60.1758C15.3449 60.1078 15.6771 60.049 16.0126 59.9994C16.223 59.9667 16.4359 59.939 16.6487 59.915C16.8012 59.8974 16.9536 59.881 17.1085 59.8684H17.1098C17.5243 59.8306 17.9425 59.8071 18.3645 59.7979C18.4224 59.7966 18.4804 59.7954 18.5396 59.7941C18.5723 59.7941 18.6051 59.7928 18.6378 59.7941H18.6391C18.6895 59.7928 18.7399 59.7928 18.7915 59.7928C19.0032 59.7928 19.2148 59.7966 19.4252 59.8042C19.8887 59.8193 20.3473 59.8512 20.8008 59.8999C21.0628 59.9276 21.321 59.9617 21.5793 59.9994C21.6083 60.0045 21.6385 60.0083 21.6675 60.0133C21.7531 60.0272 21.8401 60.041 21.9257 60.0561C22.1071 60.0851 22.2873 60.1191 22.4674 60.1556C22.6362 60.1897 22.8037 60.2249 22.9713 60.2627C23.5905 60.404 24.2019 60.5776 24.8029 60.783C28.8762 62.1755 32.3442 64.9311 34.6212 68.5844C34.6854 68.6865 34.7484 68.7898 34.8101 68.8943C34.858 68.9724 34.9034 69.0505 34.9487 69.1299C34.9651 69.1563 34.9802 69.1828 34.9941 69.2093C35.0041 69.2244 35.0117 69.2395 35.0205 69.2546C35.1036 69.3995 35.1843 69.5469 35.2624 69.6942C36.6936 72.3857 37.4399 75.3883 37.4354 78.4367Z" fill="white"/>
<path d="M18.7935 97.2071C16.7723 97.207 14.7644 96.8823 12.8462 96.2453C12.5989 96.1628 12.3439 96.0716 12.0665 95.9663C11.7165 95.8317 11.3717 95.6871 11.041 95.5361C11.019 95.5274 10.9929 95.5152 10.9667 95.5028C10.8413 95.4449 10.7187 95.3867 10.594 95.3251L10.5763 95.317C10.3994 95.2318 10.2204 95.1412 10.0442 95.0479C9.64299 94.8358 9.24489 94.6067 8.86111 94.3669C8.6614 94.243 8.46182 94.1126 8.26824 93.9796C5.20775 91.913 2.82517 88.9892 1.41901 85.5745C0.0128584 82.1599 -0.354336 78.4061 0.363435 74.7837C1.08121 71.1612 2.85202 67.8311 5.45402 65.2106C8.05602 62.5901 11.3735 60.7958 14.9908 60.0524C15.3206 59.9841 15.6582 59.9244 15.9941 59.8748C16.1931 59.8438 16.409 59.8152 16.6346 59.7898C16.7881 59.772 16.9419 59.7556 17.0983 59.7428C17.5134 59.7051 17.9385 59.6812 18.3617 59.6719L18.5707 59.6679C18.5947 59.6675 18.6186 59.6673 18.6425 59.6682C18.6874 59.6669 18.7388 59.6669 18.7915 59.6669C19.0046 59.6669 19.2193 59.6707 19.4297 59.6782C19.8943 59.6934 20.3603 59.7259 20.8142 59.7746C21.0546 59.8 21.3108 59.8328 21.5975 59.8748L21.7186 59.894C21.7948 59.9062 21.8717 59.9186 21.9476 59.932C22.1109 59.9581 22.2847 59.99 22.4924 60.0322C22.662 60.0664 22.8305 60.1018 22.999 60.1398C23.6226 60.2822 24.2383 60.4571 24.8436 60.6638C28.9423 62.0696 32.4324 64.8428 34.728 68.5178C34.7926 68.6203 34.8561 68.7245 34.9186 68.8303C34.966 68.9076 35.012 68.9868 35.058 69.0674C35.0728 69.091 35.0883 69.1181 35.1027 69.1453C35.1098 69.1564 35.116 69.1674 35.1222 69.1785L35.1293 69.1912C35.2085 69.3291 35.2883 69.4741 35.3736 69.6352C36.6129 71.971 37.3449 74.5421 37.5215 77.1804C37.6982 79.8186 37.3157 82.4645 36.3989 84.9446C35.4822 87.4248 34.0519 89.6833 32.2017 91.5723C30.3516 93.4614 28.1233 94.9384 25.6628 95.9065C25.396 96.0135 25.114 96.1173 24.8256 96.2148C24.5131 96.3218 24.1921 96.4217 23.8719 96.5115C23.6502 96.5732 23.4228 96.6322 23.1959 96.6866C21.7539 97.0322 20.2763 97.2069 18.7935 97.2071ZM10.6599 95.0776H10.6605L10.6882 95.0907C10.8169 95.1544 10.9431 95.2144 11.0731 95.2743C11.096 95.2852 11.1175 95.2954 11.1402 95.3045C11.4717 95.4557 11.8117 95.5984 12.1564 95.7309C12.4301 95.8347 12.6819 95.9249 12.9258 96.0062C16.2223 97.1011 19.7594 97.2519 23.1371 96.4415C23.3611 96.3878 23.5855 96.3297 23.8041 96.2688C24.1195 96.1804 24.436 96.082 24.7444 95.9763C25.029 95.8801 25.3065 95.7779 25.5698 95.6724C29.0397 94.3232 32.0191 91.9538 34.1149 88.8767C36.2107 85.7997 37.3245 82.1596 37.3094 78.4366V78.4365C37.3113 75.4091 36.5702 72.4275 35.1511 69.7534C35.067 69.5946 34.9886 69.452 34.9112 69.3173L34.9019 69.3008C34.8979 69.2936 34.8941 69.2864 34.8893 69.2793L34.8824 69.2677C34.8699 69.2439 34.8563 69.22 34.8416 69.1962C34.7946 69.1142 34.7499 69.0371 34.7027 68.9602C34.6405 68.8548 34.5782 68.7525 34.5146 68.6516C32.2497 65.0256 28.8061 62.2892 24.7621 60.9022C24.1653 60.6984 23.5581 60.5259 22.9432 60.3856C22.7769 60.348 22.6103 60.3129 22.4425 60.2791C22.2381 60.2377 22.0677 60.2064 21.9058 60.1805C21.8291 60.1669 21.7534 60.1548 21.6785 60.1426L21.5576 60.1235C21.2777 60.0826 21.0247 60.0503 20.7875 60.0252C20.3395 59.977 19.8799 59.945 19.421 59.9301C19.2133 59.9226 19.0016 59.9188 18.7915 59.9188C18.7402 59.919 18.6915 59.9188 18.6421 59.92C18.6134 59.9192 18.5936 59.9195 18.5739 59.9197L18.3671 59.9238C17.9498 59.933 17.5305 59.9565 17.1212 59.9939L17.1085 59.9943C16.9652 60.0064 16.8142 60.0226 16.6632 60.0401C16.4406 60.0651 16.2284 60.0933 16.0319 60.1239C15.6998 60.173 15.3669 60.2318 15.0416 60.2991C11.4728 61.0325 8.19979 62.8029 5.63267 65.3882C3.06556 67.9736 1.31852 71.2591 0.610453 74.8331C-0.0976144 78.407 0.264781 82.1104 1.65223 85.4793C3.03969 88.8482 5.39049 91.7327 8.41009 93.7714C8.60128 93.9028 8.79754 94.031 8.99428 94.153C9.37327 94.3898 9.76604 94.6159 10.1621 94.8251C10.327 94.9125 10.4943 94.9974 10.6599 95.0776Z" fill="#CBCBCB"/>
<path d="M34.7453 74.3884C34.5418 74.654 34.2825 74.8718 33.9857 75.0264C33.6889 75.181 33.3618 75.2686 33.0274 75.2832C32.6931 75.2977 32.3597 75.2387 32.0506 75.1104C31.7415 74.982 31.4643 74.7875 31.2385 74.5405L26.3197 76.3206L24.5089 73.5952L31.4906 71.179C31.9307 70.8272 32.4846 70.6491 33.0472 70.6784C33.6099 70.7077 34.1423 70.9424 34.5435 71.338C34.9447 71.7336 35.1868 72.2626 35.224 72.8249C35.2612 73.3871 35.0909 73.9434 34.7453 74.3884Z" fill="#9F616A"/>
<path d="M19.3752 74.6421L29.5089 71.2925L31.2166 75.02L21.7687 77.9173L19.3752 74.6421Z" fill="#CCCCCC"/>
<path d="M23.1664 96.5641C19.7657 97.379 16.2049 97.2272 12.8859 96.1257L13.1126 93.9817L13.323 91.9787L16.4786 87.0998L17.4901 85.5365L21.6586 87.0519L22.0831 89.7289L22.7596 93.998L23.1664 96.5641Z" fill="#2F2E41"/>
<path d="M25.6167 95.7894C25.3433 95.899 25.0649 96.001 24.7852 96.0955C24.4728 96.2026 24.1571 96.3009 23.8379 96.3903C23.6162 96.452 23.3924 96.51 23.1665 96.5641C19.7658 97.3791 16.2049 97.2272 12.8859 96.1257C12.6252 96.0388 12.3669 95.9456 12.1112 95.8486C12.1461 96.5946 12.1233 97.3421 12.0432 98.0846C11.6793 97.2145 11.3622 96.3256 11.0933 95.4216C11.0744 95.3611 11.0568 95.3006 11.0392 95.2402C10.951 94.9353 10.8729 94.6443 10.8023 94.371C10.7217 94.0548 10.6524 93.7613 10.5945 93.4929C10.364 92.4398 10.2909 91.7885 10.2909 91.7885L12.7536 86.6741L13.2462 86.7308L13.4503 86.7534L14.6848 86.8945L16.4786 87.0999L19.3848 87.4312L22.0831 89.7289L24.5005 91.7885C24.5005 91.7885 24.7021 92.4738 25.0183 93.6088C25.1896 94.2185 25.3924 94.958 25.6167 95.7894Z" fill="#2F2E41"/>
<path d="M17.809 61.7682C20.2155 61.7682 22.1664 59.8174 22.1664 57.4108C22.1664 55.0042 20.2155 53.0533 17.809 53.0533C15.4024 53.0533 13.4515 55.0042 13.4515 57.4108C13.4515 59.8174 15.4024 61.7682 17.809 61.7682Z" fill="#9F616A"/>
<path d="M20.8422 66.5902C20.8422 66.5902 19.7949 63.353 17.332 63.353C16.7163 63.353 15.7227 63.4041 14.9149 63.9312C11.6628 66.0533 9.68443 69.6604 9.53285 73.5407L8.77563 92.9254C8.77563 92.9254 12.9436 94.441 14.4593 93.8727C15.9749 93.3043 17.4905 89.5152 17.4905 89.5152C17.4905 89.5152 17.1116 94.6305 18.6273 94.441C20.1429 94.2516 25.8265 93.8727 26.016 93.1149C26.2054 92.357 23.1157 76.063 23.1157 76.063L20.8422 66.5902Z" fill="#CCCCCC"/>
<path d="M15.6906 58.6882C16.0816 58.6649 16.4633 58.797 16.8514 58.8485C18.2403 59.0329 19.6852 58.0251 19.9918 56.658C20.0164 56.476 20.0707 56.2992 20.1524 56.1347C20.3662 55.7857 20.853 55.7192 21.2543 55.7994C21.6556 55.8797 22.036 56.0675 22.4447 56.0889C23.0757 56.122 23.6815 55.7336 24.0178 55.1986C24.3541 54.6636 24.4493 54.0053 24.4039 53.3751L24.1014 53.6926C23.9785 53.4325 23.9311 53.1432 23.9645 52.8575C23.8042 52.8148 23.6356 52.814 23.4749 52.8551C23.3141 52.8962 23.1667 52.9779 23.0466 53.0924C22.7798 53.1208 22.9812 52.5976 22.783 52.4168C22.6866 52.3576 22.5717 52.3361 22.4605 52.3565C21.893 52.362 21.434 51.9279 20.9868 51.5785C20.212 50.9745 19.306 50.5612 18.3419 50.3721C17.7012 50.2471 17.0198 50.2271 16.4121 50.4657C15.9131 50.6616 15.4953 51.0185 15.1089 51.3901C14.1575 52.3049 13.315 53.3798 12.9192 54.6389C12.5975 55.6703 12.5883 56.7738 12.893 57.8103C13.0525 58.3485 13.5332 60.192 14.2368 60.2349C15.121 60.2889 14.5901 58.7539 15.6906 58.6882Z" fill="#2F2E41"/>
<path opacity="0.1" d="M17.5305 72.3273L13.0685 78.8716L11.6415 94.0727L17.5305 72.3273Z" fill="black"/>
<path d="M36.4417 68.3269C36.5485 68.1772 36.5896 68.0235 36.5334 67.9834C36.4773 67.9434 36.3453 68.0322 36.2385 68.1819C36.1317 68.3316 36.0907 68.4853 36.1468 68.5254C36.2029 68.5654 36.335 68.4766 36.4417 68.3269Z" fill="#3F3D56"/>
<path d="M30.4913 75.3774C30.3655 75.2876 30.2805 75.1516 30.255 74.9992C30.2296 74.8469 30.2657 74.6906 30.3554 74.5648L35.4304 67.4519C35.5201 67.3262 35.6561 67.2412 35.8085 67.2157C35.9609 67.1903 36.1171 67.2264 36.2429 67.3161L30.4913 75.3774L30.4913 75.3774Z" fill="#5A66DF"/>
<path d="M30.6996 76.0883L30.406 75.8788C30.3556 75.8428 30.3128 75.7973 30.28 75.7448C30.2472 75.6923 30.225 75.6338 30.2148 75.5727C30.2046 75.5117 30.2065 75.4492 30.2205 75.3889C30.2344 75.3286 30.2601 75.2716 30.296 75.2212L36.0743 67.1226C36.1356 67.0366 36.2286 66.9786 36.3327 66.9611C36.4368 66.9437 36.5436 66.9684 36.6295 67.0297L36.9829 67.2818L30.6996 76.0883H30.6996Z" fill="#2F2E41"/>
<path d="M35.8997 67.9402L35.5131 68.4822L35.6486 68.5788L36.0352 68.0369L35.8997 67.9402Z" fill="#D0CDE1"/>
<path d="M35.3681 68.6854L34.9814 69.2273L35.1169 69.324L35.5036 68.782L35.3681 68.6854Z" fill="#D0CDE1"/>
<path d="M12.6544 99.0312C12.8499 98.7596 12.9834 98.4484 13.0457 98.1196C13.1079 97.7907 13.0972 97.4523 13.0145 97.128C12.9318 96.8037 12.7789 96.5016 12.5668 96.2428C12.3546 95.9839 12.0883 95.7748 11.7866 95.63L12.0692 90.4066L8.93686 89.4607L8.64133 96.8428C8.43176 97.3658 8.42132 97.9475 8.61198 98.4777C8.80265 99.0079 9.18117 99.4497 9.67583 99.7194C10.1705 99.9892 10.7469 100.068 11.2959 99.9413C11.8449 99.8144 12.3282 99.4906 12.6544 99.0312H12.6544Z" fill="#9F616A"/>
<path d="M12.6377 94.7347H8.10615L6.85925 80.7764L6.86353 80.7637L11.1049 68.3072C11.2542 67.8686 11.4933 67.4659 11.8068 67.1248C12.1203 66.7836 12.5014 66.5115 12.9259 66.3257C13.3504 66.14 13.8089 66.0446 14.2722 66.0458C14.7355 66.0469 15.1935 66.1446 15.617 66.3325C16.0406 66.5203 16.4203 66.7944 16.7321 67.1371C17.0439 67.4798 17.281 67.8837 17.4281 68.323C17.5753 68.7624 17.6293 69.2275 17.5868 69.6889C17.5443 70.1503 17.4062 70.5978 17.1813 71.0028L12.1905 79.9905L12.6377 94.7347Z" fill="#CCCCCC"/>
<path d="M109.617 34.2008C109.621 37.8748 108.54 41.4682 106.509 44.5303C104.479 47.5925 101.59 49.9872 98.2044 51.4142C94.8188 52.8412 91.0873 53.2371 87.4776 52.5521C83.868 51.8672 80.5408 50.1319 77.9132 47.5639C75.2857 44.9959 73.4747 41.7094 72.7072 38.1164C71.9397 34.5233 72.25 30.7837 73.5991 27.3663C74.9481 23.9489 77.276 21.0057 80.2908 18.9058C83.3056 16.8059 86.8733 15.6426 90.5465 15.5619C90.6044 15.5607 90.6623 15.5594 90.7216 15.5581C90.8047 15.5569 90.8891 15.5569 90.9735 15.5569C91.1851 15.5569 91.3968 15.5607 91.6071 15.5682C92.0707 15.5833 92.5293 15.6153 92.9828 15.664C93.2448 15.6917 93.503 15.7257 93.7613 15.7635C93.7902 15.7685 93.8205 15.7723 93.8494 15.7773C94.9151 15.9416 95.9643 16.1992 96.9849 16.547C100.669 17.8036 103.868 20.1813 106.134 23.3471C108.399 26.5128 109.617 30.308 109.617 34.2008Z" fill="white"/>
<path d="M90.9561 53.0053C80.6048 53.0058 72.1793 44.5896 72.1696 34.2362C72.1649 29.322 74.086 24.6016 77.5208 21.0872C80.9556 17.5728 85.6307 15.544 90.5437 15.4361L90.7188 15.4322C91.0155 15.428 91.3175 15.4318 91.6116 15.4424C92.0758 15.4576 92.5417 15.49 92.9962 15.5388C93.2368 15.5642 93.4931 15.597 93.7795 15.639L93.871 15.6533C98.2955 16.3403 102.328 18.588 105.239 21.99C108.151 25.3919 109.748 29.7233 109.743 34.2009V34.2007C109.753 44.5598 101.333 52.9956 90.9741 53.0053L90.9561 53.0053ZM90.9715 15.683C90.8884 15.683 90.8052 15.683 90.7234 15.6842L90.5492 15.688C80.5441 15.9078 72.4121 24.2285 72.4215 34.2359C72.4311 44.4499 80.7445 52.7529 90.9561 52.7534H90.9739C101.194 52.7437 109.501 44.4211 109.491 34.201V34.2009C109.496 29.7831 107.92 25.5094 105.047 22.1531C102.175 18.7967 98.1958 16.5793 93.8302 15.9019L93.7396 15.8877C93.4599 15.8468 93.2069 15.8144 92.9695 15.7894C92.521 15.7411 92.0613 15.7092 91.603 15.6942C91.3953 15.6867 91.1836 15.683 90.9735 15.683H90.9715Z" fill="#CBCBCB"/>
<path d="M76.7077 35.2073C76.7446 35.149 76.6486 35.0221 76.4933 34.9237C76.3379 34.8253 76.1822 34.7928 76.1453 34.8511C76.1084 34.9093 76.2044 35.0363 76.3597 35.1346C76.515 35.233 76.6708 35.2655 76.7077 35.2073Z" fill="#3F3D56"/>
<path d="M76.1627 34.1234C76.2036 34.0588 76.2569 34.0028 76.3194 33.9588C76.382 33.9148 76.4526 33.8835 76.5272 33.8667C76.6019 33.8499 76.6791 33.848 76.7545 33.8611C76.8298 33.8742 76.9019 33.902 76.9665 33.9429L84.3486 38.6176C84.4132 38.6585 84.4692 38.7118 84.5132 38.7743C84.5573 38.8369 84.5886 38.9075 84.6053 38.9821C84.6221 39.0568 84.624 39.134 84.6109 39.2094C84.5978 39.2847 84.57 39.3568 84.5291 39.4214L76.1627 34.1234V34.1234Z" fill="#5A66DF"/>
<path d="M75.4644 34.3707L75.6966 34.004C75.7531 33.9148 75.8427 33.8517 75.9457 33.8285C76.0487 33.8054 76.1567 33.8241 76.2459 33.8806L84.651 39.2032C84.7033 39.2363 84.7486 39.2794 84.7843 39.33C84.8199 39.3806 84.8452 39.4378 84.8588 39.4982C84.8724 39.5586 84.8739 39.6211 84.8633 39.6821C84.8527 39.7431 84.8302 39.8014 84.7971 39.8537L84.6041 40.1585L75.4644 34.3707H75.4644Z" fill="#2F2E41"/>
<path d="M76.7159 34.5722L76.6268 34.7128L77.1893 35.0689L77.2783 34.9283L76.7159 34.5722Z" fill="#D0CDE1"/>
<path d="M77.4892 35.0619L77.4001 35.2025L77.9626 35.5587L78.0516 35.4181L77.4892 35.0619Z" fill="#D0CDE1"/>
<path d="M91.0232 17.4761C93.921 17.4761 96.2702 15.127 96.2702 12.2292C96.2702 9.33133 93.921 6.98218 91.0232 6.98218C88.1254 6.98218 85.7762 9.33133 85.7762 12.2292C85.7762 15.127 88.1254 17.4761 91.0232 17.4761Z" fill="#FFB8B8"/>
<path d="M96.0199 52.1544C91.763 53.3432 87.2229 52.9885 83.2023 51.1529L83.6054 40.3823L83.6356 39.5446L83.647 39.2725L83.6608 38.8719L83.6709 38.6162C83.6709 38.6162 83.6873 38.6149 83.7188 38.6136C83.8044 38.6073 84.0022 38.5935 84.2856 38.5771C84.6144 38.5582 85.0566 38.5343 85.5718 38.5129C85.694 38.5078 85.82 38.5028 85.9497 38.4965C88.6631 38.3957 92.9008 38.3743 93.4614 39.1918L93.532 39.6731L93.6453 40.4503L93.8771 42.0388C93.8771 42.0388 96.5124 47.2793 96.0199 52.1544Z" fill="#2F2E41"/>
<path d="M97.3519 24.9894L96.3185 34.5355L94.3503 38.8892L93.6208 40.5036L83.0629 40.3756L84.1507 33.0171C82.615 29.0499 86.2622 27.4502 86.2622 27.4502L90.0456 19.6985C90.0456 19.6985 91.0533 19.1947 93.6848 19.0678C96.1311 18.9499 94.2026 19.3206 94.2026 19.3206C97.402 19.0007 97.3519 24.9894 97.3519 24.9894Z" fill="#CCCCCC"/>
<path opacity="0.2" d="M94.177 35.0395L92.2087 39.3932C91.5765 38.2107 91.0953 36.8714 91.0953 36.0805C91.0953 33.905 93.2709 35.0567 93.2709 35.0567C93.2709 35.0567 91.5113 25.4266 91.5113 22.5472C91.5113 20.6346 93.1058 29.1225 94.177 35.0395Z" fill="black"/>
<path d="M97.0704 9.03256C96.729 8.19956 96.201 7.45605 95.527 6.8593C95.8034 6.76662 96.0341 6.57219 96.1724 6.31551C96.3743 5.91575 96.2673 5.41443 95.9928 5.05664C95.7425 4.75434 95.4188 4.52138 95.0526 4.38008C95.3209 4.50208 95.6143 4.55853 95.9087 4.54477C96.2655 4.50765 96.6223 4.22758 96.6011 3.88008C96.581 3.54904 96.2553 3.32519 95.963 3.15243C95.7734 3.04036 95.5838 2.92829 95.3942 2.81623C95.4505 2.70736 95.5 2.5951 95.5423 2.48011C95.706 2.06203 95.7454 1.60561 95.6559 1.16567C95.5665 0.725722 95.3519 0.32096 95.038 0C95.6589 0.632083 95.5003 1.61032 94.8869 2.40418C94.8671 2.42976 94.8459 2.45471 94.8253 2.47996C94.7038 2.40811 94.5822 2.33627 94.4607 2.26443C94.1575 2.08526 93.8424 1.90189 93.4903 1.85963C93.1382 1.81737 92.7371 1.95676 92.5933 2.27085C92.4395 2.60705 92.6144 3.0361 92.4139 3.34826C92.2385 3.62141 91.8555 3.67957 91.5235 3.66664C91.1915 3.6537 90.8386 3.60126 90.5432 3.74809C90.1326 3.95221 89.9978 4.50424 90.1805 4.91592C90.2617 5.09127 90.3827 5.24522 90.5339 5.36553C89.6551 5.48823 88.7895 5.74919 87.939 6.01458C86.936 6.32753 85.9144 6.65994 85.0762 7.29339C84.238 7.92684 83.6029 8.92677 83.6828 9.97438C83.7627 11.022 84.8034 12.672 85.8406 12.5045L85.9985 12.0101C86.6258 11.712 87.3304 11.6171 88.0142 11.7387C88.698 11.8602 89.3267 12.1922 89.8128 12.6883C89.8247 12.0287 90.8287 11.8096 91.3289 12.2396C91.8292 12.6696 91.9257 13.3967 91.9645 14.0552C92.0032 14.7138 92.04 15.4308 92.4738 15.9278C92.8902 16.4048 93.5994 16.5527 94.2164 16.4106C94.8334 16.2685 95.3667 15.8771 95.8085 15.4236C97.4115 13.7784 97.9277 11.1636 97.0704 9.03256Z" fill="#2F2E41"/>
<path d="M80.3349 39.7453C80.6065 39.9408 80.9177 40.0744 81.2465 40.1366C81.5753 40.1988 81.9138 40.1882 82.2381 40.1054C82.5623 40.0227 82.8645 39.8699 83.1233 39.6577C83.3821 39.4456 83.5913 39.1792 83.736 38.8775L98.0294 39.1601L98.9754 36.0278L82.5233 35.7323C82.0003 35.5227 81.4186 35.5123 80.8884 35.7029C80.3582 35.8936 79.9164 36.2721 79.6466 36.7668C79.3769 37.2614 79.298 37.8379 79.4248 38.3868C79.5517 38.9358 79.8755 39.4191 80.3349 39.7453V39.7453Z" fill="#FFB8B8"/>
<path d="M94.2308 18.804C94.2308 18.804 90.9034 19.0599 90.9034 21.9393C90.9034 24.8188 93.9109 35.0568 93.9109 35.0568C93.9109 35.0568 91.7353 33.905 91.7353 36.0806C91.7353 38.2561 95.3826 44.5909 95.7665 40.3677C95.7665 40.3677 101.269 43.0552 100.95 38.0002C100.63 32.9452 97.1743 22.2593 97.1743 22.2593C97.1743 22.2593 96.7903 18.612 94.2308 18.804Z" fill="#CCCCCC"/>
</g>
<defs>
<clipPath id="clip0_1_380">
<rect width="109.743" height="100" fill="white"/>
</clipPath>
</defs>
</svg>
