<svg width="108" height="100" viewBox="0 0 108 100" fill="none" xmlns="http://www.w3.org/2000/svg">
<g clip-path="url(#clip0_1_265)">
<path d="M53.431 100C82.9401 100 106.862 98.3963 106.862 96.418C106.862 94.4398 82.9401 92.8361 53.431 92.8361C23.9219 92.8361 0 94.4398 0 96.418C0 98.3963 23.9219 100 53.431 100Z" fill="#3F3D56"/>
<path d="M54.3265 57.3149H52.5355V58.3596H54.3265V57.3149Z" fill="#3F3D56"/>
<path d="M57.9084 57.3149H56.1174V58.3596H57.9084V57.3149Z" fill="#3F3D56"/>
<path d="M61.4904 57.3149H59.6995V58.3596H61.4904V57.3149Z" fill="#3F3D56"/>
<path d="M65.0724 57.3149H63.2814V58.3596H65.0724V57.3149Z" fill="#3F3D56"/>
<path d="M68.6544 57.3149H66.8634V58.3596H68.6544V57.3149Z" fill="#3F3D56"/>
<path d="M72.2363 57.3149H70.4453V58.3596H72.2363V57.3149Z" fill="#3F3D56"/>
<path d="M75.8182 57.3149H74.0272V58.3596H75.8182V57.3149Z" fill="#3F3D56"/>
<path d="M79.4002 57.3149H77.6093V58.3596H79.4002V57.3149Z" fill="#3F3D56"/>
<path d="M82.9821 57.3149H81.1912V58.3596H82.9821V57.3149Z" fill="#3F3D56"/>
<path d="M86.5642 57.3149H84.7732V58.3596H86.5642V57.3149Z" fill="#3F3D56"/>
<path d="M90.1461 57.3149H88.3551V58.3596H90.1461V57.3149Z" fill="#3F3D56"/>
<path d="M94.2504 57.9865C94.2504 63.6865 91.9861 69.153 87.9556 73.1835C83.9251 77.214 78.4586 79.4783 72.7586 79.4783C67.0587 79.4783 61.5921 77.214 57.5616 73.1835C53.5312 69.153 51.2668 63.6865 51.2668 57.9865H94.2504Z" fill="#3F3D56"/>
<path d="M93.2117 58.1238L79.5405 17.373C82.2162 16.4734 85.0429 16.11 87.8591 16.3037C90.6753 16.4975 93.4256 17.2445 95.9529 18.502C98.4801 19.7595 100.735 21.5029 102.588 23.6325C104.441 25.762 105.855 28.236 106.752 30.9128C106.896 31.3441 107.028 31.7785 107.144 32.2128C108.551 37.4936 107.894 43.1122 105.306 47.9256C102.718 52.739 98.393 56.3856 93.2117 58.1238Z" fill="#3F3D56"/>
<path d="M93.7281 61.3447C95.2118 61.3447 96.4146 60.1419 96.4146 58.6582C96.4146 57.1745 95.2118 55.9717 93.7281 55.9717C92.2444 55.9717 91.0416 57.1745 91.0416 58.6582C91.0416 60.1419 92.2444 61.3447 93.7281 61.3447Z" fill="#3F3D56"/>
<path d="M66.4157 63.5834C66.2178 63.5834 66.028 63.662 65.888 63.8019C65.7481 63.9419 65.6694 64.1317 65.6694 64.3296C65.6694 64.5275 65.7481 64.7173 65.888 64.8573C66.028 64.9972 66.2178 65.0758 66.4157 65.0758H79.251C79.4489 65.0758 79.6387 64.9972 79.7787 64.8573C79.9186 64.7173 79.9973 64.5275 79.9973 64.3296C79.9973 64.1317 79.9186 63.9419 79.7787 63.8019C79.6387 63.662 79.4489 63.5834 79.251 63.5834H66.4157Z" fill="#5A66DF"/>
<path d="M90.5939 96.8657L87.9215 96.9645L78.2935 76.2586L80.7295 75.1259L90.5939 96.8657Z" fill="#3F3D56"/>
<path d="M54.9235 96.8657L57.5959 96.9645L67.2239 76.2586L64.7879 75.1259L54.9235 96.8657Z" fill="#3F3D56"/>
<path d="M83.8777 84.9259H61.7889V86.4184H83.8777V84.9259Z" fill="#3F3D56"/>
<path d="M80.0869 16.6122C79.982 16.6122 79.8785 16.6369 79.7848 16.6841C79.6911 16.7314 79.6097 16.7999 79.5473 16.8843C79.4849 16.9687 79.4431 17.0665 79.4253 17.1699C79.4075 17.2734 79.4141 17.3795 79.4448 17.4799L80.011 19.3357C80.0631 19.5059 80.1807 19.6485 80.3379 19.7321C80.495 19.8157 80.679 19.8334 80.8493 19.7815C81.0196 19.7295 81.1622 19.6121 81.246 19.455C81.3297 19.2979 81.3477 19.114 81.2959 18.9437L80.7297 17.0879C80.6875 16.9503 80.6023 16.8299 80.4866 16.7443C80.3709 16.6586 80.2309 16.6123 80.0869 16.6122Z" fill="#5A66DF"/>
<path d="M50.3713 58.3597C50.1932 58.3597 50.0224 58.4304 49.8964 58.5564C49.7705 58.6824 49.6997 58.8532 49.6997 59.0313C49.6997 59.2094 49.7705 59.3803 49.8964 59.5062C50.0224 59.6322 50.1932 59.7029 50.3713 59.7029H52.3116C52.4897 59.7029 52.6605 59.6322 52.7865 59.5062C52.9124 59.3803 52.9832 59.2094 52.9832 59.0313C52.9832 58.8532 52.9124 58.6824 52.7865 58.5564C52.6605 58.4304 52.4897 58.3597 52.3116 58.3597H50.3713Z" fill="#5A66DF"/>
<path d="M66.4156 53.4344H58.3562C58.3055 53.4344 58.2562 53.4359 58.207 53.4404C57.6804 53.478 57.1876 53.7136 56.8277 54.0997C56.4677 54.4858 56.2673 54.994 56.2667 55.5218C56.2662 56.0497 56.4655 56.5583 56.8246 56.9452C57.1837 57.3321 57.676 57.5687 58.2025 57.6074C58.2532 57.6119 58.304 57.6134 58.3562 57.6134H66.4156C66.9698 57.6134 67.5012 57.3933 67.8931 57.0014C68.2849 56.6096 68.5051 56.0781 68.5051 55.5239C68.5051 54.9698 68.2849 54.4383 67.8931 54.0464C67.5012 53.6546 66.9698 53.4344 66.4156 53.4344Z" fill="#FF6584"/>
<path opacity="0.2" d="M57.5442 57.4477C58.9173 57.2716 59.9979 55.5389 59.9979 53.4344H59.6994C59.6994 55.4926 58.6278 57.1657 57.3114 57.1657V57.3328L57.5442 57.4477Z" fill="black"/>
<path opacity="0.2" d="M60.4457 57.4642V57.1657C61.7624 57.1657 62.8336 55.4919 62.8336 53.4344H63.1321C63.1321 55.6564 61.927 57.4642 60.4457 57.4642Z" fill="black"/>
<path opacity="0.2" d="M63.5798 57.4642V57.1657C64.8966 57.1657 65.9678 55.4919 65.9678 53.4344H66.2663C66.2663 55.6564 65.0612 57.4642 63.5798 57.4642Z" fill="black"/>
<path d="M81.042 53.4344H72.9826C72.9318 53.4344 72.8826 53.4359 72.8333 53.4404C72.3068 53.478 71.8139 53.7136 71.454 54.0997C71.094 54.4858 70.8936 54.994 70.8931 55.5218C70.8925 56.0497 71.0918 56.5583 71.4509 56.9452C71.8101 57.3321 72.3024 57.5687 72.8288 57.6074C72.8796 57.6119 72.9303 57.6134 72.9826 57.6134H81.042C81.5961 57.6134 82.1276 57.3933 82.5195 57.0014C82.9113 56.6096 83.1314 56.0781 83.1314 55.5239C83.1314 54.9698 82.9113 54.4383 82.5195 54.0464C82.1276 53.6546 81.5961 53.4344 81.042 53.4344Z" fill="#FF6584"/>
<path opacity="0.2" d="M72.1706 57.4477C73.5437 57.2716 74.6242 55.5389 74.6242 53.4344H74.3257C74.3257 55.4926 73.2541 57.1657 71.9377 57.1657V57.3328L72.1706 57.4477Z" fill="black"/>
<path opacity="0.2" d="M75.072 57.4642V57.1657C76.3887 57.1657 77.46 55.4919 77.46 53.4344H77.7585C77.7585 55.6564 76.5534 57.4642 75.072 57.4642Z" fill="black"/>
<path opacity="0.2" d="M78.2063 57.4642V57.1657C79.523 57.1657 80.5943 55.4919 80.5943 53.4344H80.8928C80.8928 55.6564 79.6876 57.4642 78.2063 57.4642Z" fill="black"/>
<path d="M65.8258 33.3689C64.7696 32.7983 63.4638 33.4206 62.9374 34.4307C62.2972 35.6593 62.8279 37.1363 63.5744 38.1865C64.3502 39.2777 65.4031 40.1784 65.921 41.4394C66.4164 42.6262 66.4751 43.9501 66.0868 45.1761C65.6984 46.402 64.8881 47.4507 63.7998 48.1357C63.314 48.443 63.7628 49.2183 64.2517 48.909C65.3191 48.2422 66.1636 47.2723 66.6774 46.1234C67.1911 44.9744 67.3508 43.6984 67.136 42.4583C67.027 41.8151 66.8192 41.1927 66.5198 40.6132C66.1953 40.0217 65.8043 39.4691 65.3545 38.9663C64.5776 38.0468 63.5996 37.0332 63.5509 35.754C63.542 35.588 63.5535 35.4216 63.5854 35.2585C63.6086 35.1445 63.6432 35.0332 63.6887 34.9262C63.7973 34.6963 63.9585 34.4952 64.1591 34.3392C64.3452 34.1908 64.5653 34.0911 64.7996 34.0492C64.996 34.0201 65.1967 34.0526 65.3739 34.1422C65.8809 34.4161 66.3336 33.6433 65.8258 33.3689Z" fill="#E6E6E6"/>
<path d="M79.3005 38.7858C78.8508 38.6412 78.3702 38.6214 77.9101 38.7283C77.4499 38.8353 77.0274 39.065 76.6875 39.3931C76.5118 39.5737 76.3817 39.7937 76.3079 40.0346C76.2341 40.2756 76.2187 40.5306 76.2631 40.7787C76.3484 41.3214 76.691 41.8033 77.0627 42.1918C77.79 42.9518 78.8079 43.4432 79.4177 44.3157C79.6882 44.6875 79.8579 45.1229 79.9103 45.5796C79.9417 45.99 79.8664 46.4015 79.6919 46.7742C79.2369 47.6989 78.3338 48.3279 77.3814 48.7328C77.1588 48.8274 77.1097 49.1555 77.2207 49.3454C77.2828 49.4456 77.381 49.5181 77.495 49.548C77.609 49.5779 77.7301 49.5629 77.8333 49.506C79.5861 48.7609 81.2077 47.092 80.7243 45.0416C80.47 43.9631 79.6906 43.2019 78.8512 42.5401C78.4344 42.2345 78.0407 41.8985 77.6733 41.5349C77.3831 41.2267 77.0816 40.8058 77.1349 40.388C77.1562 40.2427 77.2273 40.1093 77.336 40.0106C77.4679 39.8901 77.6175 39.7907 77.7796 39.7158C77.9785 39.6205 78.1942 39.5656 78.4144 39.5542C78.6346 39.5427 78.8548 39.5751 79.0625 39.6493C79.1769 39.6797 79.2988 39.664 79.4018 39.6055C79.5048 39.547 79.5807 39.4505 79.6132 39.3366C79.6424 39.2221 79.6261 39.1009 79.5678 38.9982C79.5095 38.8955 79.4137 38.8194 79.3005 38.7858V38.7858Z" fill="#E6E6E6"/>
<path d="M72.4834 26.0475C72.2165 25.8195 71.8797 25.6898 71.5289 25.6799C71.1962 25.6862 70.8727 25.7907 70.5993 25.9805C69.9819 26.429 69.545 27.0835 69.3677 27.8258C68.9152 29.5591 69.5054 31.4273 70.3255 32.9538C70.7401 33.7255 71.223 34.458 71.6403 35.2281C72.0427 35.9647 72.3516 36.7487 72.5599 37.5617C72.9848 39.2289 73.0227 40.9712 72.6708 42.6553C72.3124 44.3315 71.5585 45.9913 70.276 47.1479C70.192 47.2318 70.1449 47.3457 70.1449 47.4645C70.1449 47.5832 70.192 47.6971 70.276 47.7811C70.36 47.865 70.4739 47.9122 70.5926 47.9122C70.7114 47.9122 70.8253 47.8651 70.9092 47.7811C72.0476 46.7546 72.8088 45.3464 73.2684 43.8985C73.7754 42.2631 73.9237 40.5376 73.7032 38.8397C73.6034 37.9942 73.4109 37.1623 73.1291 36.3589C72.8237 35.5496 72.4423 34.7711 71.99 34.0338C71.1484 32.6107 70.2524 31.1714 70.1305 29.477C70.0706 28.6437 70.1749 27.7752 70.6903 27.1051C70.6621 27.1418 70.7129 27.0784 70.7132 27.0781C70.7444 27.0407 70.7768 27.0043 70.8104 26.9689C70.8743 26.9002 70.9431 26.8362 71.0161 26.7773C71.0006 26.7897 70.9609 26.8161 71.0331 26.7661C71.069 26.7412 71.1056 26.7174 71.1432 26.6952C71.1738 26.6772 71.2053 26.6613 71.2366 26.6447C71.2553 26.6352 71.2741 26.6262 71.2932 26.6178C71.2497 26.6366 71.2521 26.6368 71.3006 26.6184C71.3356 26.6074 71.5091 26.5699 71.4128 26.5821C71.4449 26.5782 71.4772 26.5761 71.5095 26.5758C71.5233 26.5755 71.644 26.5817 71.585 26.5753C71.516 26.5677 71.6396 26.5875 71.6405 26.5877C71.6791 26.5972 71.7171 26.6092 71.7541 26.6238C71.661 26.5865 71.9069 26.7248 71.8502 26.6807C71.9359 26.7612 72.0491 26.806 72.1668 26.806C72.2844 26.806 72.3976 26.7612 72.4834 26.6807C72.6379 26.5262 72.6754 26.1967 72.4834 26.0475L72.4834 26.0475Z" fill="#E6E6E6"/>
<path d="M38.1013 93.3402L34.7256 94.2357L28.5254 65.5769L35.4835 64.9567L38.1013 93.3402Z" fill="#FFB9B9"/>
<path d="M22.6565 93.7806L19.2032 94.3024L16.1682 65.1379L23.1523 65.281L22.6565 93.7806Z" fill="#FFB9B9"/>
<path d="M20.8786 52.2807L21.1974 58.2329C21.2092 58.4519 21.1736 58.6708 21.0933 58.8748C21.0129 59.0788 20.8896 59.2631 20.7318 59.4152C20.5739 59.5673 20.3851 59.6837 20.1783 59.7564C19.9714 59.8291 19.7514 59.8565 19.533 59.8366C19.1762 59.8042 18.8421 59.6474 18.5891 59.3936C18.3361 59.1398 18.1803 58.8052 18.149 58.4482L17.5718 51.8673L13.0249 36.4356L13.1627 26.5152L18.5362 26.7908L20.8786 52.2807Z" fill="#FFB9B9"/>
<path d="M23.772 66.8857C21.0803 65.9512 17.9573 65.7675 14.4027 66.3346C14.9068 60.3631 15.1988 54.818 14.9538 50.3517H33.279L23.772 66.8857Z" fill="#2F2E41"/>
<path d="M36.5858 66.7479C33.8116 68.2155 29.7986 68.9181 25.1498 69.228L19.3629 50.7651L33.5546 50.4895L36.5858 66.7479Z" fill="#2F2E41"/>
<path d="M43.7294 96.3362L33.7462 96.7059C32.4674 96.7532 32.3999 95.655 32.6413 94.3983L33.8233 91.0234C36.4843 93.6304 36.7349 93.7761 37.8756 90.0676L41.3571 92.8174L43.934 93.2592C44.2949 93.321 44.6222 93.5086 44.858 93.7888C45.0938 94.0689 45.2229 94.4234 45.2223 94.7895C45.2217 95.1903 45.0658 95.5753 44.7875 95.8637C44.5092 96.152 44.1299 96.3214 43.7294 96.3362Z" fill="#2F2E41"/>
<path d="M28.6092 96.3362L18.626 96.7059C17.3471 96.7532 17.2797 95.655 17.5211 94.3983L18.703 91.0234C21.3641 93.6304 21.6147 93.7761 22.7554 90.0676L26.2368 92.8174L28.8138 93.2592C29.1747 93.321 29.502 93.5086 29.7378 93.7888C29.9736 94.0689 30.1026 94.4234 30.102 94.7895C30.1014 95.1903 29.9456 95.5753 29.6673 95.8637C29.3889 96.152 29.0097 96.3214 28.6092 96.3362Z" fill="#2F2E41"/>
<path d="M30.9367 11.9101C33.9044 11.9101 36.3102 9.50431 36.3102 6.53658C36.3102 3.56885 33.9044 1.16302 30.9367 1.16302C27.9689 1.16302 25.5631 3.56885 25.5631 6.53658C25.5631 9.50431 27.9689 11.9101 30.9367 11.9101Z" fill="#FFB9B9"/>
<path d="M28.181 16.0436L21.843 14.1148L26.1144 7.77661L30.9367 9.84341L28.181 16.0436Z" fill="#FFB9B9"/>
<path d="M34.1057 52.0051C27.5902 53.47 20.3575 52.8888 14.1271 51.1784C15.6191 42.8585 14.8988 33.9219 13.4381 26.653C12.2949 20.9635 15.3107 16.1892 20.3273 13.8391C21.4056 13.4525 22.5274 13.1999 23.6673 13.087C27.1863 12.7753 30.2827 15.4138 30.6498 18.9275L34.1057 52.0051Z" fill="#5A66DF"/>
<path d="M17.1583 29.4086L12.6115 28.8575L13.9893 21.6928H17.1583V29.4086Z" fill="#5A66DF"/>
<path d="M30.8615 7.38741L30.0383 7.02155C29.8518 6.93891 29.6495 6.89781 29.4455 6.90111C29.2416 6.90441 29.0407 6.95202 28.857 7.04066C28.6732 7.12929 28.5109 7.25683 28.3814 7.41442C28.2518 7.57201 28.1581 7.75589 28.1066 7.95331L26.9594 10.0262L24.1021 9.57387L24.2019 5.18586C24.332 4.35665 24.6309 3.56297 25.0801 2.85393C25.5293 2.1449 26.1192 1.5356 26.8134 1.06375C27.5076 0.591909 28.2912 0.267556 29.1158 0.110769C29.9404 -0.0460178 30.7883 -0.0319007 31.6072 0.152246L31.6852 0.16989C33.0802 0.485452 34.8911 1.50963 35.8365 2.58474L37.5978 4.58789C37.6813 4.68292 37.7372 4.79903 37.7593 4.92359C37.7815 5.04815 37.7691 5.1764 37.7234 5.2944C37.6778 5.4124 37.6007 5.51563 37.5005 5.59288C37.4003 5.67013 37.2809 5.71843 37.1551 5.73254L34.7462 5.99836L30.8615 7.38741Z" fill="#2F2E41"/>
<path d="M48.6851 44.0339L45.5995 46.7403C45.5549 46.7794 45.4965 46.7992 45.4373 46.7953C45.3781 46.7914 45.3229 46.7641 45.2837 46.7195C45.2446 46.6749 45.2248 46.6166 45.2286 46.5574C45.2325 46.4982 45.2597 46.4429 45.3043 46.4037L48.3898 43.6973L47.7993 43.0241L44.7138 45.7305C44.6691 45.7696 44.6108 45.7894 44.5516 45.7855C44.4924 45.7816 44.4371 45.7543 44.398 45.7097C44.3589 45.6651 44.339 45.6068 44.3429 45.5476C44.3467 45.4883 44.3739 45.4331 44.4185 45.3939L47.5041 42.6875L46.9136 42.0142L43.828 44.7207C43.8059 44.7401 43.7802 44.755 43.7523 44.7645C43.7245 44.7739 43.6951 44.7778 43.6657 44.7759C43.6364 44.774 43.6077 44.7664 43.5813 44.7533C43.5549 44.7403 43.5313 44.7223 43.5119 44.7002C43.4925 44.678 43.4777 44.6523 43.4682 44.6245C43.4588 44.5966 43.4549 44.5672 43.4568 44.5378C43.4588 44.5084 43.4665 44.4798 43.4795 44.4534C43.4925 44.427 43.5106 44.4035 43.5328 44.3841L46.6183 41.6776L45.8802 40.8361L41.5198 44.6608C41.1306 45.0023 40.8705 45.4672 40.783 45.9776C40.6955 46.488 40.786 47.0129 41.0393 47.4646L27.8746 59.0118L29.0556 60.3582L42.2117 48.8185C42.6131 49.1353 43.1126 49.3016 43.6238 49.2884C44.1349 49.2753 44.6253 49.0836 45.0098 48.7466L49.4232 44.8754L48.6851 44.0339Z" fill="#E6E6E6"/>
<path d="M33.6924 52.2807L34.0113 58.2329C34.023 58.4519 33.9875 58.6708 33.9071 58.8748C33.8268 59.0788 33.7035 59.2631 33.5456 59.4152C33.3877 59.5673 33.199 59.6837 32.9921 59.7564C32.7853 59.8291 32.5652 59.8565 32.3469 59.8366C31.99 59.8042 31.6559 59.6474 31.4029 59.3936C31.1499 59.1398 30.9942 58.8052 30.9629 58.4482L30.3856 51.8673L25.8387 36.4356L25.9765 26.5152L31.3501 26.7908L33.6924 52.2807Z" fill="#FFB9B9"/>
<path d="M31.7634 28.3064C30.1283 26.738 27.9702 26.6804 25.5631 27.3419V19.9371C25.5631 19.0507 25.9152 18.2005 26.5421 17.5737C27.1689 16.9469 28.019 16.5948 28.9054 16.5948C29.3134 16.5948 29.7173 16.6764 30.0933 16.8347C30.4693 16.993 30.8099 17.225 31.0949 17.5168C31.38 17.8087 31.6039 18.1546 31.7533 18.5342C31.9028 18.9139 31.9748 19.3195 31.9652 19.7274L31.7634 28.3064Z" fill="#5A66DF"/>
</g>
<defs>
<clipPath id="clip0_1_265">
<rect width="107.874" height="100" fill="white"/>
</clipPath>
</defs>
</svg>
