<svg width="113" height="100" viewBox="0 0 113 100" fill="none" xmlns="http://www.w3.org/2000/svg">
<g clip-path="url(#clip0_1_424)">
<path d="M80.8027 89.7695H25.7148C23.8467 89.7674 22.0557 89.0244 20.7347 87.7034C19.4138 86.3825 18.6707 84.5915 18.6686 82.7234V18.0271C18.6708 16.159 19.4138 14.368 20.7347 13.0471C22.0557 11.7261 23.8467 10.9831 25.7148 10.981H76.9651L87.8488 19.656V82.7234C87.8467 84.5915 87.1037 86.3825 85.7827 87.7034C84.4618 89.0244 82.6708 89.7674 80.8027 89.7695Z" fill="#E6E6E6"/>
<path d="M25.7148 13.0094C24.3845 13.0109 23.1091 13.54 22.1684 14.4807C21.2277 15.4214 20.6986 16.6968 20.6971 18.0271V82.7234C20.6986 84.0537 21.2277 85.3291 22.1684 86.2698C23.1091 87.2105 24.3845 87.7396 25.7148 87.7411H80.8027C82.1331 87.7396 83.4085 87.2105 84.3491 86.2698C85.2898 85.3291 85.8189 84.0537 85.8204 82.7234V20.6332L76.2556 13.0094H25.7148Z" fill="white"/>
<path d="M69.3088 31.8214H32.3686C32.2144 31.8215 32.0617 31.7913 31.9192 31.7324C31.7766 31.6735 31.6471 31.5871 31.538 31.4781C31.429 31.3692 31.3424 31.2398 31.2834 31.0973C31.2243 30.9549 31.1939 30.8022 31.1939 30.648C31.1939 30.4938 31.2243 30.3411 31.2834 30.1987C31.3424 30.0562 31.429 29.9268 31.538 29.8178C31.6471 29.7088 31.7766 29.6224 31.9192 29.5636C32.0617 29.5047 32.2144 29.4744 32.3686 29.4746H69.3088C69.62 29.4746 69.9185 29.5982 70.1385 29.8183C70.3586 30.0383 70.4822 30.3368 70.4822 30.648C70.4822 30.9592 70.3586 31.2576 70.1385 31.4777C69.9185 31.6977 69.62 31.8214 69.3088 31.8214Z" fill="#CCCCCC"/>
<path d="M74.1489 35.7814H32.3686C32.2145 35.7814 32.0619 35.7511 31.9195 35.6921C31.7772 35.6331 31.6478 35.5467 31.5389 35.4378C31.4299 35.3288 31.3435 35.1995 31.2845 35.0571C31.2255 34.9147 31.1952 34.7622 31.1952 34.6081C31.1952 34.454 31.2255 34.3014 31.2845 34.159C31.3435 34.0167 31.4299 33.8873 31.5389 33.7784C31.6478 33.6694 31.7772 33.583 31.9195 33.524C32.0619 33.465 32.2145 33.4347 32.3686 33.4347H74.1489C74.303 33.4347 74.4556 33.465 74.5979 33.524C74.7403 33.583 74.8697 33.6694 74.9786 33.7784C75.0876 33.8873 75.174 34.0167 75.233 34.159C75.2919 34.3014 75.3223 34.454 75.3223 34.6081C75.3223 34.7622 75.2919 34.9147 75.233 35.0571C75.174 35.1995 75.0876 35.3288 74.9786 35.4378C74.8697 35.5467 74.7403 35.6331 74.5979 35.6921C74.4556 35.7511 74.303 35.7814 74.1489 35.7814Z" fill="#CCCCCC"/>
<path d="M69.3088 49.5685H32.3686C32.2144 49.5687 32.0617 49.5385 31.9192 49.4796C31.7766 49.4207 31.6471 49.3343 31.538 49.2253C31.429 49.1164 31.3424 48.987 31.2834 48.8445C31.2243 48.7021 31.1939 48.5494 31.1939 48.3952C31.1939 48.241 31.2243 48.0883 31.2834 47.9458C31.3424 47.8034 31.429 47.674 31.538 47.565C31.6471 47.456 31.7766 47.3696 31.9192 47.3107C32.0617 47.2519 32.2144 47.2216 32.3686 47.2218H69.3088C69.62 47.2218 69.9185 47.3454 70.1385 47.5655C70.3586 47.7855 70.4822 48.084 70.4822 48.3952C70.4822 48.7064 70.3586 49.0048 70.1385 49.2249C69.9185 49.4449 69.62 49.5685 69.3088 49.5685Z" fill="#5A66DF"/>
<path d="M74.1489 53.5287H32.3686C32.2145 53.5287 32.0619 53.4983 31.9195 53.4394C31.7772 53.3804 31.6478 53.294 31.5389 53.185C31.4299 53.076 31.3435 52.9467 31.2845 52.8043C31.2255 52.662 31.1952 52.5094 31.1952 52.3553C31.1952 52.2012 31.2255 52.0486 31.2845 51.9063C31.3435 51.7639 31.4299 51.6346 31.5389 51.5256C31.6478 51.4167 31.7772 51.3302 31.9195 51.2713C32.0619 51.2123 32.2145 51.1819 32.3686 51.1819H74.1489C74.303 51.1819 74.4556 51.2123 74.5979 51.2713C74.7403 51.3302 74.8697 51.4167 74.9786 51.5256C75.0876 51.6346 75.174 51.7639 75.233 51.9063C75.2919 52.0486 75.3223 52.2012 75.3223 52.3553C75.3223 52.5094 75.2919 52.662 75.233 52.8043C75.174 52.9467 75.0876 53.076 74.9786 53.185C74.8697 53.294 74.7403 53.3804 74.5979 53.4394C74.4556 53.4983 74.303 53.5287 74.1489 53.5287Z" fill="#CCCCCC"/>
<path d="M69.3088 67.3158H32.3686C32.0574 67.3158 31.7589 67.1922 31.5389 66.9721C31.3188 66.7521 31.1952 66.4536 31.1952 66.1424C31.1952 65.8312 31.3188 65.5328 31.5389 65.3127C31.7589 65.0927 32.0574 64.9691 32.3686 64.9691H69.3088C69.62 64.9691 69.9184 65.0927 70.1385 65.3127C70.3585 65.5328 70.4822 65.8312 70.4822 66.1424C70.4822 66.4536 70.3585 66.7521 70.1385 66.9721C69.9184 67.1922 69.62 67.3158 69.3088 67.3158Z" fill="#CCCCCC"/>
<path d="M74.149 71.2759H32.3686C32.2144 71.276 32.0617 71.2458 31.9192 71.1869C31.7766 71.128 31.6471 71.0416 31.538 70.9327C31.429 70.8237 31.3424 70.6943 31.2834 70.5518C31.2243 70.4094 31.1939 70.2567 31.1939 70.1025C31.1939 69.9483 31.2243 69.7956 31.2834 69.6532C31.3424 69.5107 31.429 69.3813 31.538 69.2723C31.6471 69.1634 31.7766 69.077 31.9192 69.0181C32.0617 68.9592 32.2144 68.929 32.3686 68.9291H74.149C74.4602 68.9291 74.7586 69.0528 74.9787 69.2728C75.1987 69.4929 75.3223 69.7913 75.3223 70.1025C75.3223 70.4137 75.1987 70.7121 74.9787 70.9322C74.7586 71.1522 74.4602 71.2759 74.149 71.2759Z" fill="#CCCCCC"/>
<path d="M87.6371 19.9352H79.1114C78.8033 19.9352 78.4981 19.8745 78.2134 19.7566C77.9287 19.6386 77.67 19.4658 77.452 19.2479C77.2341 19.0299 77.0613 18.7712 76.9433 18.4865C76.8254 18.2018 76.7647 17.8966 76.7647 17.5885V11.2916C76.7647 11.264 76.7725 11.237 76.7871 11.2136C76.8018 11.1903 76.8227 11.1715 76.8475 11.1595C76.8723 11.1475 76.9 11.1428 76.9274 11.1458C76.9549 11.1488 76.9808 11.1595 77.0025 11.1766L87.7282 19.6736C87.752 19.6925 87.7694 19.7183 87.7779 19.7476C87.7864 19.7768 87.7856 19.808 87.7756 19.8368C87.7656 19.8655 87.7469 19.8904 87.722 19.9081C87.6972 19.9257 87.6675 19.9352 87.6371 19.9352Z" fill="#E6E6E6"/>
<path d="M34.1142 16.5446C34.1142 19.73 33.1696 22.8438 31.3999 25.4923C29.6302 28.1408 27.1149 30.2051 24.172 31.4241C21.2291 32.6431 17.9909 32.962 14.8667 32.3406C11.7426 31.7192 8.87288 30.1853 6.6205 27.9329C4.36811 25.6805 2.83422 22.8108 2.21279 19.6866C1.59136 16.5625 1.9103 13.3242 3.12928 10.3813C4.34826 7.43847 6.41253 4.92315 9.06105 3.15346C11.7096 1.38378 14.8234 0.439209 18.0087 0.439209C22.2798 0.440557 26.3754 2.13781 29.3955 5.15787C32.4156 8.17793 34.1128 12.2736 34.1142 16.5446Z" fill="white"/>
<path d="M25.4524 19.3004C25.2765 29.6007 9.95505 29.5991 9.78064 19.3001C9.95654 9.00018 25.278 9.00179 25.4524 19.3004Z" fill="#5A66DF"/>
<path d="M17.3055 22.4975L17.2974 22.2047C19.3156 22.4742 19.7503 19.9729 17.7149 20.908L18.1795 17.5126L18.4696 17.5524L18.0744 20.4406C20.2175 20.1216 19.4248 22.7902 17.3055 22.4975Z" fill="#2F2E41"/>
<path d="M21.4814 17.8015H19.9043V18.0943H21.4814V17.8015Z" fill="#2F2E41"/>
<path d="M16.5033 17.8015H14.9263V18.0943H16.5033V17.8015Z" fill="#2F2E41"/>
<path d="M20.1566 30.2562C20.4641 28.1815 18.0351 28.5915 16.7496 28.571C16.5423 28.5716 16.3378 28.6185 16.151 28.7082C15.9641 28.7979 15.7996 28.9281 15.6694 29.0894C15.5393 29.2507 15.4467 29.439 15.3985 29.6406C15.3504 29.8422 15.3478 30.052 15.3909 30.2548C14.3959 30.5623 13.4746 31.0706 12.6837 31.7482C16.0165 32.9103 19.6379 32.9504 22.9956 31.8624C22.1771 31.1273 21.2083 30.5792 20.1566 30.2562Z" fill="#2F2E41"/>
<path d="M13.9325 15.5943C15.3847 14.755 17.1458 15.3989 18.6458 15.7509C21.4918 16.6258 25.4829 15.5302 25.8289 12.14C26.1891 8.987 21.8759 7.22972 20.4973 10.3679L20.8987 10.3154C16.4278 3.67086 8.65061 3.92286 8.70175 13.0579C8.68517 13.3401 9.12447 13.3392 9.1409 13.0577C8.9763 7.6746 12.5389 3.99484 17.575 7.45429C18.7275 8.2952 19.6601 9.40894 20.5195 10.5371C21.0439 11.1249 21.1579 8.59355 23.6682 9.25656C26.4308 10.3268 25.5294 14.2827 23.0601 15.1511C20.0091 16.7099 16.7047 13.6877 13.7108 15.2148C13.6626 15.2452 13.6281 15.2932 13.6146 15.3486C13.6011 15.404 13.6096 15.4624 13.6384 15.5116C13.6671 15.5608 13.7139 15.597 13.7688 15.6124C13.8236 15.6278 13.8824 15.6213 13.9325 15.5943V15.5943Z" fill="#2F2E41"/>
<path d="M18.0088 33.0893C13.8497 33.0858 9.84476 31.5147 6.79273 28.6892C3.74069 25.8638 1.86585 21.9917 1.54212 17.8452C1.2184 13.6988 2.46958 9.58265 5.04613 6.31778C7.62268 3.05291 11.3352 0.87924 15.4434 0.23029C19.5515 -0.418659 23.7533 0.504803 27.2108 2.8165C30.6683 5.1282 33.1273 8.65824 34.0974 12.7026C35.0676 16.747 34.4776 21.0084 32.445 24.637C30.4125 28.2656 27.0869 30.9948 23.1314 32.2801C21.4772 32.8181 19.7483 33.0912 18.0088 33.0893ZM18.0088 0.878453C14.9097 0.878013 11.88 1.79663 9.30305 3.51813C6.72605 5.23963 4.71745 7.68668 3.53127 10.5498C2.34509 13.4129 2.03461 16.5635 2.63911 19.6031C3.24361 22.6427 4.73593 25.4347 6.92733 27.6261C9.11873 29.8175 11.9108 31.3098 14.9503 31.9143C17.9899 32.5188 21.1405 32.2083 24.0036 31.0222C26.8667 29.836 29.3138 27.8274 31.0353 25.2504C32.7568 22.6734 33.6754 19.6437 33.675 16.5446C33.6703 12.3911 32.0182 8.40912 29.0813 5.47216C26.1443 2.5352 22.1623 0.883149 18.0088 0.878453Z" fill="#CCCCCC"/>
<path d="M111.859 49.634C111.86 53.0338 110.784 56.3464 108.787 59.0978C106.79 61.8492 103.973 63.8983 100.741 64.9517C100.644 64.9824 100.548 65.0132 100.45 65.0425C100.031 65.1713 99.6062 65.2811 99.1742 65.3748C98.3926 65.5444 97.5992 65.6546 96.8009 65.7043C96.454 65.7277 96.105 65.7394 95.7541 65.7394C93.9409 65.7412 92.1405 65.4363 90.429 64.8375C90.3792 64.8199 90.3295 64.8024 90.2812 64.7848C87.5082 63.7833 85.0634 62.0399 83.213 59.7447C81.3626 57.4494 80.1776 54.6903 79.7873 51.768C79.397 48.8457 79.8162 45.8724 80.9993 43.1719C82.1824 40.4715 84.084 38.1476 86.4969 36.4534C88.9098 34.7593 91.7414 33.7598 94.6831 33.5641C97.6249 33.3684 100.564 33.9838 103.18 35.3433C105.796 36.7029 107.989 38.7544 109.519 41.2742C111.05 43.7941 111.859 46.6857 111.859 49.634Z" fill="white"/>
<path d="M95.3682 60.3045C99.6958 60.3045 103.204 56.7962 103.204 52.4686C103.204 48.1409 99.6958 44.6327 95.3682 44.6327C91.0405 44.6327 87.5323 48.1409 87.5323 52.4686C87.5323 56.7962 91.0405 60.3045 95.3682 60.3045Z" fill="#5A66DF"/>
<path d="M95.8256 56.6905L95.8338 56.3977C95.289 56.3825 94.8087 56.3483 94.4479 56.0847C94.3455 56.0057 94.2614 55.9056 94.2013 55.7912C94.1411 55.6768 94.1063 55.5507 94.0992 55.4217C94.0929 55.3428 94.1048 55.2635 94.1341 55.19C94.1633 55.1165 94.2092 55.0508 94.268 54.9979C94.5076 54.7956 94.893 54.861 95.174 54.9899L95.4163 55.101L94.9517 51.7056L94.6615 51.7453L95.0567 54.6336C94.675 54.5213 94.3213 54.5696 94.079 54.7742C93.9859 54.8555 93.913 54.9571 93.8657 55.0712C93.8185 55.1853 93.7982 55.3088 93.8066 55.432C93.8151 55.6054 93.8615 55.7748 93.9424 55.9284C94.0234 56.082 94.1369 56.2161 94.2751 56.3212C94.7388 56.66 95.3414 56.6769 95.8256 56.6905Z" fill="#2F2E41"/>
<path d="M93.2268 51.9944H91.6497V52.2873H93.2268V51.9944Z" fill="#2F2E41"/>
<path d="M98.2048 51.9944H96.6277V52.2873H98.2048V51.9944Z" fill="#2F2E41"/>
<path d="M97.5944 63.4231C97.6152 63.3269 97.626 63.2288 97.6267 63.1303C97.6261 62.7616 97.4793 62.4081 97.2186 62.1474C96.9579 61.8867 96.6044 61.74 96.2357 61.7394H94.1859C93.8172 61.7397 93.4636 61.8864 93.2028 62.1471C92.942 62.4079 92.7954 62.7615 92.795 63.1303C92.795 63.2293 92.8057 63.328 92.8272 63.4246C92.0534 63.6684 91.322 64.0304 90.6589 64.4978C90.53 64.5871 90.4027 64.6837 90.2811 64.7848C90.3295 64.8023 90.3792 64.8199 90.429 64.8375C92.1404 65.4362 93.9408 65.7412 95.754 65.7394C96.1054 65.7394 96.4543 65.7277 96.8009 65.7042C97.5992 65.6545 98.3926 65.5444 99.1742 65.3748C99.6062 65.2811 100.031 65.1713 100.449 65.0424C99.621 64.3096 98.6486 63.758 97.5944 63.4231Z" fill="#2F2E41"/>
<path d="M97.3309 65.5183C97.1409 65.5324 96.958 65.5965 96.8008 65.7043C97.5991 65.6546 98.3925 65.5445 99.1742 65.3749L97.3309 65.5183Z" fill="#2F2E41"/>
<path d="M102.475 50.6071L88.8623 45.6272C88.7901 45.6008 88.7237 45.5604 88.6671 45.5083C88.6105 45.4563 88.5647 45.3936 88.5323 45.3238C88.4999 45.2541 88.4816 45.1786 88.4784 45.1018C88.4751 45.0249 88.4871 44.9482 88.5135 44.876L88.5595 44.6583C89.6227 41.7522 93.1464 39.9233 96.0524 40.9864L100.241 42.5189C103.147 43.582 104.41 47.0231 103.347 49.9291L103.226 50.2583C103.2 50.3305 103.159 50.3968 103.107 50.4534C103.055 50.5101 102.992 50.5559 102.923 50.5883C102.853 50.6207 102.778 50.639 102.701 50.6422C102.624 50.6454 102.547 50.6335 102.475 50.6071Z" fill="#2F2E41"/>
<path d="M103.208 50.8835C84.2348 51.5836 82.577 49.1996 88.358 45.4509L89.5844 43.1942L103.64 48.3187L103.208 50.8835Z" fill="#2F2E41"/>
<path d="M99.4878 42.1615C99.5926 41.813 99.1439 41.3701 98.4856 41.1723C97.8274 40.9744 97.2089 41.0965 97.1042 41.445C96.9994 41.7934 97.4481 42.2363 98.1063 42.4342C98.7645 42.632 99.3831 42.5099 99.4878 42.1615Z" fill="#2F2E41"/>
<path d="M95.7541 66.1786C93.8914 66.1807 92.0418 65.8674 90.2838 65.252L90.131 65.1976C86.4484 63.8667 83.3572 61.2729 81.4071 57.8774C79.457 54.4818 78.7744 50.5047 79.4808 46.6532C80.1872 42.8018 82.2367 39.3257 85.2648 36.8432C88.293 34.3607 92.1034 33.0326 96.0186 33.0953C99.9338 33.1579 103.7 34.6071 106.647 37.1852C109.594 39.7633 111.532 43.3031 112.114 47.1752C112.697 51.0472 111.888 55.0005 109.83 58.3319C107.773 61.6634 104.6 64.157 100.877 65.3694C100.773 65.4025 100.675 65.4336 100.575 65.4634C100.159 65.5913 99.7181 65.7063 99.2673 65.804C98.4639 65.9782 97.6484 66.0914 96.8279 66.1426C96.4754 66.1665 96.1132 66.1786 95.7541 66.1786ZM95.7541 33.9678C92.0676 33.9683 88.4993 35.2687 85.6768 37.6402C82.8544 40.0117 80.9585 43.3025 80.3227 46.9338C79.6868 50.565 80.3518 54.3042 82.2005 57.4936C84.0492 60.6831 86.9633 63.1185 90.4303 64.3716L90.5754 64.4233C92.2398 65.0057 93.9907 65.3022 95.7541 65.3002C96.0935 65.3002 96.4358 65.2887 96.7713 65.266C97.5483 65.2175 98.3205 65.1104 99.0814 64.9455C99.5077 64.853 99.9246 64.7444 100.32 64.6227C100.418 64.5934 100.511 64.5638 100.604 64.5342C104.151 63.3792 107.168 60.9971 109.116 57.8161C111.063 54.6352 111.811 50.8641 111.227 47.1806C110.642 43.4972 108.763 40.143 105.927 37.7211C103.091 35.2992 99.4836 33.9683 95.7541 33.9678Z" fill="#CCCCCC"/>
<path d="M0.439223 83.4553C0.436416 85.5751 0.85338 87.6745 1.66606 89.6323C2.47874 91.5901 3.67104 93.3677 5.17419 94.8623C5.30016 94.9868 5.42898 95.1113 5.55924 95.2328C6.34417 95.9661 7.20059 96.6189 8.11567 97.1815C8.29132 97.2899 8.46705 97.3938 8.64713 97.4949C9.57256 98.0164 10.5476 98.4446 11.5578 98.773C11.732 98.8301 11.9092 98.8843 12.0863 98.9341C15.2976 99.855 18.7153 99.7589 21.8697 98.6588C21.9312 98.6369 21.9926 98.6149 22.0527 98.593C24.8218 97.5855 27.2614 95.8378 29.1061 93.5401C30.9508 91.2423 32.1298 88.4825 32.5148 85.5611C32.8997 82.6398 32.476 79.6688 31.2896 76.9716C30.1031 74.2743 28.1996 71.9543 25.786 70.2639C23.3725 68.5735 20.5415 67.5776 17.6012 67.3845C14.6609 67.1915 11.724 67.8087 9.11017 69.1691C6.49634 70.5294 4.30577 72.5807 2.77691 75.0997C1.24804 77.6186 0.439477 80.5087 0.439223 83.4553Z" fill="white"/>
<path d="M13.1435 91.3493C13.1513 92.597 12.6914 93.8025 11.8545 94.7279C11.0264 95.6367 9.79356 96.2394 8.54948 95.9901C7.40392 95.7605 6.47302 94.7592 6.58915 93.548C6.60842 93.2856 6.68467 93.0306 6.81259 92.8008C6.94051 92.5709 7.11702 92.3717 7.32982 92.217C7.54262 92.0624 7.78659 91.956 8.04472 91.9053C8.30285 91.8546 8.56892 91.8608 8.82441 91.9235C9.91264 92.2059 10.3462 93.7743 9.43942 94.5105C9.22182 94.6871 8.9092 94.3782 9.12883 94.1999C9.7283 93.7132 9.54311 92.6486 8.81954 92.3816C7.97713 92.0707 7.08458 92.7393 7.024 93.6005C6.95217 94.6217 7.73442 95.3907 8.69372 95.5717C9.73148 95.7676 10.7604 95.2364 11.4636 94.5033C12.2695 93.652 12.7142 92.5215 12.7043 91.3493C12.7063 91.2924 12.7303 91.2384 12.7712 91.1988C12.8122 91.1593 12.8669 91.1371 12.9239 91.1371C12.9809 91.1371 13.0356 91.1593 13.0766 91.1988C13.1175 91.2384 13.1415 91.2924 13.1435 91.3493L13.1435 91.3493Z" fill="#2F2E41"/>
<path d="M17.4325 94.1416C21.7602 94.1416 25.2684 90.6333 25.2684 86.3057C25.2684 81.978 21.7602 78.4698 17.4325 78.4698C13.1049 78.4698 9.59662 81.978 9.59662 86.3057C9.59662 90.6333 13.1049 94.1416 17.4325 94.1416Z" fill="#5A66DF"/>
<path d="M17.0316 89.6491L17.0234 89.3563C17.5682 89.3412 18.0485 89.307 18.4094 89.0433C18.5117 88.9643 18.5958 88.8642 18.6559 88.7498C18.7161 88.6354 18.7509 88.5094 18.758 88.3803C18.7644 88.3015 18.7524 88.2222 18.7232 88.1487C18.6939 88.0752 18.6481 88.0094 18.5892 87.9565C18.3497 87.7542 17.9642 87.8197 17.6832 87.9485L17.4409 88.0596L17.9056 84.6642L18.1957 84.704L17.8005 87.5922C18.1822 87.48 18.536 87.5283 18.7783 87.7329C18.8713 87.8141 18.9443 87.9158 18.9915 88.0298C19.0388 88.1439 19.059 88.2674 19.0506 88.3906C19.0421 88.564 18.9957 88.7335 18.9148 88.8871C18.8338 89.0407 18.7203 89.1747 18.5821 89.2798C18.1184 89.6187 17.5158 89.6356 17.0316 89.6491Z" fill="#2F2E41"/>
<path d="M21.2075 84.9531H19.6304V85.2459H21.2075V84.9531Z" fill="#2F2E41"/>
<path d="M16.2295 84.9531H14.6524V85.2459H16.2295V84.9531Z" fill="#2F2E41"/>
<path d="M12.0864 98.9341C15.2976 99.8551 18.7153 99.759 21.8697 98.6589C21.9312 98.6369 21.9927 98.615 22.0527 98.593C21.3094 98.0196 20.4687 97.5851 19.571 97.3104C19.6345 97.0853 19.6335 96.8469 19.5681 96.6223C19.4792 96.3376 19.3009 96.0892 19.0595 95.914C18.8181 95.7388 18.5266 95.6463 18.2284 95.6501H16.3192C16.0215 95.646 15.7304 95.7384 15.4895 95.9133C15.2486 96.0883 15.0707 96.3365 14.9825 96.6208C14.917 96.8459 14.916 97.0848 14.9795 97.3104C14.1888 97.5525 13.4416 97.9187 12.7657 98.3953C12.6296 98.4905 12.4978 98.5901 12.3705 98.694C12.2738 98.7716 12.1787 98.8522 12.0864 98.9341Z" fill="#2F2E41"/>
<path d="M23.571 85.4744C23.571 86.795 24.2211 87.8902 25.0659 88.0805C25.1519 88.0998 25.2398 88.1096 25.328 88.1098C26.2958 88.1098 27.085 86.9282 27.085 85.4744C27.085 84.631 26.8199 83.8799 26.4085 83.3982C26.2657 83.2254 26.09 83.0825 25.8916 82.978C25.7176 82.8872 25.5243 82.8395 25.328 82.8389C25.0583 82.8423 24.7966 82.9304 24.5798 83.0908C23.9839 83.5124 23.571 84.4217 23.571 85.4744Z" fill="#3F3D56"/>
<path d="M7.90491 85.4744C7.90491 86.6105 8.38511 87.5798 9.05862 87.9502C9.24299 88.0535 9.45053 88.1084 9.66186 88.1098C9.70885 88.1098 9.75579 88.1069 9.80242 88.101C10.7043 87.9941 11.4188 86.858 11.4188 85.4744C11.4188 84.366 10.9605 83.4158 10.3134 83.0278C10.1176 82.9063 9.89224 82.8409 9.66186 82.8389C9.46553 82.8395 9.2722 82.8872 9.09816 82.978C8.89927 83.083 8.72312 83.2263 8.57986 83.3997C8.16985 83.8814 7.90491 84.6325 7.90491 85.4744Z" fill="#3F3D56"/>
<path d="M9.16816 87.6976C9.20303 87.6975 9.23738 87.6892 9.26839 87.6733C9.2994 87.6574 9.32618 87.6343 9.34651 87.606C9.36685 87.5776 9.38015 87.5449 9.38533 87.5104C9.39051 87.4759 9.38741 87.4407 9.37629 87.4077C8.95655 86.1595 8.83029 84.8313 9.00731 83.5264C9.18433 82.2214 9.65987 80.9749 10.397 79.8836C11.1341 78.7924 12.1129 77.8858 13.2573 77.2343C14.4018 76.5828 15.681 76.204 16.9957 76.1273C18.3103 76.0506 19.6249 76.2781 20.8374 76.792C22.0498 77.306 23.1274 78.0926 23.9864 79.0908C24.8454 80.0889 25.4627 81.2717 25.7903 82.5472C26.1178 83.8227 26.1469 85.1565 25.8752 86.4451C25.8692 86.4733 25.8689 86.5024 25.8742 86.5307C25.8795 86.5591 25.8903 86.5861 25.906 86.6103C25.9218 86.6345 25.9421 86.6553 25.9659 86.6716C25.9897 86.6879 26.0165 86.6993 26.0447 86.7053C26.0729 86.7112 26.1021 86.7116 26.1304 86.7063C26.1588 86.701 26.1858 86.6901 26.21 86.6744C26.2341 86.6586 26.2549 86.6383 26.2712 86.6145C26.2875 86.5907 26.299 86.5639 26.305 86.5357C26.5908 85.181 26.5604 83.7785 26.2161 82.4374C25.8718 81.0964 25.2229 79.8527 24.3198 78.8032C23.4167 77.7537 22.2837 76.9266 21.009 76.3862C19.7342 75.8458 18.352 75.6066 16.9698 75.6873C15.5875 75.768 14.2425 76.1663 13.0393 76.8514C11.8361 77.5364 10.807 78.4897 10.0321 79.6372C9.25726 80.7846 8.75743 82.0953 8.57149 83.4673C8.38556 84.8394 8.51853 86.2358 8.96007 87.5481C8.97476 87.5916 9.00275 87.6295 9.04007 87.6563C9.0774 87.6831 9.1222 87.6976 9.16816 87.6976Z" fill="#3F3D56"/>
<path d="M21.3688 81.2287C21.6791 81.6522 21.5262 82.223 21.1992 82.5882C20.7738 83.0634 20.0955 83.0934 19.5064 83.0052C18.8455 82.9062 18.1444 82.5965 17.4753 82.8052C16.9049 82.9831 16.4981 83.5004 15.9056 83.6303C15.3801 83.7455 14.7517 83.593 14.5675 83.0329C14.479 82.7638 14.903 82.6484 14.9911 82.9162C15.1102 83.2785 15.6248 83.2713 15.9195 83.1709C16.392 83.0101 16.7561 82.6188 17.2205 82.4319C17.7679 82.2116 18.3619 82.311 18.9193 82.4366C19.4447 82.5549 20.0493 82.7303 20.5727 82.5093C20.96 82.3458 21.2681 81.8307 20.9896 81.4504C20.8223 81.2221 21.2033 81.0027 21.3688 81.2287Z" fill="#2F2E41"/>
<path d="M16.5446 100C14.9953 100.001 13.4535 99.7846 11.9645 99.3561C11.7896 99.307 11.6057 99.251 11.4211 99.1906C10.3836 98.8529 9.38226 98.4131 8.43163 97.8777C8.25333 97.7777 8.07435 97.6722 7.8851 97.5555C6.94532 96.9774 6.06568 96.3068 5.25928 95.5538C5.12626 95.4296 4.99442 95.3023 4.86553 95.175C2.32955 92.6466 0.682499 89.3635 0.171798 85.819C-0.338904 82.2745 0.314326 78.66 2.03335 75.5185C3.75238 72.377 6.44438 69.8781 9.70493 68.3972C12.9655 66.9163 16.6185 66.5335 20.1153 67.3061C23.612 68.0787 26.7636 69.9652 29.0967 72.682C31.4297 75.3988 32.8182 78.7993 33.0535 82.3727C33.2888 85.946 32.3583 89.4993 30.4017 92.4986C28.4451 95.4979 25.568 97.7813 22.2028 99.0058C22.1424 99.0279 22.0799 99.0502 22.0173 99.0725C20.2585 99.6884 18.4081 100.002 16.5446 100ZM16.5446 67.7892C13.444 67.7893 10.4131 68.7095 7.83578 70.4332C5.25844 72.1569 3.25051 74.6066 2.06623 77.4722C0.881957 80.3377 0.57459 83.4902 1.18305 86.5306C1.79151 89.5709 3.28843 92.3623 5.48428 94.5514C5.60582 94.6714 5.73164 94.793 5.85886 94.9117C6.62259 95.6249 7.45568 96.26 8.34573 96.8075C8.52503 96.918 8.69376 97.0175 8.86199 97.1118C9.76234 97.619 10.7108 98.0355 11.6934 98.3553C11.8673 98.4123 12.0391 98.4647 12.2051 98.5113C15.3296 99.4079 18.6551 99.3146 21.7244 98.2444L21.9019 98.1805C25.3631 96.9206 28.2698 94.4815 30.1116 91.2916C31.9533 88.1017 32.6123 84.3649 31.9729 80.7374C31.3334 77.1099 29.4364 73.8236 26.615 71.4557C23.7935 69.0878 20.228 67.7897 16.5446 67.7892Z" fill="#CCCCCC"/>
</g>
<defs>
<clipPath id="clip0_1_424">
<rect width="112.299" height="100" fill="white"/>
</clipPath>
</defs>
</svg>
