<svg width="40" height="40" viewBox="0 0 40 40" fill="none" xmlns="http://www.w3.org/2000/svg">
<path d="M5.40754 10.1286C6.45321 9.39778 8.02949 9.53794 8.96836 10.3133L7.89155 8.74813C7.02498 7.51225 7.33535 6.17513 8.57234 5.30745C9.80934 4.44311 13.3145 6.76693 13.3145 6.76693C12.4402 5.51881 12.6037 3.93697 13.8518 3.0615C15.1 2.18937 16.822 2.49083 17.6963 3.74118L29.2876 20.1158L27.8103 34.4381L15.4815 29.9417L4.72786 13.9976C3.84572 12.7417 4.15052 11.0097 5.40754 10.1286Z" fill="#E8EAF5"/>
<path d="M2.99802 19.2382C2.99802 19.2382 1.73877 17.4027 3.57536 16.1446C5.40972 14.8865 6.66786 16.7208 6.66786 16.7208L12.5091 25.2396C12.7105 24.9037 12.9307 24.5722 13.1766 24.2451L5.06932 12.4236C5.06932 12.4236 3.81119 10.5892 5.64666 9.33109C7.48103 8.07295 8.73916 9.90731 8.73916 9.90731L16.3647 21.0281C16.6484 20.7967 16.9387 20.5642 17.238 20.3361L8.39765 7.44221C8.39765 7.44221 7.13952 5.60785 8.97499 4.34972C10.8094 3.09158 12.0675 4.92595 12.0675 4.92595L20.9078 17.8177C21.2326 17.6185 21.5541 17.4461 21.8767 17.2637L13.6137 5.21406C13.6137 5.21406 12.3556 3.3797 14.19 2.12156C16.0243 0.863428 17.2825 2.69779 17.2825 2.69779L26.0193 15.4393L27.3475 17.3771C21.8433 21.1527 21.3194 28.2554 24.4642 32.8418C25.0927 33.7596 26.0104 33.1311 26.0104 33.1311C22.236 27.6258 23.3885 21.4397 28.8938 17.6653L27.2708 9.54244C27.2708 9.54244 26.6645 7.40217 28.8037 6.79479C30.944 6.18853 31.5513 8.3288 31.5513 8.3288L33.4257 13.8953C34.1688 16.1023 34.9598 18.3015 36.0065 20.3818C38.9622 26.2553 37.1968 33.5549 31.6236 37.3783C25.5443 41.5464 17.2335 39.9969 13.0642 33.9187L2.99802 19.2382Z" fill="#E1BA9D"/>
<path d="M13.349 35.597C8.8994 35.597 4.40304 31.1006 4.40304 26.651C4.40304 26.0358 3.95252 25.5386 3.33735 25.5386C2.72219 25.5386 2.17822 26.0358 2.17822 26.651C2.17822 33.3254 6.67458 37.8218 13.349 37.8218C13.9642 37.8218 14.4614 37.2778 14.4614 36.6627C14.4614 36.0475 13.9642 35.597 13.349 35.597Z" fill="#B1B6CF"/>
<path d="M7.78686 37.7753C4.44964 37.7753 2.22482 35.5505 2.22482 32.2133C2.22482 31.5981 1.72757 31.1009 1.11241 31.1009C0.497247 31.1009 0 31.5981 0 32.2133C0 36.6629 3.33723 40.0001 7.78686 40.0001C8.40202 40.0001 8.89927 39.5029 8.89927 38.8877C8.89927 38.2726 8.40202 37.7753 7.78686 37.7753ZM26.6978 2.17822C26.0838 2.17822 25.5854 2.67658 25.5854 3.29063C25.5854 3.90468 26.0838 4.40304 26.6978 4.40304C31.1474 4.40304 35.5971 8.39548 35.5971 13.3023C35.5971 13.9164 36.0954 14.4147 36.7095 14.4147C37.3235 14.4147 37.8219 13.9164 37.8219 13.3023C37.8219 7.16849 33.3723 2.17822 26.6978 2.17822Z" fill="#B1B6CF"/>
<path d="M32.2599 0C31.6458 0 31.1475 0.451638 31.1475 1.06569C31.1475 1.67974 31.6458 2.22482 32.2599 2.22482C35.5971 2.22482 37.7752 4.69993 37.7752 7.74014C37.7752 8.35419 38.3192 8.85255 38.9343 8.85255C39.5495 8.85255 40 8.35419 40 7.74014C40 3.47183 36.7095 0 32.2599 0Z" fill="#B1B6CF"/>
</svg>
