<svg width="130" height="100" viewBox="0 0 130 100" fill="none" xmlns="http://www.w3.org/2000/svg">
<path d="M55.7143 93.5212C80.0822 93.5212 99.8362 72.5858 99.8362 46.7606C99.8362 20.9354 80.0822 0 55.7143 0C31.3465 0 11.5924 20.9354 11.5924 46.7606C11.5924 72.5858 31.3465 93.5212 55.7143 93.5212Z" fill="#F2F2F2"/>
<path d="M17.5068 100C27.1756 100 35.0136 98.6709 35.0136 97.0314C35.0136 95.3918 27.1756 94.0627 17.5068 94.0627C7.83807 94.0627 0 95.3918 0 97.0314C0 98.6709 7.83807 100 17.5068 100Z" fill="#F2F2F2"/>
<path d="M102.912 96.9824C117.872 96.9824 130 94.9258 130 92.389C130 89.8522 117.872 87.7957 102.912 87.7957C87.9513 87.7957 75.8235 89.8522 75.8235 92.389C75.8235 94.9258 87.9513 96.9824 102.912 96.9824Z" fill="#F2F2F2"/>
<path d="M96.8932 48.2379C96.8932 48.2379 97.1238 49.0526 95.8169 49.7859C94.5101 50.5191 94.1257 53.2891 95.6632 54.1038C97.2007 54.9186 97.6619 55.9777 96.8932 56.7109C96.1244 57.4442 94.7407 59.3995 96.5857 59.8883C98.4306 60.3771 98.6613 61.3548 98.1231 61.7621C97.585 62.1695 99.3531 61.0289 99.3531 61.0289C99.3531 61.0289 99.6606 62.9842 101.275 62.4954C102.889 62.0066 107.425 52.7188 105.119 51.4153C102.812 50.1118 96.8932 48.2379 96.8932 48.2379Z" fill="#2F2E41"/>
<path d="M99.6795 56.1048C99.6795 56.1048 100.477 59.0626 99.0815 59.2739C98.2155 59.417 97.3948 59.7793 96.6892 60.3303L99.2808 63.922H104.065L107.056 60.7528C107.056 60.7528 103.069 57.5837 103.866 55.6823C104.663 53.7808 99.6795 56.1048 99.6795 56.1048Z" fill="#FFB9B9"/>
<path opacity="0.1" d="M99.6795 56.1048C99.6795 56.1048 100.477 59.0626 99.0815 59.2739C98.2155 59.417 97.3948 59.7793 96.6892 60.3303L99.2808 63.922H104.065L107.056 60.7528C107.056 60.7528 103.069 57.5837 103.866 55.6823C104.663 53.7808 99.6795 56.1048 99.6795 56.1048Z" fill="black"/>
<path d="M100.876 92.8667L105.461 94.5569L108.65 94.7682L108.451 91.8102L101.872 89.7482L100.876 92.8667Z" fill="#FFB9B9"/>
<path d="M106.757 92.2327C106.757 92.2327 106.757 95.1906 107.155 95.1906C107.554 95.1906 112.936 94.5568 114.531 95.1906C116.126 95.8245 118.518 93.5004 117.322 92.2327C116.126 90.9651 114.175 89.0635 112.958 89.4861C111.74 89.9086 106.757 90.965 106.757 90.965V92.2327Z" fill="#575A89"/>
<path d="M92.1041 89.4862C92.1041 89.4862 89.7118 94.5567 91.3066 94.9793C92.9015 95.4018 94.6956 94.768 94.895 94.5567C95.0944 94.3454 97.8853 93.5004 98.284 93.9229C98.6827 94.3454 98.6827 92.2327 98.6827 92.2327L92.1041 89.4862Z" fill="#575A89"/>
<path d="M94.0976 82.514C94.0976 82.514 90.3099 88.0073 93.1008 89.4863C95.8918 90.9652 109.248 90.9652 110.245 89.4863C111.242 88.0073 111.641 83.3592 110.245 82.9366C108.85 82.514 94.0976 82.514 94.0976 82.514Z" fill="#2F2E41"/>
<path opacity="0.2" d="M94.0976 82.514C94.0976 82.514 90.3099 88.0073 93.1008 89.4863C95.8918 90.9652 109.248 90.9652 110.245 89.4863C111.242 88.0073 111.641 83.3592 110.245 82.9366C108.85 82.514 94.0976 82.514 94.0976 82.514Z" fill="black"/>
<path d="M101.274 57.5838C103.807 57.5838 105.859 55.4082 105.859 52.7244C105.859 50.0407 103.807 47.8651 101.274 47.8651C98.742 47.8651 96.6892 50.0407 96.6892 52.7244C96.6892 55.4082 98.742 57.5838 101.274 57.5838Z" fill="#FFB9B9"/>
<path d="M94.0976 60.3303L98.0846 59.4852C98.0846 59.4852 99.0814 62.8656 102.271 62.2318C105.461 61.598 106.258 59.4852 106.258 59.4852C106.258 59.4852 108.65 60.5416 108.85 60.5416C109.049 60.5416 111.641 61.598 111.641 62.2318C111.641 62.8656 108.65 69.2038 108.65 69.2038L109.049 80.6126L94.2969 80.1901L95.2937 68.9926L94.0976 60.3303Z" fill="#5A66DF"/>
<path d="M91.9047 65.8235C91.9047 65.8235 90.7086 77.0211 91.506 77.8662C92.3034 78.7113 95.4931 81.0353 95.4931 81.0353V78.5L93.8982 75.3309L95.4931 67.9362L91.9047 65.8235Z" fill="#FFB9B9"/>
<path d="M112.538 65.5065C112.538 65.5065 111.84 77.021 111.84 77.4435C111.84 77.8661 110.046 79.345 109.448 79.345C108.85 79.345 108.451 78.2886 108.451 78.2886L109.847 76.5984L108.85 67.9361L112.538 65.5065Z" fill="#FFB9B9"/>
<path d="M110.644 81.669C110.644 81.669 119.615 76.3872 119.814 81.669C120.014 86.9508 115.229 89.0635 115.229 89.0635C115.229 89.0635 102.869 92.9914 102.371 91.5556C101.872 90.1199 100.876 87.7959 101.673 87.5846C102.47 87.3733 103.467 86.9508 103.866 87.3733C104.265 87.7959 109.248 84.2043 109.248 84.2043L110.644 81.669Z" fill="#2F2E41"/>
<path opacity="0.2" d="M114.83 81.0352C114.83 81.0352 113.036 81.8803 112.438 82.5141C111.84 83.1479 109.248 84.2043 109.248 84.2043" stroke="black" stroke-width="2" stroke-miterlimit="10"/>
<path d="M95.2937 60.7529L94.0976 60.3303C94.0976 60.3303 89.7119 65.1896 91.1073 66.4573C92.5028 67.7249 93.3002 68.1475 93.6989 68.57C94.0976 68.9926 96.0911 69.2039 96.0911 69.2039L95.2937 60.7529Z" fill="#5A66DF"/>
<path d="M109.846 61.8092L111.641 62.2317C111.641 62.2317 113.036 65.4009 113.435 65.8234C113.833 66.246 112.837 66.0347 112.239 66.8798C111.641 67.7249 111.043 69.2038 109.846 69.2038C108.65 69.2038 107.056 67.0911 107.056 67.0911L109.846 61.8092Z" fill="#5A66DF"/>
<path d="M94.4963 83.5705C94.4963 83.5705 86.9209 77.8661 84.3294 82.0915C81.7378 86.317 95.4931 92.0214 97.4866 92.8665C99.4801 93.7116 101.274 94.5567 101.274 94.5567C101.274 94.5567 103.068 89.9087 103.068 89.0636C103.068 88.2185 101.673 88.2185 101.274 88.2185C100.876 88.2185 99.0814 87.7959 98.6827 87.1621C98.284 86.5283 94.4963 83.5705 94.4963 83.5705Z" fill="#2F2E41"/>
<path opacity="0.2" d="M90.3099 82.0917C90.3099 82.0917 92.3035 83.7818 94.0976 84.2044C95.8918 84.6269 96.4899 85.6832 96.4899 85.6832" stroke="black" stroke-width="2" stroke-miterlimit="10"/>
<path d="M93.1212 74.1478L93.2805 83.0932C93.2857 83.3887 93.401 83.67 93.6011 83.8758C93.8012 84.0816 94.07 84.1952 94.3488 84.1919L110.056 84.0048C110.324 84.0016 110.581 83.8909 110.774 83.6951C110.968 83.4992 111.084 83.2328 111.099 82.9496L111.576 74.1912C111.584 74.0389 111.563 73.8865 111.514 73.7432C111.465 73.6 111.388 73.4689 111.29 73.358C111.191 73.2471 111.072 73.1587 110.94 73.0984C110.808 73.038 110.665 73.0068 110.521 73.0068H94.1777C94.0372 73.0068 93.8982 73.0365 93.7687 73.0941C93.6392 73.1517 93.5219 73.2361 93.4235 73.3423C93.3251 73.4486 93.2477 73.5745 93.1958 73.7128C93.1439 73.8511 93.1186 73.999 93.1212 74.1478Z" fill="#575A89"/>
<path d="M101.519 46.6201C101.519 46.6201 101.775 47.5227 100.327 48.3349C98.8793 49.1472 98.4535 52.2158 100.157 53.1184C101.86 54.0209 102.371 55.1942 101.519 56.0065C100.668 56.8188 99.1348 58.9848 101.179 59.5264C103.223 60.0679 103.478 61.1509 102.882 61.6022C102.286 62.0534 104.244 60.7899 104.244 60.7899C104.244 60.7899 104.585 62.956 106.373 62.4145C108.162 61.8729 109.946 52.0294 107.953 49.4941C106.099 47.1367 101.519 46.6201 101.519 46.6201Z" fill="#2F2E41"/>
<path d="M100.975 45.6911C100.976 44.3689 104.708 45.319 106.309 47.1651C107.417 48.4436 109.1 50.367 107.69 51.7228C106.279 53.0786 110.107 54.8559 111.134 55.3947C112.161 55.9336 114.188 57.5814 112.358 58.6869C110.527 59.7924 110.557 60.9083 111.246 61.1726C111.934 61.4368 109.727 60.7797 109.727 60.7797C109.727 60.7797 109.95 62.9629 108.09 62.9525C106.23 62.942 100.894 52.1092 102.169 49.0982C103.354 46.2984 100.975 45.6911 100.975 45.6911Z" fill="#2F2E41"/>
<path d="M101.784 45.4013C96.7922 45.0828 96.2913 49.0648 96.2913 49.0648C96.3258 51.3692 99.7788 50.2464 100.738 50.5899C101.895 49.7078 104.125 48.0388 105.72 46.8476C104.562 45.9835 103.198 45.4823 101.784 45.4013Z" fill="#2F2E41"/>
<path d="M100.362 70.8114C100.362 70.8114 95.8842 48.572 67.859 32.4391" stroke="#3F3D56" stroke-width="2" stroke-miterlimit="10"/>
<path d="M69.0137 31.954L69.0698 32.1978L67.9362 32.4892L68.2933 33.6662L68.0678 33.7428L67.6331 32.3091L69.0137 31.954Z" fill="#3F3D56"/>
<path d="M8.09969 93.5351C8.09969 96.3518 6.51976 97.3353 4.57066 97.3353C4.5255 97.3353 4.48042 97.3348 4.43541 97.3337C4.34511 97.3317 4.25566 97.3271 4.16729 97.3208C2.40826 97.1888 1.04163 96.1547 1.04163 93.5351C1.04163 90.8241 4.31049 87.4032 4.55603 87.15L4.55646 87.1496C4.56593 87.1398 4.57066 87.135 4.57066 87.135C4.57066 87.135 8.09969 90.7183 8.09969 93.5351Z" fill="#5A66DF"/>
<path d="M4.44201 96.9045L5.73274 94.9931L4.43879 97.1144L4.43535 97.3338C4.34504 97.3317 4.25559 97.3272 4.16722 97.3208L4.30634 94.5027L4.30526 94.4808L4.30763 94.4767L4.32075 94.2105L3.02356 92.084L4.32483 94.0109L4.32784 94.0674L4.43298 91.9382L3.32243 89.7408L4.44653 91.5644L4.55597 87.1501L4.5564 87.135V87.1496L4.53813 90.6306L5.64373 89.2506L4.53361 90.9305L4.50437 92.8369L5.53665 91.0073L4.50007 93.1174L4.48373 94.1773L5.98238 91.6308L4.47814 94.5471L4.44201 96.9045Z" fill="#3F3D56"/>
<path d="M24.9323 92.8053L25.6872 92.2109C25.6872 92.2109 26.1869 95.1691 25.6293 95.6124C25.0717 96.0556 22.9807 96.7943 22.9807 97.6807C22.9807 98.5671 18.2411 99.749 18.1017 98.4194C17.9623 97.0897 18.5199 96.351 18.5199 96.351C18.5199 96.351 20.7503 93.9872 21.0291 93.544C21.3079 93.1008 22.0049 92.2144 22.0049 92.2144L24.9323 92.8053Z" fill="#2F2E41"/>
<path d="M13.7803 56.0191C13.7803 56.0191 13.8012 56.1491 13.8374 56.387C13.8709 56.5983 13.9169 56.8967 13.9726 57.2646C14.5581 61.051 16.2658 72.1977 16.1501 72.5656C16.0107 73.0088 15.0349 74.6339 16.1501 75.0771C16.2574 75.1199 16.3731 75.2588 16.4972 75.4774C16.7366 75.9484 16.934 76.442 17.0868 76.9519C17.7518 78.9965 18.4627 82.2689 18.8739 84.5351C19.0538 85.5309 19.1764 86.3316 19.2127 86.7512C19.2253 86.8481 19.2267 86.9464 19.2168 87.0437C19.0775 87.6346 20.0532 89.7029 20.4714 90.2939C20.8896 90.8848 21.5866 91.4758 21.4472 92.0667C21.3078 92.6577 24.9322 94.2828 25.3504 93.2486C25.7686 92.2145 25.7686 91.6235 25.908 91.328C26.0474 91.0326 26.1868 88.9643 25.4898 88.6688C24.7928 88.3733 25.211 83.2026 24.514 82.1684C24.2812 81.8242 23.9258 80.6585 23.5536 79.2565C23.4072 78.707 23.2594 78.1219 23.1144 77.5354C22.5262 75.1317 22.0048 72.7133 22.0048 72.7133L22.1442 55.4282L14.4773 54.394L14.2807 54.8535L13.889 55.765L13.7803 56.0191Z" fill="#2F2E41"/>
<path d="M13.362 84.3844C13.362 84.3844 12.2469 83.2025 11.6893 84.3844C11.1317 85.5663 10.5741 90.1461 9.59827 91.1803C8.62247 92.2144 7.36788 97.3852 8.76187 97.6806C10.1559 97.9761 11.6893 97.2374 11.8287 96.351C11.9681 95.4646 14.8954 90.8848 14.8954 90.4416C14.8954 89.9984 12.9438 88.3733 12.9438 88.3733L13.362 84.3844Z" fill="#2F2E41"/>
<path d="M30.5082 47.8937C30.5082 47.8937 28.696 65.1788 28.2778 66.8039C27.8596 68.429 25.6292 74.6339 24.9322 75.6681C24.2352 76.7022 19.7744 85.1232 19.2168 85.5664C18.6592 86.0096 17.544 87.1915 17.544 87.1915C17.544 87.1915 15.453 89.4075 15.1742 89.8507C14.8954 90.294 12.5257 88.9643 12.3863 88.0779C12.2469 87.1915 12.5257 85.7141 12.6651 85.1232C12.8045 84.5323 12.3863 83.6458 12.8045 83.2026C13.2227 82.7594 15.3136 80.5434 15.3136 79.5092C15.3136 78.4751 18.938 72.4179 20.332 71.0883C21.726 69.7586 21.4472 67.5426 21.4472 67.5426V58.5307L13.7803 56.0192C13.7803 56.0192 14.1985 48.9278 15.1742 48.9278C16.15 48.9278 28.9748 46.5641 30.5082 47.8937Z" fill="#2F2E41"/>
<path d="M19.2169 23.2217C21.7575 23.2217 23.8171 21.039 23.8171 18.3465C23.8171 15.6539 21.7575 13.4712 19.2169 13.4712C16.6763 13.4712 14.6167 15.6539 14.6167 18.3465C14.6167 21.039 16.6763 23.2217 19.2169 23.2217Z" fill="#9F616A"/>
<path d="M20.7503 22.1876C20.7503 22.1876 21.3079 24.4036 22.0049 24.9946C22.7019 25.5855 20.1927 28.097 20.1927 28.097L15.4531 28.3925L14.6167 25.5855C14.6167 25.5855 16.1501 22.3353 15.7319 20.267C15.3137 18.1987 20.7503 22.1876 20.7503 22.1876Z" fill="#9F616A"/>
<path d="M22.7018 24.6991C22.7018 24.6991 21.4472 24.8468 21.1684 25.29C20.8896 25.7332 18.9381 27.0629 17.4047 26.7674C15.8713 26.4719 14.8955 26.0287 14.6167 26.1765C14.3379 26.3242 13.7803 29.4266 13.7803 29.4266L15.3137 34.1542L15.0349 47.155L14.6167 50.7006C14.6167 50.7006 13.7803 49.5187 17.1259 50.2574C20.4714 50.9961 24.7928 49.6665 26.1868 49.5187C27.5808 49.371 29.9506 48.9278 30.09 48.0414C30.2294 47.155 29.6718 43.9048 29.6718 43.9048L27.4414 34.0065L26.0474 28.688L22.7018 24.6991Z" fill="#5A66DF"/>
<path d="M21.3833 24.0323C21.3833 24.0323 22.5625 23.3695 22.9807 23.9604C23.3989 24.5514 28.696 25.4378 28.696 25.881C28.696 26.3242 29.8112 38.2908 29.5324 39.325C29.2536 40.3591 30.09 41.541 30.09 41.541L31.0658 45.9731C31.0658 45.9731 33.7144 54.3941 32.5992 54.6895C31.484 54.985 30.5082 54.6895 30.09 54.6895C29.6718 54.6895 29.8112 49.0756 28.696 47.5982C27.5808 46.1208 26.0474 42.4274 25.7687 41.6888C25.4899 40.9501 22.0049 30.7563 22.1443 29.5744C22.2837 28.3925 21.3833 24.0323 21.3833 24.0323Z" fill="#D0CDE1"/>
<path d="M15.5924 24.6991C15.5924 24.6991 14.4772 24.6991 14.3378 24.9946C14.1984 25.29 12.8045 27.2106 12.2469 27.6538C11.6893 28.097 9.73767 30.0176 9.73767 30.4608C9.73767 30.904 13.7803 34.1542 13.7803 34.1542C13.7803 34.1542 15.453 42.8706 14.6166 45.8253C13.7802 48.78 12.5257 55.8714 13.0833 56.3146C13.6409 56.7578 14.8954 56.9055 14.8954 56.3146C14.8954 55.7236 15.7318 49.371 16.4288 48.0414C17.1258 46.7117 19.2168 38.2908 18.3804 35.927C17.544 33.5632 15.5924 24.6991 15.5924 24.6991Z" fill="#D0CDE1"/>
<path d="M33.9932 39.325C33.9932 39.325 34.1326 43.9048 32.5992 46.2685C31.0658 48.6323 30.09 51.2916 30.09 51.2916C30.09 51.2916 27.5808 50.5529 27.1626 49.6665C26.7444 48.7801 24.0958 49.5187 24.0958 49.2233C24.0958 48.9278 27.302 47.4504 27.5808 47.155C27.8596 46.8595 28.8354 46.8595 29.393 46.2685C29.9506 45.6776 30.09 44.348 30.09 44.348L30.6476 40.5068L33.9932 39.325Z" fill="#9F616A"/>
<path d="M22.3852 15.3404C22.7391 15.3063 23.1041 15.2688 23.4169 15.0901C24.1177 14.6895 24.3035 13.5489 23.77 12.9225C23.6229 12.7631 23.4584 12.6229 23.2799 12.5048L22.2203 11.7405C21.7517 11.4024 21.272 11.0588 20.7254 10.8994C20.231 10.7553 19.7088 10.7701 19.1971 10.8038C18.2036 10.8693 17.204 11.0044 16.2696 11.368C15.3351 11.7315 14.4635 12.3396 13.8976 13.2074C13.0004 14.5832 12.9881 16.4387 13.4822 18.0269C13.9763 19.6152 14.915 20.9982 15.8398 22.3532L16.3197 19.8717C16.3625 19.6506 16.4177 19.4084 16.5912 19.2776C17.0223 18.9525 17.5497 19.62 18.0788 19.6157C18.4187 19.6129 18.7042 19.3165 18.833 18.9831C18.9618 18.6497 18.9703 18.2804 19.0001 17.9215C19.0633 17.1612 19.314 16.1034 19.9933 15.6842C20.6263 15.2935 21.6737 15.4089 22.3852 15.3404Z" fill="#2F2E41"/>
<path opacity="0.1" d="M22.1271 56.1384C22.1271 56.1384 21.6563 70.5712 21.3775 71.0144C21.0987 71.4576 21.3775 56.093 21.3775 56.093L22.1271 56.1384Z" fill="black"/>
<path d="M27.5808 25.881H28.696C28.696 25.881 33.4356 32.6768 32.878 33.12C32.3204 33.5633 32.878 34.7451 32.878 34.7451L33.9932 36.9612C33.9932 36.9612 35.3872 38.2908 34.969 38.5863C34.5508 38.8818 33.9932 40.0636 33.9932 40.0636C33.9932 40.0636 31.2052 39.6204 30.3688 41.3933L28.5608 38.9743L27.5808 25.881Z" fill="#D0CDE1"/>
<path d="M27.975 28.0669L24.1483 29.7416L27.093 37.2992L30.9197 35.6245L27.975 28.0669Z" fill="#2F2E41"/>
<path d="M27.5265 32.4995C27.9492 32.3146 28.1618 31.831 28.0015 31.4195C27.8411 31.008 27.3685 30.8243 26.9458 31.0093C26.5231 31.1943 26.3105 31.6778 26.4708 32.0894C26.6312 32.5009 27.1038 32.6845 27.5265 32.4995Z" fill="#5A66DF"/>
<path d="M24.7928 37.6999C24.7928 37.6999 14.756 46.564 13.0832 43.757C11.4104 40.9501 14.8954 38.5863 14.8954 38.5863C14.8954 38.5863 17.9622 38.734 21.4472 36.3702L24.9322 34.7451C24.9322 34.7451 28.1137 29.9313 29.1979 31.7644C30.282 33.5974 27.3472 36.7877 24.7928 37.6999Z" fill="#9F616A"/>
<path d="M11.271 29.8699L9.73765 30.4608V34.8929L9.18005 35.7793C9.18005 35.7793 9.31945 37.5522 9.73765 37.9954C10.1559 38.4386 10.9922 38.2908 10.7134 39.325C10.5459 39.9992 10.4986 40.7007 10.574 41.3933C10.574 41.3933 13.0832 44.7912 13.2226 44.348C13.362 43.9048 15.3136 38.4386 15.5924 38.4386C15.8712 38.4386 12.8044 29.8699 12.8044 29.8699H11.271Z" fill="#D0CDE1"/>
<path d="M29.6021 52.2519C29.6021 52.2519 31.0435 50.7746 30.3228 50.7007C29.6021 50.6268 27.0929 49.1494 26.6747 49.8881C26.2565 50.6268 29.6021 52.2519 29.6021 52.2519Z" fill="#2F2E41"/>
<path d="M57.0154 24.0699C58.1261 24.0699 59.0264 23.5647 59.0264 22.9416C59.0264 22.3185 58.1261 21.8134 57.0154 21.8134C55.9048 21.8134 55.0045 22.3185 55.0045 22.9416C55.0045 23.5647 55.9048 24.0699 57.0154 24.0699Z" fill="#57B894"/>
<path d="M64.7042 26.7024C60.1698 24.8875 55.6354 24.8875 51.101 26.7024V20.8104C55.5366 19.3918 60.2686 19.3918 64.7042 20.8104V26.7024Z" stroke="#3F3D56" stroke-width="2" stroke-miterlimit="10"/>
<path d="M62.8117 25.4839C59.539 24.174 56.2663 24.174 52.9937 25.4839V21.2314C56.195 20.2075 59.6103 20.2075 62.8117 21.2314V25.4839Z" stroke="#3F3D56" stroke-width="2" stroke-miterlimit="10"/>
<path d="M57.7252 23.5684C58.8358 23.5684 59.7361 23.0633 59.7361 22.4402C59.7361 21.817 58.8358 21.3119 57.7252 21.3119C56.6146 21.3119 55.7143 21.817 55.7143 22.4402C55.7143 23.0633 56.6146 23.5684 57.7252 23.5684Z" stroke="#3F3D56" stroke-width="2" stroke-miterlimit="10"/>
<path d="M58.4941 31.1357C59.5822 30.9004 60.3691 30.2146 60.2515 29.6041C60.1339 28.9935 59.1564 28.6894 58.0683 28.9248C56.9801 29.1601 56.1933 29.8459 56.3109 30.4564C56.4284 31.067 57.4059 31.3711 58.4941 31.1357Z" fill="#57B894"/>
<path d="M66.5243 32.0858C61.7391 31.2685 57.2962 32.2295 53.1959 34.9688L52.0841 29.1957C56.1625 26.8657 60.7989 25.8629 65.4126 26.3127L66.5243 32.0858Z" stroke="#3F3D56" stroke-width="2" stroke-miterlimit="10"/>
<path d="M64.4401 31.2929C60.9863 30.703 57.7798 31.3966 54.8204 33.3737L54.0179 29.207C56.9615 27.5254 60.3077 26.8016 63.6376 27.1263L64.4401 31.2929Z" stroke="#3F3D56" stroke-width="2" stroke-miterlimit="10"/>
<path d="M59.0949 30.494C60.183 30.2586 60.9698 29.5729 60.8523 28.9623C60.7347 28.3518 59.7572 28.0477 58.6691 28.283C57.5809 28.5184 56.7941 29.2042 56.9117 29.8147C57.0293 30.4252 58.0067 30.7294 59.0949 30.494Z" stroke="#3F3D56" stroke-width="2" stroke-miterlimit="10"/>
<path d="M59.8702 37.191C59.9111 36.5694 59.046 35.9992 57.9381 35.9175C56.8301 35.8358 55.8989 36.2735 55.8581 36.8951C55.8173 37.5167 56.6823 38.0869 57.7903 38.1686C58.8982 38.2503 59.8294 37.8126 59.8702 37.191Z" fill="#57B894"/>
<path d="M65.2881 41.3605C60.8835 39.2163 56.36 38.8827 51.7177 40.3597L52.1036 34.4819C56.6215 33.3931 61.342 33.7412 65.674 35.4827L65.2881 41.3605Z" stroke="#3F3D56" stroke-width="2" stroke-miterlimit="10"/>
<path d="M63.4799 40.0058C60.3009 38.4582 57.0361 38.2175 53.6855 39.2835L53.964 35.0412C57.2248 34.2554 60.6318 34.5066 63.7584 35.7635L63.4799 40.0058Z" stroke="#3F3D56" stroke-width="2" stroke-miterlimit="10"/>
<path d="M60.6111 36.743C60.6519 36.1214 59.7869 35.5512 58.679 35.4695C57.571 35.3878 56.6398 35.8255 56.599 36.4471C56.5582 37.0687 57.4232 37.6389 58.5312 37.7206C59.6391 37.8023 60.5703 37.3646 60.6111 36.743Z" stroke="#3F3D56" stroke-width="2" stroke-miterlimit="10"/>
<path d="M49.0809 26.8393C49.0809 26.8393 40.387 25.5788 34.1785 29.4348" stroke="#3F3D56" stroke-width="2" stroke-miterlimit="10"/>
<path d="M34.3876 28.1389L34.6135 28.2146L34.2605 29.3929L35.3953 29.6799L35.3401 29.924L33.9581 29.5741L34.3876 28.1389Z" fill="#3F3D56"/>
</svg>
