<svg width="40" height="40" viewBox="0 0 40 40" fill="none" xmlns="http://www.w3.org/2000/svg">
<path d="M11.6666 15.0167L11.6833 14.9982" stroke="#5A66DF" stroke-width="1.5" stroke-linecap="round" stroke-linejoin="round"/>
<path d="M18.3334 15.0167L18.35 14.9982" stroke="#5A66DF" stroke-width="1.5" stroke-linecap="round" stroke-linejoin="round"/>
<path d="M11.6666 21.6834L11.6833 21.6649" stroke="#5A66DF" stroke-width="1.5" stroke-linecap="round" stroke-linejoin="round"/>
<path d="M18.3334 21.6834L18.35 21.6649" stroke="#5A66DF" stroke-width="1.5" stroke-linecap="round" stroke-linejoin="round"/>
<path d="M11.6666 28.35L11.6833 28.3315" stroke="#5A66DF" stroke-width="1.5" stroke-linecap="round" stroke-linejoin="round"/>
<path d="M18.3334 28.35L18.35 28.3315" stroke="#5A66DF" stroke-width="1.5" stroke-linecap="round" stroke-linejoin="round"/>
<path d="M25 28.3333H28.3333M25 35H6C5.44772 35 5 34.5523 5 34V9.33333C5 8.78105 5.44772 8.33333 6 8.33333H15V6C15 5.44772 15.4477 5 16 5H24C24.5523 5 25 5.44772 25 6V15V35ZM25 35H34C34.5523 35 35 34.5523 35 34V16C35 15.4477 34.5523 15 34 15H25V35ZM25 35V28.3333V35ZM25 15V21.6667V15ZM25 21.6667H28.3333H25ZM25 21.6667V28.3333V21.6667Z" stroke="#5A66DF" stroke-width="1.5" stroke-linecap="round" stroke-linejoin="round"/>
</svg>
