<svg width="30" height="30" viewBox="0 0 30 30" fill="none" xmlns="http://www.w3.org/2000/svg">
<path d="M22.667 13.75C23.3944 20.4694 26.25 22.5 26.25 22.5H3.75C3.75 22.5 7.5 19.8334 7.5 10.5C7.5 8.37826 8.29018 6.34344 9.6967 4.84315C11.1032 3.34285 13.0109 2.5 15 2.5C15.4216 2.5 15.8396 2.53787 16.25 2.61186" stroke="#5A66DF" stroke-width="1.5" stroke-linecap="round" stroke-linejoin="round"/>
<path d="M23.75 10C25.8211 10 27.5 8.32106 27.5 6.25C27.5 4.17894 25.8211 2.5 23.75 2.5C21.6789 2.5 20 4.17894 20 6.25C20 8.32106 21.6789 10 23.75 10Z" stroke="#FF3D81" stroke-width="1.5" stroke-linecap="round" stroke-linejoin="round"/>
<path d="M17.1625 26.25C16.9428 26.6289 16.6274 26.9434 16.2478 27.1619C15.8683 27.3805 15.438 27.4956 15 27.4956C14.562 27.4956 14.1318 27.3805 13.7523 27.1619C13.3728 26.9434 13.0573 26.6289 12.8375 26.25" stroke="#5A66DF" stroke-width="1.5" stroke-linecap="round" stroke-linejoin="round"/>
</svg>
